SplineFontDB: 3.0
FontName: PricedownBl-Regular
FullName: PricedownBl-Regular
FamilyName: Pricedown Bl
Weight: Black
Copyright: (c) 1998-2012 Typodermic Fonts Inc. See attached license agreement. If agreement is missing visit typodermicfonts.com for more info.
Version: 5.001
ItalicAngle: 0
UnderlinePosition: -143
UnderlineWidth: 20
Ascent: 800
Descent: 200
InvalidEm: 0
sfntRevision: 0x00050042
LayerCount: 2
Layer: 0 1 "Back" 1
Layer: 1 1 "Zeichen" 0
XUID: [1021 1019 11006415 22025]
StyleMap: 0x0040
FSType: 4
OS2Version: 3
OS2_WeightWidthSlopeOnly: 0
OS2_UseTypoMetrics: 0
CreationTime: 1332698970
ModificationTime: 1472463402
PfmFamily: 17
TTFWeight: 900
TTFWidth: 5
LineGap: 0
VLineGap: 0
Panose: 2 11 10 6 0 2 2 8 1 4
OS2TypoAscent: 800
OS2TypoAOffset: 0
OS2TypoDescent: -200
OS2TypoDOffset: 0
OS2TypoLinegap: 200
OS2WinAscent: 1000
OS2WinAOffset: 0
OS2WinDescent: 200
OS2WinDOffset: 0
HheadAscent: 1000
HheadAOffset: 0
HheadDescent: -200
HheadDOffset: 0
OS2SubXSize: 300
OS2SubYSize: 300
OS2SubXOff: 0
OS2SubYOff: 0
OS2SupXSize: 300
OS2SupYSize: 300
OS2SupXOff: 0
OS2SupYOff: 300
OS2StrikeYSize: 50
OS2StrikeYPos: 250
OS2CapHeight: 639
OS2XHeight: 639
OS2FamilyClass: 2063
OS2Vendor: 'TYPO'
OS2CodePages: 20000083.00000000
OS2UnicodeRanges: 8000006f.0000000a.00000000.00000000
Lookup: 4 0 1 "'liga' Standard Ligatures in Latin lookup 0" { "'liga' Standard Ligatures in Latin lookup 0 subtable"  } ['liga' ('latn' <'dflt' > ) ]
Lookup: 4 0 0 "'frac' Diagonal Fractions in Latin lookup 1" { "'frac' Diagonal Fractions in Latin lookup 1 subtable"  } ['frac' ('latn' <'dflt' > ) ]
Lookup: 1 0 0 "'sinf' Wissenschaftliche Indices in Latin lookup 2" { "'sinf' Wissenschaftliche Indices in Latin lookup 2 subtable"  } ['sinf' ('latn' <'dflt' > ) ]
Lookup: 1 0 0 "'sups' Superscript in Latin lookup 3" { "'sups' Superscript in Latin lookup 3 subtable" ("superior") } ['sups' ('latn' <'dflt' > ) ]

StartChar: .notdef
Encoding: 65536 -1 0
Width: 452
Flags: W
LayerCount: 2
Fore
SplineSet
129 0 m 2,0,1
 32 0 32 0 32 84 c 2,2,-1
 32 572 l 2,3,4
 32 657 32 657 129 657 c 2,5,-1
 322 657 l 2,6,7
 420 657 420 657 420 572 c 2,8,-1
 420 84 l 2,9,10
 420 0 420 0 322 0 c 2,11,-1
 129 0 l 2,0,1
368 572 m 2,12,13
 368 611 368 611 322 611 c 2,14,-1
 129 611 l 2,15,16
 83 611 83 611 83 572 c 2,17,-1
 83 84 l 2,18,19
 83 45 83 45 129 45 c 2,20,-1
 322 45 l 2,21,22
 368 45 368 45 368 84 c 2,23,-1
 368 572 l 2,12,13
EndSplineSet
Validated: 1
EndChar

StartChar: exclam
Encoding: 33 33 3
Width: 274
Flags: W
LayerCount: 2
Fore
SplineSet
33 0 m 1,0,-1
 33 159 l 1,1,-1
 241 159 l 1,2,-1
 241 0 l 1,3,-1
 33 0 l 1,0,-1
33 199 m 1,4,-1
 33 639 l 1,5,-1
 241 639 l 1,6,-1
 241 199 l 1,7,-1
 33 199 l 1,4,-1
EndSplineSet
Validated: 1
EndChar

StartChar: numbersign
Encoding: 35 35 5
Width: 615
Flags: W
LayerCount: 2
Fore
SplineSet
364 382 m 1,0,-1
 244 382 l 1,1,-1
 244 250 l 1,2,-1
 364 250 l 1,3,-1
 364 382 l 1,0,-1
364 0 m 1,4,-1
 364 130 l 1,5,-1
 244 130 l 1,6,-1
 244 0 l 1,7,-1
 125 0 l 1,8,-1
 125 130 l 1,9,-1
 19 130 l 1,10,-1
 19 250 l 1,11,-1
 125 250 l 1,12,-1
 125 382 l 1,13,-1
 19 382 l 1,14,-1
 19 502 l 1,15,-1
 125 502 l 1,16,-1
 125 639 l 1,17,-1
 244 639 l 1,18,-1
 244 502 l 1,19,-1
 364 502 l 1,20,-1
 364 639 l 1,21,-1
 483 639 l 1,22,-1
 483 502 l 1,23,-1
 598 502 l 1,24,-1
 598 382 l 1,25,-1
 483 382 l 1,26,-1
 483 250 l 1,27,-1
 598 250 l 1,28,-1
 598 130 l 1,29,-1
 483 130 l 1,30,-1
 483 0 l 1,31,-1
 364 0 l 1,4,-1
EndSplineSet
Validated: 1
EndChar

StartChar: dollar
Encoding: 36 36 6
Width: 516
Flags: W
LayerCount: 2
Fore
SplineSet
318 40 m 1,0,-1
 318 0 l 1,1,-1
 195 0 l 1,2,-1
 195 40 l 1,3,-1
 24 40 l 1,4,-1
 24 199 l 1,5,-1
 281 199 l 2,6,7
 283 199 283 199 283 201 c 2,8,-1
 283 237 l 2,9,10
 283 239 283 239 281 239 c 2,11,-1
 128 239 l 2,12,13
 24 239 24 239 24 325 c 2,14,-1
 24 519 l 2,15,16
 24 600 24 600 128 600 c 2,17,-1
 195 600 l 1,18,-1
 195 639 l 1,19,-1
 318 639 l 1,20,-1
 318 600 l 1,21,-1
 491 600 l 1,22,-1
 491 440 l 1,23,-1
 234 440 l 2,24,25
 232 440 232 440 232 438 c 2,26,-1
 232 401 l 2,27,28
 232 399 232 399 234 399 c 2,29,-1
 387 399 l 2,30,31
 491 399 491 399 491 315 c 2,32,-1
 491 120 l 2,33,34
 491 40 491 40 387 40 c 2,35,-1
 318 40 l 1,0,-1
EndSplineSet
Validated: 1
EndChar

StartChar: ampersand
Encoding: 38 38 8
Width: 537
Flags: W
LayerCount: 2
Fore
SplineSet
127 0 m 2,0,1
 23 0 23 0 23 79 c 2,2,-1
 23 269 l 2,3,4
 23 310 23 310 75 320 c 1,5,6
 23 326 23 326 23 370 c 2,7,-1
 23 558 l 2,8,9
 23 639 23 639 127 639 c 2,10,-1
 359 639 l 2,11,12
 463 639 463 639 463 558 c 2,13,-1
 463 460 l 1,14,-1
 282 460 l 1,15,-1
 282 477 l 2,16,17
 282 479 282 479 280 479 c 2,18,-1
 233 479 l 2,19,20
 231 479 231 479 231 477 c 2,21,-1
 231 395 l 2,22,23
 231 393 231 393 233 393 c 2,24,-1
 528 393 l 1,25,-1
 528 245 l 1,26,-1
 463 245 l 1,27,-1
 463 159 l 1,28,-1
 528 159 l 1,29,-1
 528 0 l 1,30,-1
 127 0 l 2,0,1
282 245 m 1,31,-1
 233 245 l 2,32,33
 231 245 231 245 231 243 c 2,34,-1
 231 161 l 2,35,36
 231 159 231 159 233 159 c 2,37,-1
 282 159 l 1,38,-1
 282 245 l 1,31,-1
EndSplineSet
Validated: 1
EndChar

StartChar: quotesingle
Encoding: 39 39 9
Width: 247
Flags: W
LayerCount: 2
Fore
SplineSet
46 525 m 1,0,-1
 20 765 l 1,1,-1
 228 765 l 1,2,-1
 203 525 l 1,3,-1
 46 525 l 1,0,-1
EndSplineSet
Validated: 1
EndChar

StartChar: parenleft
Encoding: 40 40 10
Width: 437
Flags: W
LayerCount: 2
Fore
SplineSet
233 -199 m 2,0,1
 129 -199 129 -199 129 -120 c 2,2,-1
 129 756 l 2,3,4
 129 837 129 837 233 837 c 2,5,-1
 407 837 l 1,6,-1
 407 677 l 1,7,-1
 339 677 l 2,8,9
 337 677 337 677 337 675 c 2,10,-1
 337 -38 l 2,11,12
 337 -40 337 -40 339 -40 c 2,13,-1
 407 -40 l 1,14,-1
 407 -199 l 1,15,-1
 233 -199 l 2,0,1
EndSplineSet
Validated: 1
EndChar

StartChar: parenright
Encoding: 41 41 11
Width: 440
Flags: W
LayerCount: 2
Fore
SplineSet
28 -199 m 1,0,-1
 28 -40 l 1,1,-1
 96 -40 l 2,2,3
 98 -40 98 -40 98 -38 c 2,4,-1
 98 675 l 2,5,6
 98 677 98 677 96 677 c 2,7,-1
 28 677 l 1,8,-1
 28 837 l 1,9,-1
 202 837 l 2,10,11
 306 837 306 837 306 756 c 2,12,-1
 306 -120 l 2,13,14
 306 -199 306 -199 202 -199 c 2,15,-1
 28 -199 l 1,0,-1
EndSplineSet
Validated: 1
EndChar

StartChar: asterisk
Encoding: 42 42 12
Width: 451
Flags: W
LayerCount: 2
Fore
SplineSet
360 300 m 0,0,1
 342 300 342 300 310 353 c 0,2,3
 294 379 294 379 284 392.5 c 128,-1,4
 274 406 274 406 264 406 c 0,5,6
 255 406 255 406 250 401 c 128,-1,7
 245 396 245 396 245 391 c 0,8,9
 245 375 245 375 255 363 c 128,-1,10
 265 351 265 351 283 323 c 0,11,12
 301 296 301 296 301 276 c 0,13,14
 301 245 301 245 225 245 c 256,15,16
 149 245 149 245 149 276 c 0,17,18
 149 296 149 296 167 323 c 0,19,20
 185 351 185 351 195 363 c 128,-1,21
 205 375 205 375 205 391 c 0,22,23
 205 396 205 396 200 401 c 128,-1,24
 195 406 195 406 186 406 c 0,25,26
 176 406 176 406 166 392.5 c 128,-1,27
 156 379 156 379 140 353 c 0,28,29
 108 300 108 300 90 300 c 0,30,31
 77 300 77 300 65.5 311 c 128,-1,32
 54 322 54 322 45 337 c 128,-1,33
 36 352 36 352 31 368.5 c 128,-1,34
 26 385 26 385 26 396 c 0,35,36
 26 425 26 425 72 425 c 0,37,38
 92 425 92 425 103.5 423 c 128,-1,39
 115 421 115 421 132 421 c 0,40,41
 171 421 171 421 171 442 c 256,42,43
 171 463 171 463 132 463 c 0,44,45
 115 463 115 463 103.5 461 c 128,-1,46
 92 459 92 459 72 459 c 0,47,48
 26 459 26 459 26 488 c 0,49,50
 26 499 26 499 31 515.5 c 128,-1,51
 36 532 36 532 45 547 c 128,-1,52
 54 562 54 562 65.5 573 c 128,-1,53
 77 584 77 584 90 584 c 0,54,55
 108 584 108 584 140 531 c 0,56,57
 156 505 156 505 166 491.5 c 128,-1,58
 176 478 176 478 186 478 c 0,59,60
 195 478 195 478 200 483 c 128,-1,61
 205 488 205 488 205 493 c 0,62,63
 205 509 205 509 195 521 c 128,-1,64
 185 533 185 533 167 561 c 0,65,66
 149 588 149 588 149 608 c 0,67,68
 149 639 149 639 225 639 c 256,69,70
 301 639 301 639 301 608 c 0,71,72
 301 588 301 588 283 561 c 0,73,74
 265 533 265 533 255 521 c 128,-1,75
 245 509 245 509 245 493 c 0,76,77
 245 488 245 488 250 483 c 128,-1,78
 255 478 255 478 264 478 c 0,79,80
 274 478 274 478 284 491.5 c 128,-1,81
 294 505 294 505 310 531 c 0,82,83
 342 584 342 584 360 584 c 0,84,85
 373 584 373 584 384.5 573 c 128,-1,86
 396 562 396 562 405 547 c 128,-1,87
 414 532 414 532 419 515.5 c 128,-1,88
 424 499 424 499 424 488 c 0,89,90
 424 459 424 459 378 459 c 0,91,92
 358 459 358 459 346.5 461 c 128,-1,93
 335 463 335 463 318 463 c 0,94,95
 279 463 279 463 279 442 c 256,96,97
 279 421 279 421 318 421 c 0,98,99
 335 421 335 421 346.5 423 c 128,-1,100
 358 425 358 425 378 425 c 0,101,102
 424 425 424 425 424 396 c 0,103,104
 424 385 424 385 419 368.5 c 128,-1,105
 414 352 414 352 405 337 c 128,-1,106
 396 322 396 322 384.5 311 c 128,-1,107
 373 300 373 300 360 300 c 0,0,1
EndSplineSet
Validated: 1
EndChar

StartChar: plus
Encoding: 43 43 13
Width: 484
Flags: W
LayerCount: 2
Fore
SplineSet
185 111 m 1,0,-1
 185 259 l 1,1,-1
 38 259 l 1,2,-1
 38 379 l 1,3,-1
 185 379 l 1,4,-1
 185 526 l 1,5,-1
 305 526 l 1,6,-1
 305 379 l 1,7,-1
 453 379 l 1,8,-1
 453 259 l 1,9,-1
 305 259 l 1,10,-1
 305 111 l 1,11,-1
 185 111 l 1,0,-1
EndSplineSet
Validated: 1
EndChar

StartChar: comma
Encoding: 44 44 14
Width: 260
Flags: W
LayerCount: 2
Fore
SplineSet
26 -120 m 1,0,-1
 26 -40 l 1,1,-1
 128 -40 l 2,2,3
 130 -40 130 -40 130 -38 c 2,4,-1
 130 0 l 1,5,-1
 26 0 l 1,6,-1
 26 159 l 1,7,-1
 234 159 l 1,8,-1
 234 -40 l 2,9,10
 234 -120 234 -120 130 -120 c 2,11,-1
 26 -120 l 1,0,-1
EndSplineSet
Validated: 1
EndChar

StartChar: hyphen
Encoding: 45 45 15
Width: 283
Flags: W
LayerCount: 2
Fore
SplineSet
12 239 m 1,0,-1
 12 399 l 1,1,-1
 271 399 l 1,2,-1
 271 239 l 1,3,-1
 12 239 l 1,0,-1
EndSplineSet
Validated: 1
EndChar

StartChar: period
Encoding: 46 46 16
Width: 260
Flags: W
LayerCount: 2
Fore
SplineSet
26 0 m 1,0,-1
 26 159 l 1,1,-1
 234 159 l 1,2,-1
 234 0 l 1,3,-1
 26 0 l 1,0,-1
EndSplineSet
Validated: 1
EndChar

StartChar: slash
Encoding: 47 47 17
Width: 423
Flags: W
LayerCount: 2
Fore
SplineSet
12 -100 m 1,0,-1
 271 739 l 1,1,-1
 413 739 l 1,2,-1
 154 -100 l 1,3,-1
 12 -100 l 1,0,-1
EndSplineSet
Validated: 1
EndChar

StartChar: zero
Encoding: 48 48 18
Width: 515
Flags: W
LayerCount: 2
Fore
SplineSet
283 477 m 2,0,1
 283 479 283 479 281 479 c 2,2,-1
 234 479 l 2,3,4
 232 479 232 479 232 477 c 2,5,-1
 232 161 l 2,6,7
 232 159 232 159 234 159 c 2,8,-1
 281 159 l 2,9,10
 283 159 283 159 283 161 c 2,11,-1
 283 477 l 2,0,1
128 0 m 2,12,13
 24 0 24 0 24 79 c 2,14,-1
 24 558 l 2,15,16
 24 639 24 639 128 639 c 2,17,-1
 387 639 l 2,18,19
 491 639 491 639 491 558 c 2,20,-1
 491 79 l 2,21,22
 491 0 491 0 387 0 c 2,23,-1
 128 0 l 2,12,13
EndSplineSet
Refer: 708 -1 N 1 0 0 1 24 0 0
Validated: 1
Substitution2: "'sups' Superscript in Latin lookup 3 subtable" zerosuperior
Substitution2: "'sinf' Wissenschaftliche Indices in Latin lookup 2 subtable" zeroinferior
EndChar

StartChar: one
Encoding: 49 49 19
Width: 260
Flags: W
LayerCount: 2
Fore
SplineSet
26 0 m 1,0,-1
 26 639 l 1,1,-1
 234 639 l 1,2,-1
 234 0 l 1,3,-1
 26 0 l 1,0,-1
EndSplineSet
Refer: 708 -1 N 1 0 0 1 26 0 0
Validated: 1
Substitution2: "'sups' Superscript in Latin lookup 3 subtable" onesuperior
Substitution2: "'sinf' Wissenschaftliche Indices in Latin lookup 2 subtable" oneinferior
EndChar

StartChar: two
Encoding: 50 50 20
Width: 517
Flags: W
LayerCount: 2
Fore
SplineSet
25 0 m 1,0,-1
 25 320 l 2,1,2
 25 399 25 399 129 399 c 2,3,-1
 282 399 l 2,4,5
 284 399 284 399 284 401 c 2,6,-1
 284 477 l 2,7,8
 284 479 284 479 282 479 c 2,9,-1
 235 479 l 2,10,11
 233 479 233 479 233 477 c 2,12,-1
 233 440 l 1,13,-1
 25 440 l 1,14,-1
 25 558 l 2,15,16
 25 639 25 639 129 639 c 2,17,-1
 388 639 l 2,18,19
 492 639 492 639 492 558 c 2,20,-1
 492 320 l 2,21,22
 492 239 492 239 388 239 c 2,23,-1
 235 239 l 2,24,25
 233 239 233 239 233 237 c 2,26,-1
 233 159 l 1,27,-1
 284 159 l 1,28,-1
 284 199 l 1,29,-1
 492 199 l 1,30,-1
 492 0 l 1,31,-1
 25 0 l 1,0,-1
EndSplineSet
Validated: 1
Substitution2: "'sups' Superscript in Latin lookup 3 subtable" twosuperior
Substitution2: "'sinf' Wissenschaftliche Indices in Latin lookup 2 subtable" twoinferior
EndChar

StartChar: three
Encoding: 51 51 21
Width: 515
Flags: W
LayerCount: 2
Fore
SplineSet
126 0 m 2,0,1
 22 0 22 0 22 79 c 2,2,-1
 22 199 l 1,3,-1
 230 199 l 1,4,-1
 230 161 l 2,5,6
 230 159 230 159 232 159 c 2,7,-1
 279 159 l 2,8,9
 281 159 281 159 281 161 c 2,10,-1
 281 254 l 2,11,12
 281 256 281 256 279 256 c 2,13,-1
 25 256 l 1,14,-1
 25 383 l 1,15,-1
 279 383 l 2,16,17
 281 383 281 383 281 385 c 2,18,-1
 281 477 l 2,19,20
 281 479 281 479 279 479 c 2,21,-1
 232 479 l 2,22,23
 230 479 230 479 230 477 c 2,24,-1
 230 440 l 1,25,-1
 24 440 l 1,26,-1
 24 558 l 2,27,28
 24 639 24 639 128 639 c 2,29,-1
 385 639 l 2,30,31
 489 639 489 639 489 558 c 2,32,-1
 489 372 l 2,33,34
 489 326 489 326 437 320 c 1,35,36
 489 313 489 313 489 267 c 2,37,-1
 489 79 l 2,38,39
 489 0 489 0 385 0 c 2,40,-1
 126 0 l 2,0,1
EndSplineSet
Validated: 1
Substitution2: "'sups' Superscript in Latin lookup 3 subtable" threesuperior
Substitution2: "'sinf' Wissenschaftliche Indices in Latin lookup 2 subtable" threeinferior
EndChar

StartChar: four
Encoding: 52 52 22
Width: 545
Flags: W
LayerCount: 2
Fore
SplineSet
278 0 m 1,0,-1
 278 178 l 1,1,-1
 19 178 l 1,2,-1
 19 639 l 1,3,-1
 227 639 l 1,4,-1
 227 338 l 1,5,-1
 278 338 l 1,6,-1
 278 639 l 1,7,-1
 486 639 l 1,8,-1
 486 338 l 1,9,-1
 539 338 l 1,10,-1
 539 178 l 1,11,-1
 486 178 l 1,12,-1
 486 0 l 1,13,-1
 278 0 l 1,0,-1
EndSplineSet
Validated: 1
Substitution2: "'sups' Superscript in Latin lookup 3 subtable" foursuperior
Substitution2: "'sinf' Wissenschaftliche Indices in Latin lookup 2 subtable" fourinferior
EndChar

StartChar: five
Encoding: 53 53 23
Width: 516
Flags: W
LayerCount: 2
Fore
SplineSet
129 0 m 2,0,1
 25 0 25 0 25 81 c 2,2,-1
 25 199 l 1,3,-1
 233 199 l 1,4,-1
 233 162 l 2,5,6
 233 160 233 160 235 160 c 2,7,-1
 282 160 l 2,8,9
 284 160 284 160 284 162 c 2,10,-1
 284 238 l 2,11,12
 284 240 284 240 282 240 c 2,13,-1
 25 240 l 1,14,-1
 25 639 l 1,15,-1
 492 639 l 1,16,-1
 492 440 l 1,17,-1
 284 440 l 1,18,-1
 284 480 l 1,19,-1
 233 480 l 1,20,-1
 233 400 l 1,21,-1
 388 400 l 2,22,23
 492 400 492 400 492 319 c 2,24,-1
 492 81 l 2,25,26
 492 0 492 0 388 0 c 2,27,-1
 129 0 l 2,0,1
EndSplineSet
Validated: 1
Substitution2: "'sups' Superscript in Latin lookup 3 subtable" fivesuperior
Substitution2: "'sinf' Wissenschaftliche Indices in Latin lookup 2 subtable" fiveinferior
EndChar

StartChar: six
Encoding: 54 54 24
Width: 515
Flags: W
LayerCount: 2
Fore
SplineSet
128 0 m 2,0,1
 24 0 24 0 24 79 c 2,2,-1
 24 558 l 2,3,4
 24 639 24 639 128 639 c 2,5,-1
 387 639 l 2,6,7
 491 639 491 639 491 558 c 2,8,-1
 491 440 l 1,9,-1
 283 440 l 1,10,-1
 283 477 l 2,11,12
 283 479 283 479 281 479 c 2,13,-1
 234 479 l 2,14,15
 232 479 232 479 232 477 c 2,16,-1
 232 399 l 1,17,-1
 387 399 l 2,18,19
 491 399 491 399 491 320 c 2,20,-1
 491 79 l 2,21,22
 491 0 491 0 387 0 c 2,23,-1
 128 0 l 2,0,1
283 247 m 2,24,25
 283 249 283 249 281 249 c 2,26,-1
 232 249 l 1,27,-1
 232 161 l 2,28,29
 232 159 232 159 234 159 c 2,30,-1
 281 159 l 2,31,32
 283 159 283 159 283 161 c 2,33,-1
 283 247 l 2,24,25
EndSplineSet
Validated: 1
Substitution2: "'sups' Superscript in Latin lookup 3 subtable" sixsuperior
Substitution2: "'sinf' Wissenschaftliche Indices in Latin lookup 2 subtable" sixinferior
EndChar

StartChar: seven
Encoding: 55 55 25
Width: 494
Flags: W
LayerCount: 2
Fore
SplineSet
19 0 m 1,0,-1
 280 479 l 1,1,-1
 14 479 l 1,2,-1
 14 639 l 1,3,-1
 481 639 l 1,4,-1
 481 491 l 1,5,-1
 234 0 l 1,6,-1
 19 0 l 1,0,-1
EndSplineSet
Validated: 1
Substitution2: "'sups' Superscript in Latin lookup 3 subtable" sevensuperior
Substitution2: "'sinf' Wissenschaftliche Indices in Latin lookup 2 subtable" seveninferior
EndChar

StartChar: eight
Encoding: 56 56 26
Width: 515
Flags: W
LayerCount: 2
Fore
SplineSet
126 0 m 2,0,1
 22 0 22 0 22 79 c 2,2,-1
 22 267 l 2,3,4
 22 313 22 313 74 320 c 1,5,6
 22 326 22 326 22 372 c 2,7,-1
 22 558 l 2,8,9
 22 639 22 639 126 639 c 2,10,-1
 385 639 l 2,11,12
 489 639 489 639 489 558 c 2,13,-1
 489 372 l 2,14,15
 489 326 489 326 437 320 c 1,16,17
 489 313 489 313 489 267 c 2,18,-1
 489 79 l 2,19,20
 489 0 489 0 385 0 c 2,21,-1
 126 0 l 2,0,1
281 254 m 2,22,23
 281 256 281 256 279 256 c 2,24,-1
 232 256 l 2,25,26
 230 256 230 256 230 254 c 2,27,-1
 230 161 l 2,28,29
 230 159 230 159 232 159 c 2,30,-1
 279 159 l 2,31,32
 281 159 281 159 281 161 c 2,33,-1
 281 254 l 2,22,23
281 477 m 2,34,35
 281 479 281 479 279 479 c 2,36,-1
 232 479 l 2,37,38
 230 479 230 479 230 477 c 2,39,-1
 230 385 l 2,40,41
 230 383 230 383 232 383 c 2,42,-1
 279 383 l 2,43,44
 281 383 281 383 281 385 c 2,45,-1
 281 477 l 2,34,35
EndSplineSet
Validated: 1
Substitution2: "'sups' Superscript in Latin lookup 3 subtable" eightsuperior
Substitution2: "'sinf' Wissenschaftliche Indices in Latin lookup 2 subtable" eightinferior
EndChar

StartChar: nine
Encoding: 57 57 27
Width: 515
Flags: W
LayerCount: 2
Fore
SplineSet
128 0 m 2,0,1
 24 0 24 0 24 81 c 2,2,-1
 24 199 l 1,3,-1
 232 199 l 1,4,-1
 232 162 l 2,5,6
 232 160 232 160 234 160 c 2,7,-1
 281 160 l 2,8,9
 283 160 283 160 283 162 c 2,10,-1
 283 240 l 1,11,-1
 128 240 l 2,12,13
 24 240 24 240 24 319 c 2,14,-1
 24 560 l 2,15,16
 24 639 24 639 128 639 c 2,17,-1
 387 639 l 2,18,19
 491 639 491 639 491 560 c 2,20,-1
 491 81 l 2,21,22
 491 0 491 0 387 0 c 2,23,-1
 128 0 l 2,0,1
283 478 m 2,24,25
 283 480 283 480 281 480 c 2,26,-1
 234 480 l 2,27,28
 232 480 232 480 232 478 c 2,29,-1
 232 392 l 2,30,31
 232 390 232 390 234 390 c 2,32,-1
 283 390 l 1,33,-1
 283 478 l 2,24,25
EndSplineSet
Validated: 1
Substitution2: "'sups' Superscript in Latin lookup 3 subtable" ninesuperior
Substitution2: "'sinf' Wissenschaftliche Indices in Latin lookup 2 subtable" nineinferior
EndChar

StartChar: colon
Encoding: 58 58 28
Width: 290
Flags: W
LayerCount: 2
Fore
SplineSet
43 0 m 1,0,-1
 43 159 l 1,1,-1
 251 159 l 1,2,-1
 251 0 l 1,3,-1
 43 0 l 1,0,-1
43 299 m 1,4,-1
 43 459 l 1,5,-1
 251 459 l 1,6,-1
 251 299 l 1,7,-1
 43 299 l 1,4,-1
EndSplineSet
Validated: 1
EndChar

StartChar: semicolon
Encoding: 59 59 29
Width: 290
Flags: W
LayerCount: 2
Fore
SplineSet
43 299 m 1,0,-1
 43 459 l 1,1,-1
 251 459 l 1,2,-1
 251 299 l 1,3,-1
 43 299 l 1,0,-1
43 -120 m 1,4,-1
 43 -40 l 1,5,-1
 145 -40 l 2,6,7
 147 -40 147 -40 147 -38 c 2,8,-1
 147 0 l 1,9,-1
 43 0 l 1,10,-1
 43 159 l 1,11,-1
 251 159 l 1,12,-1
 251 -40 l 2,13,14
 251 -120 251 -120 147 -120 c 2,15,-1
 43 -120 l 1,4,-1
EndSplineSet
Validated: 1
EndChar

StartChar: less
Encoding: 60 60 30
Width: 484
Flags: W
LayerCount: 2
Fore
SplineSet
38 253 m 1,0,-1
 38 373 l 1,1,-1
 453 545 l 1,2,-1
 453 415 l 1,3,-1
 174 314 l 1,4,-1
 453 217 l 1,5,-1
 453 87 l 1,6,-1
 38 253 l 1,0,-1
EndSplineSet
Validated: 1
EndChar

StartChar: equal
Encoding: 61 61 31
Width: 484
Flags: W
LayerCount: 2
Fore
SplineSet
38 129 m 1,0,-1
 38 249 l 1,1,-1
 453 249 l 1,2,-1
 453 129 l 1,3,-1
 38 129 l 1,0,-1
38 389 m 1,4,-1
 38 509 l 1,5,-1
 453 509 l 1,6,-1
 453 389 l 1,7,-1
 38 389 l 1,4,-1
EndSplineSet
Validated: 1
EndChar

StartChar: greater
Encoding: 62 62 32
Width: 484
Flags: W
LayerCount: 2
Fore
SplineSet
38 87 m 1,0,-1
 38 217 l 1,1,-1
 317 314 l 1,2,-1
 38 415 l 1,3,-1
 38 545 l 1,4,-1
 453 373 l 1,5,-1
 453 253 l 1,6,-1
 38 87 l 1,0,-1
EndSplineSet
Validated: 1
EndChar

StartChar: question
Encoding: 63 63 33
Width: 500
Flags: W
LayerCount: 2
Fore
SplineSet
28 0 m 1,0,-1
 28 159 l 1,1,-1
 236 159 l 1,2,-1
 236 0 l 1,3,-1
 28 0 l 1,0,-1
238 239 m 2,4,5
 236 239 236 239 236 237 c 2,6,-1
 236 199 l 1,7,-1
 28 199 l 1,8,-1
 28 320 l 2,9,10
 28 399 28 399 132 399 c 2,11,-1
 277 399 l 2,12,13
 279 399 279 399 279 401 c 2,14,-1
 279 477 l 2,15,16
 279 479 279 479 277 479 c 2,17,-1
 230 479 l 2,18,19
 228 479 228 479 228 477 c 2,20,-1
 228 440 l 1,21,-1
 20 440 l 1,22,-1
 20 558 l 2,23,24
 20 639 20 639 124 639 c 2,25,-1
 383 639 l 2,26,27
 487 639 487 639 487 558 c 2,28,-1
 487 320 l 2,29,30
 487 239 487 239 383 239 c 2,31,-1
 238 239 l 2,4,5
EndSplineSet
Validated: 1
EndChar

StartChar: A
Encoding: 65 65 34
Width: 899
VWidth: 1145
Flags: W
HStem: -17.04 13.26<577.786 601.365> 327.72 30.6<321.8 501.32> 738.44 13.6G<440.054 453.04>
LayerCount: 2
Fore
SplineSet
501.3203125 358.3203125 m 1,0,-1
 415.640625 566.400390625 l 1,1,-1
 321.799804688 358.3203125 l 1,2,-1
 501.3203125 358.3203125 l 1,0,-1
308.200195312 327.719726562 m 1,3,-1
 204.83984375 99.919921875 l 2,4,5
 185.799804688 57.080078125 185.799804688 57.080078125 245.979492188 25.7998046875 c 128,-1,6
 306.16015625 -5.4794921875 306.16015625 -5.4794921875 320.440429688 -17.0400390625 c 1,7,-1
 5.599609375 -17.0400390625 l 1,8,9
 29.400390625 -1.400390625 29.400390625 -1.400390625 73.599609375 30.900390625 c 128,-1,10
 117.799804688 63.2001953125 117.799804688 63.2001953125 136.83984375 87.6796875 c 0,11,12
 160.640625 118.280273438 160.640625 118.280273438 164.719726562 130.1796875 c 128,-1,13
 168.799804688 142.080078125 168.799804688 142.080078125 168.799804688 142.080078125 c 1,14,-1
 446.240234375 752.040039062 l 1,15,-1
 787.599609375 69.3203125 l 1,16,17
 787.599609375 69.3203125 787.599609375 69.3203125 801.200195312 46.5400390625 c 128,-1,18
 814.799804688 23.759765625 814.799804688 23.759765625 842.6796875 10.16015625 c 0,19,20
 866.479492188 -2.080078125 866.479492188 -2.080078125 879.740234375 -8.8798828125 c 128,-1,21
 893 -15.6796875 893 -15.6796875 896.400390625 -17.0400390625 c 2,22,-1
 553 -17.0400390625 l 2,23,24
 561.16015625 -15.6796875 561.16015625 -15.6796875 589.040039062 -3.7802734375 c 128,-1,25
 616.919921875 8.1201171875 616.919921875 8.1201171875 618.959960938 28.5205078125 c 0,26,27
 621 47.5595703125 621 47.5595703125 587 136.640625 c 128,-1,28
 553 225.719726562 553 225.719726562 512.879882812 327.719726562 c 1,29,-1
 308.200195312 327.719726562 l 1,3,-1
EndSplineSet
EndChar

StartChar: B
Encoding: 66 66 35
Width: 722
VWidth: 1145
Flags: W
HStem: -17.04 34.68<303.065 484.412> -17.04 20.06<70.2746 105.474> 390.96 49.64<99.4766 146.1 275.98 426.582> 422.92 17.68<48.4154 85.7325> 714.64 37.4<275.98 454.415>
VStem: 146.1 129.88<43.4292 390.96 440.6 689.703> 525.54 109.48<516.118 646.303> 579.26 111.52<118.009 283.729>
LayerCount: 2
Fore
SplineSet
492.219726562 418.83984375 m 1,0,1
 577.219726562 403.200195312 577.219726562 403.200195312 618.700195312 370.559570312 c 0,2,3
 690.780273438 311.400390625 690.780273438 311.400390625 690.780273438 206 c 0,4,5
 690.780273438 90.400390625 690.780273438 90.400390625 609.1796875 27.16015625 c 0,6,7
 551.379882812 -17.0400390625 551.379882812 -17.0400390625 433.740234375 -17.0400390625 c 2,8,-1
 31.859375 -17.0400390625 l 2,9,10
 23.0205078125 -17.0400390625 23.0205078125 -17.0400390625 84.5595703125 3.0205078125 c 128,-1,11
 146.099609375 23.080078125 146.099609375 23.080078125 146.099609375 110.799804688 c 2,12,-1
 146.099609375 390.959960938 l 1,13,-1
 130.459960938 390.959960938 l 1,14,15
 112.099609375 397.080078125 112.099609375 397.080078125 98.16015625 406.599609375 c 128,-1,16
 84.2197265625 416.120117188 84.2197265625 416.120117188 66.5400390625 422.919921875 c 2,17,-1
 -0.7802734375 440.599609375 l 1,18,-1
 146.099609375 440.599609375 l 1,19,-1
 146.099609375 620.120117188 l 2,20,21
 146.099609375 707.83984375 146.099609375 707.83984375 83.2001953125 729.940429688 c 128,-1,22
 20.2998046875 752.040039062 20.2998046875 752.040039062 29.140625 752.040039062 c 2,23,-1
 539.8203125 752.040039062 l 2,24,25
 563.620117188 752.040039062 563.620117188 752.040039062 583.6796875 732.3203125 c 128,-1,26
 603.740234375 712.599609375 603.740234375 712.599609375 613.940429688 691.520507812 c 0,27,28
 635.020507812 647.3203125 635.020507812 647.3203125 635.020507812 587.479492188 c 0,29,30
 635.020507812 521.520507812 635.020507812 521.520507812 601.020507812 480.719726562 c 0,31,32
 566.340820312 440.599609375 566.340820312 440.599609375 492.219726562 418.83984375 c 1,0,1
275.979492188 440.599609375 m 1,33,34
 344.66015625 440.599609375 344.66015625 440.599609375 376.620117188 444 c 0,35,36
 405.1796875 446.719726562 405.1796875 446.719726562 435.099609375 458.280273438 c 0,37,38
 525.540039062 489.559570312 525.540039062 489.559570312 525.540039062 578.640625 c 0,39,40
 525.540039062 656.16015625 525.540039062 656.16015625 467.740234375 692.879882812 c 0,41,42
 428.979492188 718.040039062 428.979492188 718.040039062 340.580078125 718.040039062 c 1,43,44
 342.620117188 718.040039062 342.620117188 718.040039062 307.259765625 716.6796875 c 2,45,-1
 275.979492188 714.640625 l 1,46,-1
 275.979492188 440.599609375 l 1,33,34
275.979492188 390.959960938 m 1,47,-1
 275.979492188 172 l 2,48,49
 275.979492188 95.83984375 275.979492188 95.83984375 278.700195312 75.4404296875 c 0,50,51
 280.740234375 57.080078125 280.740234375 57.080078125 288.900390625 44.8408203125 c 0,52,53
 305.900390625 17.640625 305.900390625 17.640625 395.66015625 17.640625 c 0,54,55
 579.259765625 17.640625 579.259765625 17.640625 579.259765625 196.479492188 c 0,56,57
 579.259765625 315.479492188 579.259765625 315.479492188 501.059570312 359 c 0,58,59
 431.020507812 395.719726562 431.020507812 395.719726562 320.859375 391.640625 c 2,60,-1
 307.259765625 390.959960938 l 1,61,-1
 275.979492188 390.959960938 l 1,47,-1
EndSplineSet
EndChar

StartChar: C
Encoding: 67 67 36
Width: 550
VWidth: 1097
Flags: W
HStem: 660.36 46.92<242.21 417.641>
VStem: -95.3443 160.48<184.467 431.038>
LayerCount: 2
Fore
SplineSet
-95.3447265625 312.879882812 m 0,0,1
 -95.3447265625 490.359375 -95.3447265625 490.359375 14.8154296875 597.799804688 c 0,2,3
 125.655273438 707.280273438 125.655273438 707.280273438 318.775390625 707.280273438 c 0,4,5
 368.416015625 707.280273438 368.416015625 707.280273438 418.735351562 693.33984375 c 128,-1,6
 469.0546875 679.400390625 469.0546875 679.400390625 524.135742188 671.240234375 c 2,7,-1
 560.174804688 665.799804688 l 1,8,-1
 581.254882812 477.440429688 l 2,9,10
 583.295898438 461.799804688 583.295898438 461.799804688 538.416015625 532.520507812 c 128,-1,11
 493.536132812 603.240234375 493.536132812 603.240234375 464.975585938 622.280273438 c 0,12,13
 405.815429688 660.359375 405.815429688 660.359375 328.975585938 660.359375 c 0,14,15
 271.174804688 660.359375 271.174804688 660.359375 224.254882812 638.599609375 c 0,16,17
 173.935546875 616.83984375 173.935546875 616.83984375 141.295898438 578.080078125 c 0,18,19
 65.1357421875 487.640625 65.1357421875 487.640625 65.1357421875 330.559570312 c 0,20,21
 65.1357421875 99.359375 65.1357421875 99.359375 166.455078125 -19.640625 c 128,-1,22
 267.775390625 -138.640625 267.775390625 -138.640625 499.655273438 -273.280273438 c 1,23,24
 394.254882812 -243.359375 394.254882812 -243.359375 288.174804688 -198.479492188 c 128,-1,25
 182.095703125 -153.599609375 182.095703125 -153.599609375 96.7548828125 -84.580078125 c 128,-1,26
 11.416015625 -15.5595703125 11.416015625 -15.5595703125 -41.9638671875 81.33984375 c 128,-1,27
 -95.3447265625 178.240234375 -95.3447265625 178.240234375 -95.3447265625 312.879882812 c 0,0,1
EndSplineSet
EndChar

StartChar: D
Encoding: 68 68 37
Width: 845
VWidth: 1145
Flags: W
HStem: -17.04 43.52<269.938 480.349> 709.2 42.84<269.938 480.349>
VStem: 155.34 112.88<53.2345 681.385> 668.74 146.2<238.784 496.685>
LayerCount: 2
Fore
SplineSet
22.0595703125 752.040039062 m 1,0,-1
 453.859375 752.040039062 l 2,1,2
 578.299804688 752.040039062 578.299804688 752.040039062 641.540039062 720.080078125 c 0,3,4
 722.459960938 678.599609375 722.459960938 678.599609375 768.700195312 584.080078125 c 0,5,6
 814.940429688 490.240234375 814.940429688 490.240234375 814.940429688 367.83984375 c 0,7,8
 814.940429688 244.759765625 814.940429688 244.759765625 768.700195312 151.599609375 c 0,9,10
 722.459960938 55.7197265625 722.459960938 55.7197265625 641.540039062 14.919921875 c 0,11,12
 578.299804688 -17.0400390625 578.299804688 -17.0400390625 453.859375 -17.0400390625 c 2,13,-1
 22.0595703125 -17.0400390625 l 1,14,15
 91.419921875 8.7998046875 91.419921875 8.7998046875 123.379882812 28.1796875 c 128,-1,16
 155.33984375 47.5595703125 155.33984375 47.5595703125 155.33984375 181.520507812 c 2,17,-1
 155.33984375 554.16015625 l 2,18,19
 155.33984375 686.759765625 155.33984375 686.759765625 123.379882812 706.479492188 c 128,-1,20
 91.419921875 726.200195312 91.419921875 726.200195312 22.0595703125 752.040039062 c 1,0,-1
668.740234375 367.83984375 m 256,21,22
 668.740234375 567.759765625 668.740234375 567.759765625 559.259765625 654.120117188 c 0,23,24
 523.900390625 682 523.900390625 682 476.299804688 696.280273438 c 0,25,26
 427.33984375 709.200195312 427.33984375 709.200195312 362.740234375 709.200195312 c 0,27,28
 323.299804688 709.200195312 323.299804688 709.200195312 268.219726562 703.080078125 c 1,29,-1
 268.219726562 32.599609375 l 1,30,31
 323.299804688 26.4794921875 323.299804688 26.4794921875 362.740234375 26.4794921875 c 0,32,33
 431.419921875 26.4794921875 431.419921875 26.4794921875 476.299804688 39.400390625 c 0,34,35
 521.1796875 50.9599609375 521.1796875 50.9599609375 559.259765625 80.8798828125 c 0,36,37
 668.740234375 167.919921875 668.740234375 167.919921875 668.740234375 367.83984375 c 256,21,22
EndSplineSet
EndChar

StartChar: E
Encoding: 69 69 38
Width: 702
VWidth: 1145
Flags: W
HStem: -17.04 102.68<214.84 482.76> 390.28 61.88<214.84 363.76> 683.36 68.68<214.84 503.84>
VStem: 91.08 123.76<85.64 390.28 452.16 675.88>
LayerCount: 2
Fore
SplineSet
564.359375 752.040039062 m 1,0,-1
 622.159179688 520.16015625 l 1,1,2
 622.159179688 520.16015625 622.159179688 520.16015625 613.659179688 538.859375 c 128,-1,3
 605.159179688 557.559570312 605.159179688 557.559570312 577.280273438 607.200195312 c 0,4,5
 549.400390625 656.16015625 549.400390625 656.16015625 526.620117188 669.759765625 c 128,-1,6
 503.83984375 683.359375 503.83984375 683.359375 503.83984375 683.359375 c 1,7,-1
 214.83984375 683.359375 l 1,8,-1
 214.83984375 452.16015625 l 1,9,-1
 359 452.16015625 l 1,10,11
 359 452.16015625 359 452.16015625 363.759765625 451.8203125 c 128,-1,12
 368.520507812 451.479492188 368.520507812 451.479492188 386.200195312 458.959960938 c 0,13,14
 402.520507812 465.080078125 402.520507812 465.080078125 430.740234375 516.080078125 c 128,-1,15
 458.959960938 567.080078125 458.959960938 567.080078125 458.959960938 567.080078125 c 1,16,17
 458.959960938 532.400390625 458.959960938 532.400390625 453.859375 496.359375 c 128,-1,18
 448.759765625 460.3203125 448.759765625 460.3203125 448.759765625 426.3203125 c 0,19,20
 448.759765625 387.559570312 448.759765625 387.559570312 453.859375 350.83984375 c 128,-1,21
 458.959960938 314.120117188 458.959960938 314.120117188 458.959960938 275.359375 c 1,22,23
 458.959960938 275.359375 458.959960938 275.359375 430.740234375 326.020507812 c 128,-1,24
 402.520507812 376.6796875 402.520507812 376.6796875 386.200195312 383.479492188 c 0,25,26
 368.520507812 390.280273438 368.520507812 390.280273438 363.759765625 390.280273438 c 128,-1,27
 359 390.280273438 359 390.280273438 359 390.280273438 c 1,28,-1
 214.83984375 390.280273438 l 1,29,-1
 214.83984375 378.040039062 l 1,30,-1
 214.83984375 85.640625 l 1,31,-1
 482.759765625 85.640625 l 1,32,33
 482.759765625 85.640625 482.759765625 85.640625 505.879882812 97.8798828125 c 128,-1,34
 529 110.120117188 529 110.120117188 559.599609375 140.040039062 c 0,35,36
 589.520507812 169.280273438 589.520507812 169.280273438 638.8203125 249.859375 c 128,-1,37
 688.120117188 330.440429688 688.120117188 330.440429688 688.120117188 330.440429688 c 257,38,39
 688.120117188 330.440429688 688.120117188 330.440429688 668.400390625 259.040039062 c 128,-1,40
 648.6796875 187.640625 648.6796875 187.640625 633.040039062 146.16015625 c 0,41,42
 616.719726562 104.6796875 616.719726562 104.6796875 600.059570312 43.8203125 c 128,-1,43
 583.400390625 -17.0400390625 583.400390625 -17.0400390625 569.799804688 -17.0400390625 c 2,44,-1
 -21.1201171875 -17.0400390625 l 1,45,-1
 36 12.2001953125 l 2,46,47
 67.9599609375 28.5205078125 67.9599609375 28.5205078125 79.5205078125 44.16015625 c 128,-1,48
 91.080078125 59.7998046875 91.080078125 59.7998046875 91.080078125 59.7998046875 c 1,49,-1
 91.080078125 675.879882812 l 1,50,51
 91.080078125 675.879882812 91.080078125 675.879882812 85.2998046875 686.080078125 c 128,-1,52
 79.5205078125 696.280273438 79.5205078125 696.280273438 70 712.599609375 c 0,53,54
 59.7998046875 728.240234375 59.7998046875 728.240234375 25.4599609375 740.140625 c 128,-1,55
 -8.8798828125 752.040039062 -8.8798828125 752.040039062 -8.8798828125 752.040039062 c 1,56,-1
 564.359375 752.040039062 l 1,0,-1
EndSplineSet
EndChar

StartChar: F
Encoding: 70 70 39
Width: 621
VWidth: 1145
Flags: W
HStem: -17.04 14.28G<-36.98 312.54> 390.28 61.88<198.98 347.9> 683.36 68.68<198.98 488.66>
VStem: 75.22 123.76<59.8 390.28 452.16 675.88>
LayerCount: 2
Fore
SplineSet
548.5 752.040039062 m 1,0,-1
 606.979492188 520.16015625 l 1,1,2
 606.979492188 520.16015625 606.979492188 520.16015625 598.140625 538.859375 c 128,-1,3
 589.299804688 557.559570312 589.299804688 557.559570312 562.099609375 607.200195312 c 0,4,5
 534.219726562 656.16015625 534.219726562 656.16015625 511.440429688 669.759765625 c 128,-1,6
 488.66015625 683.359375 488.66015625 683.359375 488.66015625 683.359375 c 1,7,-1
 198.979492188 683.359375 l 1,8,-1
 198.979492188 452.16015625 l 1,9,-1
 343.140625 452.16015625 l 1,10,11
 343.140625 452.16015625 343.140625 452.16015625 347.900390625 451.8203125 c 128,-1,12
 352.66015625 451.479492188 352.66015625 451.479492188 370.340820312 458.959960938 c 0,13,14
 387.340820312 465.080078125 387.340820312 465.080078125 415.559570312 516.080078125 c 128,-1,15
 443.780273438 567.080078125 443.780273438 567.080078125 443.780273438 567.080078125 c 1,16,17
 443.780273438 532.400390625 443.780273438 532.400390625 438.6796875 496.359375 c 128,-1,18
 433.580078125 460.3203125 433.580078125 460.3203125 433.580078125 426.3203125 c 0,19,20
 433.580078125 387.559570312 433.580078125 387.559570312 438.6796875 350.83984375 c 128,-1,21
 443.780273438 314.120117188 443.780273438 314.120117188 443.780273438 275.359375 c 1,22,23
 443.780273438 275.359375 443.780273438 275.359375 415.559570312 326.020507812 c 128,-1,24
 387.340820312 376.6796875 387.340820312 376.6796875 370.340820312 383.479492188 c 0,25,26
 352.66015625 390.280273438 352.66015625 390.280273438 347.900390625 390.280273438 c 128,-1,27
 343.140625 390.280273438 343.140625 390.280273438 343.140625 390.280273438 c 1,28,-1
 198.979492188 390.280273438 l 1,29,-1
 198.979492188 378.040039062 l 1,30,-1
 198.979492188 164.520507812 l 1,31,-1
 198.979492188 85.640625 l 1,32,-1
 198.979492188 59.7998046875 l 1,33,34
 198.979492188 59.7998046875 198.979492188 59.7998046875 210.540039062 44.16015625 c 128,-1,35
 222.099609375 28.5205078125 222.099609375 28.5205078125 254.740234375 12.2001953125 c 2,36,-1
 312.540039062 -17.0400390625 l 1,37,-1
 198.979492188 -17.0400390625 l 1,38,-1
 75.2197265625 -17.0400390625 l 1,39,-1
 -36.9794921875 -17.0400390625 l 1,40,-1
 20.140625 12.2001953125 l 2,41,42
 52.099609375 27.8408203125 52.099609375 27.8408203125 63.66015625 43.140625 c 128,-1,43
 75.2197265625 58.4404296875 75.2197265625 58.4404296875 75.2197265625 59.7998046875 c 1,44,45
 75.2197265625 85.640625 l 1,46,-1
 75.2197265625 164.520507812 l 1,47,-1
 75.2197265625 675.879882812 l 1,48,49
 75.2197265625 675.879882812 75.2197265625 675.879882812 69.7802734375 686.080078125 c 128,-1,50
 64.3408203125 696.280273438 64.3408203125 696.280273438 54.140625 712.599609375 c 0,51,52
 43.9404296875 728.240234375 43.9404296875 728.240234375 9.599609375 740.140625 c 128,-1,53
 -24.740234375 752.040039062 -24.740234375 752.040039062 -24.740234375 752.040039062 c 1,54,-1
 548.5 752.040039062 l 1,0,-1
EndSplineSet
EndChar

StartChar: G
Encoding: 71 71 40
Width: 826
VWidth: 1082
Flags: W
HStem: -80.24 54.4<340.969 518.542> 641.92 46.92<356.187 531.834>
VStem: 18.8476 159.8<185.555 412.292> 583.588 107.1<23.0878 250.474>
LayerCount: 2
Fore
SplineSet
582.567382812 -46.240234375 m 1,0,1
 489.407226562 -80.240234375 489.407226562 -80.240234375 392.84765625 -80.240234375 c 0,2,3
 238.487304688 -80.240234375 238.487304688 -80.240234375 140.567382812 0.6796875 c 0,4,5
 81.4072265625 48.9599609375 81.4072265625 48.9599609375 52.84765625 118.3203125 c 0,6,7
 18.84765625 201.280273438 18.84765625 201.280273438 18.84765625 294.440429688 c 0,8,9
 18.84765625 471.919921875 18.84765625 471.919921875 129.0078125 579.359375 c 0,10,11
 239.84765625 688.83984375 239.84765625 688.83984375 432.287109375 688.83984375 c 0,12,13
 482.607421875 688.83984375 482.607421875 688.83984375 532.927734375 674.900390625 c 128,-1,14
 583.247070312 660.959960938 583.247070312 660.959960938 638.328125 652.799804688 c 2,15,-1
 674.3671875 647.359375 l 1,16,-1
 695.447265625 459 l 2,17,18
 697.487304688 443.359375 697.487304688 443.359375 652.607421875 514.080078125 c 128,-1,19
 607.727539062 584.799804688 607.727539062 584.799804688 579.166992188 603.83984375 c 0,20,21
 520.0078125 641.919921875 520.0078125 641.919921875 443.166992188 641.919921875 c 0,22,23
 385.3671875 641.919921875 385.3671875 641.919921875 338.447265625 620.16015625 c 0,24,25
 289.487304688 599.080078125 289.487304688 599.080078125 255.487304688 559.640625 c 0,26,27
 178.647460938 467.83984375 178.647460938 467.83984375 178.647460938 312.120117188 c 0,28,29
 178.647460938 215.559570312 178.647460938 215.559570312 209.247070312 133.959960938 c 0,30,31
 236.447265625 59.83984375 236.447265625 59.83984375 294.247070312 16.3203125 c 0,32,33
 347.287109375 -25.83984375 347.287109375 -25.83984375 419.3671875 -25.83984375 c 0,34,35
 449.287109375 -25.83984375 449.287109375 -25.83984375 487.708007812 -19.0400390625 c 128,-1,36
 526.127929688 -12.240234375 526.127929688 -12.240234375 547.208007812 1.359375 c 0,37,38
 573.046875 17.6796875 573.046875 17.6796875 577.807617188 45.5595703125 c 0,39,40
 583.247070312 88.400390625 583.247070312 88.400390625 583.587890625 146.200195312 c 128,-1,41
 583.927734375 204 583.927734375 204 573.727539062 240.719726562 c 0,42,43
 567.607421875 261.120117188 567.607421875 261.120117188 531.227539062 274.379882812 c 128,-1,44
 494.84765625 287.640625 494.84765625 287.640625 476.487304688 296.479492188 c 1,45,-1
 789.287109375 299.879882812 l 2,46,47
 809.0078125 299.879882812 809.0078125 299.879882812 762.427734375 283.900390625 c 128,-1,48
 715.84765625 267.919921875 715.84765625 267.919921875 703.607421875 255 c 0,49,50
 691.3671875 241.400390625 691.3671875 241.400390625 690.6875 223.040039062 c 0,51,52
 682.528320312 138.040039062 682.528320312 138.040039062 691.028320312 41.140625 c 128,-1,53
 699.528320312 -55.759765625 699.528320312 -55.759765625 677.087890625 -139.400390625 c 0,54,55
 653.287109375 -228.479492188 653.287109375 -228.479492188 581.208007812 -269.959960938 c 128,-1,56
 509.127929688 -311.440429688 509.127929688 -311.440429688 441.127929688 -348.83984375 c 1,57,58
 486.0078125 -295.120117188 486.0078125 -295.120117188 514.907226562 -269.280273438 c 128,-1,59
 543.807617188 -243.440429688 543.807617188 -243.440429688 573.727539062 -182.240234375 c 0,60,61
 579.166992188 -170 579.166992188 -170 581.208007812 -142.120117188 c 0,62,63
 582.567382812 -131.240234375 582.567382812 -131.240234375 582.567382812 -46.240234375 c 1,0,1
EndSplineSet
EndChar

StartChar: H
Encoding: 72 72 41
Width: 819
VWidth: 1145
Flags: W
HStem: -17.04 14.28G<72.18 382.94 501.26 812.7> 398.44 49.64<115.121 170.1 284.34 599.86> 431.08 17<52.052 96.7361> 738.44 13.6G<77.62 376.82 506.7 806.58>
VStem: 170.1 114.24<80.88 398.44 448.08 661.94> 599.86 114.24<80.88 398.44 448.08 661.94>
LayerCount: 2
Fore
SplineSet
656.979492188 -17.0400390625 m 1,0,-1
 501.259765625 -16.359375 l 1,1,2
 501.259765625 -16.359375 501.259765625 -16.359375 524.040039062 -7.1796875 c 128,-1,3
 546.8203125 2 546.8203125 2 562.459960938 14.240234375 c 0,4,5
 577.419921875 26.4794921875 577.419921875 26.4794921875 588.640625 53.6796875 c 0,6,-1
 599.859375 80.8798828125 l 1,7,-1
 599.859375 398.440429688 l 1,8,-1
 284.33984375 398.440429688 l 1,9,-1
 284.33984375 80.8798828125 l 1,10,11
 284.33984375 80.8798828125 284.33984375 80.8798828125 295.219726562 53.6796875 c 128,-1,12
 306.099609375 26.4794921875 306.099609375 26.4794921875 321.740234375 14.240234375 c 0,13,14
 336.700195312 2 336.700195312 2 359.8203125 -7.1796875 c 0,15,-1
 382.940429688 -16.359375 l 1,16,-1
 227.219726562 -17.0400390625 l 1,17,-1
 72.1796875 -16.359375 l 1,18,19
 72.1796875 -16.359375 72.1796875 -16.359375 94.9599609375 -7.1796875 c 128,-1,20
 117.740234375 2 117.740234375 2 133.379882812 14.240234375 c 0,21,22
 148.33984375 26.4794921875 148.33984375 26.4794921875 159.219726562 53.6796875 c 0,23,-1
 170.099609375 80.8798828125 l 1,24,-1
 170.099609375 398.440429688 l 1,25,-1
 151.059570312 398.440429688 l 1,26,27
 129.979492188 404.559570312 129.979492188 404.559570312 112.979492188 414.419921875 c 128,-1,28
 95.9794921875 424.280273438 95.9794921875 424.280273438 74.900390625 431.080078125 c 2,29,-1
 -6.7001953125 448.080078125 l 1,30,-1
 170.099609375 448.080078125 l 1,31,-1
 170.099609375 644.599609375 l 1,32,33
 170.099609375 644.599609375 170.099609375 644.599609375 169.080078125 661.940429688 c 128,-1,34
 168.059570312 679.280273438 168.059570312 679.280273438 163.299804688 699 c 0,35,36
 157.1796875 718.719726562 157.1796875 718.719726562 117.400390625 735.379882812 c 0,37,-1
 77.6201171875 752.040039062 l 1,38,-1
 227.219726562 752.040039062 l 1,39,-1
 376.8203125 752.040039062 l 1,40,41
 376.8203125 752.040039062 376.8203125 752.040039062 337.040039062 735.379882812 c 128,-1,42
 297.259765625 718.719726562 297.259765625 718.719726562 291.8203125 699 c 0,43,44
 285.700195312 679.280273438 285.700195312 679.280273438 285.020507812 661.940429688 c 0,45,-1
 284.33984375 644.599609375 l 1,46,-1
 284.33984375 448.080078125 l 1,47,-1
 599.859375 448.080078125 l 1,48,-1
 599.859375 644.599609375 l 1,49,50
 599.859375 644.599609375 599.859375 644.599609375 598.83984375 661.940429688 c 128,-1,51
 597.8203125 679.280273438 597.8203125 679.280273438 592.379882812 699 c 0,52,53
 586.259765625 718.719726562 586.259765625 718.719726562 546.479492188 735.379882812 c 0,54,-1
 506.700195312 752.040039062 l 1,55,-1
 656.979492188 752.040039062 l 1,56,-1
 806.580078125 752.040039062 l 1,57,58
 806.580078125 752.040039062 806.580078125 752.040039062 766.459960938 735.379882812 c 128,-1,59
 726.33984375 718.719726562 726.33984375 718.719726562 721.580078125 699 c 0,60,61
 715.459960938 679.280273438 715.459960938 679.280273438 714.780273438 661.940429688 c 0,62,-1
 714.099609375 644.599609375 l 1,63,-1
 714.099609375 80.8798828125 l 1,64,65
 714.099609375 80.8798828125 714.099609375 80.8798828125 724.640625 53.6796875 c 128,-1,66
 735.1796875 26.4794921875 735.1796875 26.4794921875 750.8203125 14.240234375 c 0,67,68
 765.780273438 2 765.780273438 2 789.240234375 -7.1796875 c 0,69,-1
 812.700195312 -16.359375 l 1,70,-1
 656.979492188 -17.0400390625 l 1,0,-1
EndSplineSet
EndChar

StartChar: I
Encoding: 73 73 42
Width: 179
VWidth: 1145
Flags: W
HStem: -17.04 14.28G<-193.22 254.9> 742.18 9.86<-178.881 -115.278 158.366 222.529>
LayerCount: 2
Fore
SplineSet
-216.33984375 752.040039062 m 1,0,-1
 260.33984375 752.040039062 l 1,1,2
 260.33984375 752.040039062 260.33984375 752.040039062 187.240234375 742.1796875 c 128,-1,3
 114.140625 732.3203125 114.140625 732.3203125 105.979492188 711.240234375 c 0,4,5
 97.140625 690.16015625 97.140625 690.16015625 95.7802734375 683.359375 c 128,-1,6
 94.419921875 676.559570312 94.419921875 676.559570312 94.419921875 676.559570312 c 257,7,8
 94.419921875 676.559570312 94.419921875 676.559570312 76.740234375 542.259765625 c 128,-1,9
 59.0595703125 407.959960938 59.0595703125 407.959960938 74.7001953125 95.16015625 c 1,10,11
 92.3798828125 -0.0400390625 92.3798828125 -0.0400390625 254.900390625 -17.0400390625 c 1,12,-1
 -193.219726562 -17.0400390625 l 1,13,14
 -38.859375 2.6796875 -38.859375 2.6796875 -26.6201171875 95.83984375 c 1,15,16
 -11.6591796875 410.6796875 -11.6591796875 410.6796875 -31.3798828125 543.620117188 c 128,-1,17
 -51.099609375 676.559570312 -51.099609375 676.559570312 -51.099609375 676.559570312 c 257,18,19
 -51.099609375 676.559570312 -51.099609375 676.559570312 -52.7998046875 683.359375 c 128,-1,20
 -54.5 690.16015625 -54.5 690.16015625 -62.66015625 711.240234375 c 0,21,22
 -71.5 732.3203125 -71.5 732.3203125 -143.919921875 742.1796875 c 128,-1,23
 -216.33984375 752.040039062 -216.33984375 752.040039062 -216.33984375 752.040039062 c 1,0,-1
EndSplineSet
EndChar

StartChar: J
Encoding: 74 74 43
Width: 168
VWidth: 1068
Flags: W
HStem: 660.68 13.6G<-95.1853 204.424>
VStem: -22.0169 116.28<-224.025 630.236>
LayerCount: 2
Fore
SplineSet
94.2626953125 537.599609375 m 2,0,-1
 94.2626953125 31.6796875 l 1,1,-1
 94.2626953125 -95.4794921875 l 2,2,3
 94.2626953125 -175.040039062 94.2626953125 -175.040039062 82.0234375 -215.83984375 c 0,4,5
 55.5029296875 -304.240234375 55.5029296875 -304.240234375 -23.037109375 -345.719726562 c 128,-1,6
 -101.577148438 -387.200195312 -101.577148438 -387.200195312 -175.016601562 -425.280273438 c 1,7,8
 -126.056640625 -370.200195312 -126.056640625 -370.200195312 -94.7763671875 -345.040039062 c 128,-1,9
 -63.4970703125 -319.879882812 -63.4970703125 -319.879882812 -30.8564453125 -258.6796875 c 0,10,11
 -25.4169921875 -248.479492188 -25.4169921875 -248.479492188 -24.7373046875 -238.280273438 c 128,-1,12
 -24.056640625 -228.080078125 -24.056640625 -228.080078125 -22.697265625 -219.240234375 c 0,13,14
 -21.3369140625 -194.759765625 -21.3369140625 -194.759765625 -21.3369140625 -116.559570312 c 2,15,-1
 -22.0166015625 31.6796875 l 1,16,-1
 -22.0166015625 537.599609375 l 2,17,18
 -22.0166015625 565.479492188 -22.0166015625 565.479492188 -21.3369140625 585.540039062 c 128,-1,19
 -20.65625 605.599609375 -20.65625 605.599609375 -25.4169921875 615.799804688 c 2,20,-1
 -39.697265625 640.280273438 l 1,21,-1
 -132.176757812 674.280273438 l 1,22,-1
 204.422851562 674.280273438 l 2,23,24
 214.623046875 674.280273438 214.623046875 674.280273438 159.543945312 654.559570312 c 128,-1,25
 104.462890625 634.83984375 104.462890625 634.83984375 103.103515625 630.759765625 c 0,26,27
 94.943359375 614.440429688 94.943359375 614.440429688 94.2626953125 537.599609375 c 2,0,-1
EndSplineSet
EndChar

StartChar: K
Encoding: 75 75 44
Width: 860
VWidth: 1145
Flags: W
HStem: -17.04 14.28G<517.223 832.743> 738.44 13.6G<-7.73716 338.033>
VStem: 109.903 136.68<30.3694 379.4 419.52 679.008>
LayerCount: 2
Fore
SplineSet
246.583007812 379.400390625 m 1,0,-1
 246.583007812 163.16015625 l 2,1,2
 246.583007812 87.6796875 246.583007812 87.6796875 249.302734375 67.2802734375 c 0,3,4
 251.342773438 38.7197265625 251.342773438 38.7197265625 259.502929688 31.919921875 c 2,5,-1
 275.142578125 17.640625 l 1,6,-1
 365.583007812 -15 l 1,7,-1
 -7.7373046875 -15.6796875 l 2,8,9
 -13.857421875 -15.6796875 -13.857421875 -15.6796875 41.9033203125 4.7197265625 c 128,-1,10
 97.6630859375 25.1201171875 97.6630859375 25.1201171875 101.7421875 35.3203125 c 0,11,12
 109.903320312 53 109.903320312 53 109.903320312 163.83984375 c 2,13,-1
 109.903320312 556.200195312 l 2,14,15
 109.903320312 597 109.903320312 597 110.583007812 624.540039062 c 128,-1,16
 111.262695312 652.080078125 111.262695312 652.080078125 108.541992188 664.3203125 c 2,17,-1
 99.703125 701.040039062 l 1,18,-1
 -7.7373046875 751.359375 l 1,19,-1
 367.623046875 752.040039062 l 1,20,-1
 258.142578125 701.719726562 l 2,21,22
 247.942382812 696.280273438 247.942382812 696.280273438 247.262695312 672.140625 c 128,-1,23
 246.583007812 648 246.583007812 648 246.583007812 614.6796875 c 2,24,-1
 246.583007812 419.520507812 l 1,25,-1
 549.862304688 668.400390625 l 1,26,-1
 581.142578125 708.520507812 l 1,27,-1
 485.262695312 749.3203125 l 1,28,-1
 829.342773438 750.6796875 l 1,29,-1
 699.462890625 703.759765625 l 2,30,31
 681.102539062 696.959960938 681.102539062 696.959960938 654.583007812 677.240234375 c 128,-1,32
 628.0625 657.520507812 628.0625 657.520507812 592.0234375 630.3203125 c 2,33,-1
 333.623046875 433.799804688 l 1,34,-1
 734.823242188 40.080078125 l 1,35,-1
 863.342773438 -17.0400390625 l 1,36,-1
 517.22265625 -16.359375 l 1,37,-1
 594.0625 23.759765625 l 1,38,-1
 246.583007812 379.400390625 l 1,0,-1
EndSplineSet
EndChar

StartChar: L
Encoding: 76 76 45
Width: 714
VWidth: 1145
Flags: W
HStem: -17.04 102.68<226.94 490.1> 738.44 13.6G<-1.54 301.74>
VStem: 98.42 128.52<85.64 670.44>
LayerCount: 2
Fore
SplineSet
-1.5400390625 752.040039062 m 1,0,1
 81.419921875 752.040039062 81.419921875 752.040039062 149.759765625 752.040039062 c 128,-1,2
 218.099609375 752.040039062 218.099609375 752.040039062 301.740234375 752.040039062 c 1,3,4
 290.1796875 745.919921875 290.1796875 745.919921875 274.540039062 735.040039062 c 128,-1,5
 258.900390625 724.16015625 258.900390625 724.16015625 248.020507812 709.879882812 c 0,6,7
 236.459960938 694.919921875 236.459960938 694.919921875 231.700195312 682.6796875 c 128,-1,8
 226.940429688 670.440429688 226.940429688 670.440429688 226.940429688 670.440429688 c 1,9,-1
 226.940429688 85.640625 l 1,10,-1
 490.099609375 85.640625 l 1,11,12
 490.099609375 85.640625 490.099609375 85.640625 513.219726562 97.8798828125 c 128,-1,13
 536.33984375 110.120117188 536.33984375 110.120117188 566.940429688 140.040039062 c 0,14,15
 597.540039062 169.280273438 597.540039062 169.280273438 646.5 249.859375 c 128,-1,16
 695.459960938 330.440429688 695.459960938 330.440429688 695.459960938 330.440429688 c 257,17,18
 695.459960938 330.440429688 695.459960938 330.440429688 675.740234375 259.040039062 c 128,-1,19
 656.020507812 187.640625 656.020507812 187.640625 640.379882812 146.16015625 c 0,20,21
 624.059570312 104.6796875 624.059570312 104.6796875 607.740234375 43.8203125 c 128,-1,22
 591.419921875 -17.0400390625 591.419921875 -17.0400390625 577.140625 -17.0400390625 c 2,23,-1
 -14.4599609375 -17.0400390625 l 1,24,-1
 43.3408203125 12.2001953125 l 2,25,26
 75.2998046875 28.5205078125 75.2998046875 28.5205078125 86.859375 44.16015625 c 128,-1,27
 98.419921875 59.7998046875 98.419921875 59.7998046875 98.419921875 59.7998046875 c 1,28,-1
 98.419921875 675.879882812 l 1,29,30
 98.419921875 675.879882812 98.419921875 675.879882812 92.9794921875 686.080078125 c 128,-1,31
 87.5400390625 696.280273438 87.5400390625 696.280273438 77.3408203125 712.599609375 c 0,32,33
 67.140625 728.240234375 67.140625 728.240234375 32.7998046875 740.140625 c 128,-1,34
 -1.5400390625 752.040039062 -1.5400390625 752.040039062 -1.5400390625 752.040039062 c 1,0,1
EndSplineSet
EndChar

StartChar: M
Encoding: 77 77 46
Width: 1074
VWidth: 1102
Flags: W
HStem: -55.96 49.64<954.493 980.418> 689.32 18.36<171.301 185.048 993.644 1023.98>
VStem: 841.517 103.36<-3.30182 467.64>
LayerCount: 2
Fore
SplineSet
334.916992188 707.6796875 m 1,0,-1
 576.317382812 59.640625 l 1,1,-1
 844.237304688 707.6796875 l 1,2,-1
 1069.99707031 707.6796875 l 2,3,4
 1078.83691406 707.6796875 1078.83691406 707.6796875 1009.81738281 686.259765625 c 128,-1,5
 940.796875 664.83984375 940.796875 664.83984375 940.796875 626.080078125 c 0,6,7
 940.796875 616.559570312 940.796875 616.559570312 940.796875 587.66015625 c 128,-1,8
 940.796875 558.759765625 940.796875 558.759765625 941.477539062 538.359375 c 2,9,-1
 944.877929688 129.6796875 l 2,10,11
 945.557617188 -4.9599609375 945.557617188 -4.9599609375 964.596679688 -6.3203125 c 128,-1,12
 983.63671875 -7.6796875 983.63671875 -7.6796875 1067.27734375 -55.9599609375 c 1,13,-1
 729.997070312 -58 l 2,14,15
 719.796875 -58 719.796875 -58 780.997070312 -36.919921875 c 128,-1,16
 842.197265625 -15.83984375 842.197265625 -15.83984375 841.516601562 49.4404296875 c 2,17,-1
 837.4375 467.640625 l 1,18,-1
 562.037109375 -245.6796875 l 1,19,-1
 284.596679688 498.919921875 l 1,20,-1
 266.237304688 99.080078125 l 2,21,22
 262.157226562 2.5205078125 262.157226562 2.5205078125 293.096679688 -11.759765625 c 128,-1,23
 324.037109375 -26.0400390625 324.037109375 -26.0400390625 394.077148438 -56.640625 c 1,24,-1
 38.4375 -58.6796875 l 2,25,26
 32.9970703125 -58.6796875 32.9970703125 -58.6796875 95.216796875 -30.7998046875 c 128,-1,27
 157.4375 -2.919921875 157.4375 -2.919921875 164.237304688 101.120117188 c 2,28,-1
 197.557617188 604.3203125 l 2,29,30
 201.63671875 675.719726562 201.63671875 675.719726562 174.77734375 689.3203125 c 128,-1,31
 147.916992188 702.919921875 147.916992188 702.919921875 90.796875 707.6796875 c 1,32,-1
 334.916992188 707.6796875 l 1,0,-1
EndSplineSet
EndChar

StartChar: N
Encoding: 78 78 47
Width: 754
VWidth: 1145
Flags: W
HStem: -17.04 12.24<-8.98331 19.9071 243.64 273.37> 748.64 3.4<-6.26136 15.4521>
VStem: 92.68 62.56<72.04 582.72> 606.08 77.52<197.16 669.08>
LayerCount: 2
Fore
SplineSet
189.240234375 752.040039062 m 1,0,-1
 606.080078125 197.16015625 l 1,1,-1
 606.080078125 676.559570312 l 1,2,3
 606.080078125 676.559570312 606.080078125 676.559570312 598.259765625 689.8203125 c 128,-1,4
 590.440429688 703.080078125 590.440429688 703.080078125 567.3203125 722.120117188 c 0,5,6
 546.240234375 738.440429688 546.240234375 738.440429688 515.640625 752.040039062 c 1,7,-1
 759.080078125 752.040039062 l 1,8,9
 748.200195312 745.240234375 748.200195312 745.240234375 731.200195312 733.33984375 c 128,-1,10
 714.200195312 721.440429688 714.200195312 721.440429688 704.6796875 709.200195312 c 0,11,12
 691.080078125 690.83984375 691.080078125 690.83984375 687.33984375 679.959960938 c 128,-1,13
 683.599609375 669.080078125 683.599609375 669.080078125 683.599609375 669.080078125 c 1,14,-1
 683.599609375 -17.0400390625 l 1,15,-1
 568 -17.0400390625 l 1,16,-1
 155.240234375 582.719726562 l 1,17,-1
 155.240234375 72.0400390625 l 1,18,19
 155.240234375 72.0400390625 155.240234375 72.0400390625 166.799804688 54.7001953125 c 128,-1,20
 178.359375 37.359375 178.359375 37.359375 202.83984375 21.7197265625 c 0,21,22
 225.959960938 6.759765625 225.959960938 6.759765625 259.959960938 -4.7998046875 c 128,-1,23
 293.959960938 -16.359375 293.959960938 -16.359375 297.359375 -17.0400390625 c 2,24,-1
 -31.080078125 -17.0400390625 l 2,25,26
 -28.359375 -16.359375 -28.359375 -16.359375 3.599609375 -5.140625 c 128,-1,27
 35.5595703125 6.080078125 35.5595703125 6.080078125 58 22.400390625 c 0,28,29
 81.1201171875 39.400390625 81.1201171875 39.400390625 86.900390625 60.140625 c 128,-1,30
 92.6796875 80.8798828125 92.6796875 80.8798828125 92.6796875 80.8798828125 c 1,31,-1
 92.6796875 673.16015625 l 1,32,33
 92.6796875 673.16015625 92.6796875 673.16015625 62.419921875 708.859375 c 128,-1,34
 32.16015625 744.559570312 32.16015625 744.559570312 9.7197265625 748.640625 c 0,35,36
 4.2802734375 750 4.2802734375 750 -6.599609375 752.040039062 c 2,37,-1
 189.240234375 752.040039062 l 1,0,-1
EndSplineSet
EndChar

StartChar: O
Encoding: 79 79 48
Width: 681
VWidth: 1145
Flags: W
HStem: -17.04 46.92<258.005 387.39> 705.12 46.92<255.947 383.466>
VStem: -10.16 136.68<234.529 493.639> 511.4 140.76<252.673 492.361>
LayerCount: 2
Fore
SplineSet
324.400390625 752.040039062 m 0,0,1
 393.080078125 752.040039062 393.080078125 752.040039062 454.280273438 726.200195312 c 0,2,3
 515.479492188 699.6796875 515.479492188 699.6796875 558.3203125 650.719726562 c 0,4,5
 601.83984375 601.759765625 601.83984375 601.759765625 627 526.959960938 c 0,6,7
 652.16015625 454.200195312 652.16015625 454.200195312 652.16015625 372.599609375 c 0,8,9
 652.16015625 290.3203125 652.16015625 290.3203125 625.640625 212.799804688 c 0,10,11
 599.799804688 135.959960938 599.799804688 135.959960938 552.879882812 80.8798828125 c 0,12,13
 469.919921875 -17.0400390625 469.919921875 -17.0400390625 319.640625 -17.0400390625 c 0,14,15
 238.719726562 -17.0400390625 238.719726562 -17.0400390625 170.040039062 16.9599609375 c 0,16,17
 102.719726562 49.599609375 102.719726562 49.599609375 58.5205078125 112.83984375 c 0,18,19
 -10.1591796875 210.759765625 -10.1591796875 210.759765625 -10.1591796875 362.400390625 c 0,20,21
 -10.1591796875 464.400390625 -10.1591796875 464.400390625 21.1201171875 547.359375 c 0,22,23
 51.7197265625 629.640625 51.7197265625 629.640625 108.16015625 679.280273438 c 0,24,25
 191.799804688 752.040039062 191.799804688 752.040039062 324.400390625 752.040039062 c 0,0,1
317.599609375 705.120117188 m 0,26,27
 253.6796875 705.120117188 253.6796875 705.120117188 206.759765625 652.759765625 c 0,28,29
 165.280273438 605.83984375 165.280273438 605.83984375 146.240234375 534.440429688 c 0,30,31
 126.520507812 461.6796875 126.520507812 461.6796875 126.520507812 358.3203125 c 0,32,33
 126.520507812 209.400390625 126.520507812 209.400390625 175.479492188 125.759765625 c 0,34,35
 232.599609375 29.8798828125 232.599609375 29.8798828125 323.719726562 29.8798828125 c 0,36,37
 418.240234375 29.8798828125 418.240234375 29.8798828125 468.559570312 135.959960938 c 0,38,39
 488.280273438 176.080078125 488.280273438 176.080078125 499.83984375 242.040039062 c 0,40,41
 511.400390625 302.559570312 511.400390625 302.559570312 511.400390625 374.640625 c 0,42,43
 511.400390625 451.479492188 511.400390625 451.479492188 495.759765625 520.83984375 c 0,44,45
 480.799804688 585.440429688 480.799804688 585.440429688 452.240234375 628.959960938 c 0,46,47
 399.879882812 705.120117188 399.879882812 705.120117188 317.599609375 705.120117188 c 0,26,27
EndSplineSet
EndChar

StartChar: P
Encoding: 80 80 49
Width: 605
VWidth: 1145
Flags: W
HStem: -17.04 14.28G<-13.68 352.16> 337.92 102.68<234.52 389.856> 390.96 49.64<58.0151 103.96> 422.92 17.68<7.13846 44.2725> 688.12 63.92<234.52 415.516>
VStem: 103.96 130.56<59.8 337.92 440.6 687.939> 484.08 109.48<509.6 625.382>
LayerCount: 2
Fore
SplineSet
335.16015625 337.919921875 m 0,0,1
 312.719726562 339.280273438 312.719726562 339.280273438 279.400390625 338.599609375 c 2,2,-1
 265.120117188 337.919921875 l 1,3,-1
 234.520507812 337.919921875 l 1,4,-1
 234.520507812 181.520507812 l 1,5,-1
 234.520507812 164.520507812 l 1,6,-1
 234.520507812 85.640625 l 1,7,-1
 234.520507812 59.7998046875 l 1,8,9
 234.520507812 59.7998046875 234.520507812 59.7998046875 246.080078125 44.16015625 c 128,-1,10
 257.640625 28.5205078125 257.640625 28.5205078125 291.640625 12.2001953125 c 2,11,-1
 352.16015625 -17.0400390625 l 1,12,-1
 234.520507812 -17.0400390625 l 1,13,-1
 103.959960938 -17.0400390625 l 1,14,-1
 -13.6796875 -17.0400390625 l 1,15,-1
 46.8408203125 12.2001953125 l 2,16,17
 79.4794921875 27.8408203125 79.4794921875 27.8408203125 91.7197265625 43.140625 c 128,-1,18
 103.959960938 58.4404296875 103.959960938 58.4404296875 103.959960938 59.7998046875 c 1,19,20
 103.959960938 85.640625 l 1,21,-1
 103.959960938 164.520507812 l 1,22,-1
 103.959960938 181.520507812 l 1,23,-1
 103.959960938 390.959960938 l 1,24,-1
 88.3203125 390.959960938 l 1,25,26
 70.640625 397.080078125 70.640625 397.080078125 56.7001953125 406.599609375 c 128,-1,27
 42.759765625 416.120117188 42.759765625 416.120117188 25.080078125 422.919921875 c 2,28,-1
 -41.5595703125 440.599609375 l 1,29,-1
 103.959960938 440.599609375 l 1,30,-1
 103.959960938 620.120117188 l 2,31,32
 103.959960938 707.83984375 103.959960938 707.83984375 41.400390625 729.940429688 c 128,-1,33
 -21.1591796875 752.040039062 -21.1591796875 752.040039062 -12.3203125 752.040039062 c 2,34,-1
 498.359375 752.040039062 l 2,35,36
 522.16015625 752.040039062 522.16015625 752.040039062 542.219726562 732.3203125 c 128,-1,37
 562.280273438 712.599609375 562.280273438 712.599609375 572.479492188 691.520507812 c 0,38,39
 593.559570312 644.599609375 593.559570312 644.599609375 593.559570312 587.479492188 c 0,40,41
 593.559570312 554.16015625 593.559570312 554.16015625 586.759765625 510.640625 c 128,-1,42
 579.959960938 467.120117188 579.959960938 467.120117188 562.959960938 446.719726562 c 0,43,44
 516.040039062 392.3203125 516.040039062 392.3203125 469.459960938 367.16015625 c 128,-1,45
 422.879882812 342 422.879882812 342 335.16015625 337.919921875 c 0,0,1
234.520507812 440.599609375 m 1,46,47
 297.080078125 440.599609375 297.080078125 440.599609375 335.16015625 443.3203125 c 0,48,49
 359.640625 445.359375 359.640625 445.359375 392.959960938 456.240234375 c 0,50,51
 484.080078125 484.120117188 484.080078125 484.120117188 484.080078125 565.040039062 c 0,52,53
 484.080078125 633.719726562 484.080078125 633.719726562 426.280273438 668.400390625 c 0,54,55
 386.16015625 690.83984375 386.16015625 690.83984375 299.120117188 690.83984375 c 1,56,57
 299.799804688 690.83984375 299.799804688 690.83984375 265.799804688 689.479492188 c 2,58,-1
 234.520507812 688.120117188 l 1,59,-1
 234.520507812 440.599609375 l 1,46,47
EndSplineSet
EndChar

StartChar: Q
Encoding: 81 81 50
Width: 672
VWidth: 1089
Flags: W
HStem: -314.4 43.52<150.26 235.923> -294.68 72.76<97.222 134.28> 648.48 46.92<250.787 378.408>
VStem: -15.32 136.68<177.552 437.251> 506.24 140.08<194.05 436.773>
LayerCount: 2
Fore
SplineSet
319.240234375 695.400390625 m 0,0,1
 387.919921875 695.400390625 387.919921875 695.400390625 449.120117188 669.559570312 c 0,2,3
 508.959960938 643.040039062 508.959960938 643.040039062 553.159179688 594.080078125 c 0,4,5
 597.359375 543.080078125 597.359375 543.080078125 621.83984375 470.3203125 c 0,6,7
 646.3203125 396.879882812 646.3203125 396.879882812 646.3203125 315.959960938 c 0,8,9
 646.3203125 231.640625 646.3203125 231.640625 620.479492188 156.16015625 c 0,10,11
 593.959960938 79.3203125 593.959960938 79.3203125 547.719726562 24.240234375 c 0,12,13
 485.83984375 -47.83984375 485.83984375 -47.83984375 388.599609375 -66.8798828125 c 1,14,15
 387.240234375 -78.4404296875 387.240234375 -78.4404296875 381.799804688 -102.919921875 c 0,16,17
 372.959960938 -141.6796875 372.959960938 -141.6796875 347.799804688 -195.400390625 c 0,18,19
 319.919921875 -252.520507812 319.919921875 -252.520507812 270.280273438 -283.799804688 c 0,20,21
 217.919921875 -314.400390625 217.919921875 -314.400390625 168.280273438 -314.400390625 c 0,22,23
 132.240234375 -314.400390625 132.240234375 -314.400390625 104.359375 -294.6796875 c 0,24,25
 86.6796875 -281.080078125 86.6796875 -281.080078125 86.6796875 -260.6796875 c 0,26,27
 86.6796875 -245.040039062 86.6796875 -245.040039062 96.8798828125 -234.83984375 c 0,28,29
 107.759765625 -223.959960938 107.759765625 -223.959960938 126.799804688 -221.919921875 c 1,30,31
 136.3203125 -223.959960938 136.3203125 -223.959960938 149.240234375 -228.040039062 c 1,32,33
 158.759765625 -234.83984375 158.759765625 -234.83984375 173.040039062 -249.120117188 c 0,34,35
 193.440429688 -270.879882812 193.440429688 -270.879882812 214.520507812 -270.879882812 c 0,36,37
 227.440429688 -270.879882812 227.440429688 -270.879882812 234.240234375 -264.080078125 c 0,38,39
 246.479492188 -251.83984375 246.479492188 -251.83984375 258.040039062 -207.640625 c 0,40,41
 272.3203125 -149.83984375 272.3203125 -149.83984375 272.3203125 -90.6796875 c 0,42,43
 272.3203125 -77.080078125 272.3203125 -77.080078125 271.640625 -70.9599609375 c 1,44,45
 216.559570312 -65.5205078125 216.559570312 -65.5205078125 164.879882812 -39.6796875 c 0,46,47
 95.5205078125 -6.359375 95.5205078125 -6.359375 53.359375 56.2001953125 c 0,48,49
 -15.3203125 152.759765625 -15.3203125 152.759765625 -15.3203125 305.759765625 c 0,50,51
 -15.3203125 407.080078125 -15.3203125 407.080078125 15.2802734375 490.719726562 c 0,52,53
 46.5595703125 573.6796875 46.5595703125 573.6796875 103 622.640625 c 0,54,55
 186.640625 695.400390625 186.640625 695.400390625 319.240234375 695.400390625 c 0,0,1
312.440429688 648.479492188 m 0,56,57
 248.520507812 648.479492188 248.520507812 648.479492188 201.599609375 596.120117188 c 0,58,59
 160.799804688 551.240234375 160.799804688 551.240234375 140.400390625 477.799804688 c 0,60,61
 121.359375 407.080078125 121.359375 407.080078125 121.359375 301.6796875 c 0,62,63
 121.359375 152.759765625 121.359375 152.759765625 170.3203125 69.1201171875 c 0,64,65
 227.440429688 -26.759765625 227.440429688 -26.759765625 318.559570312 -26.759765625 c 0,66,67
 412.400390625 -26.759765625 412.400390625 -26.759765625 463.400390625 79.3203125 c 0,68,69
 481.759765625 119.440429688 481.759765625 119.440429688 494.6796875 185.400390625 c 0,70,71
 506.240234375 251.359375 506.240234375 251.359375 506.240234375 318 c 0,72,73
 506.240234375 394.83984375 506.240234375 394.83984375 490.599609375 464.200195312 c 0,74,75
 473.599609375 531.520507812 473.599609375 531.520507812 446.400390625 572.3203125 c 0,76,77
 395.400390625 648.479492188 395.400390625 648.479492188 312.440429688 648.479492188 c 0,56,57
EndSplineSet
EndChar

StartChar: R
Encoding: 82 82 51
Width: 824
VWidth: 1145
Flags: W
HStem: -17.04 14.28G<35.4 401.24 493.04 777.636> 390.96 49.64<107.097 153.72> 422.92 17.68<56.5323 93.4735> 702.4 49.64<283.6 510.349>
VStem: 153.72 129.88<59.8 335.88 440.6 689.703> 584.84 109.48<514.061 636.226>
LayerCount: 2
Fore
SplineSet
397.16015625 354.919921875 m 1,0,-1
 689.559570312 40.080078125 l 1,1,-1
 805.16015625 -17.0400390625 l 1,2,-1
 493.040039062 -16.359375 l 1,3,-1
 546.080078125 23.759765625 l 1,4,-1
 283.599609375 335.879882812 l 1,5,-1
 283.599609375 181.520507812 l 1,6,-1
 283.599609375 164.520507812 l 1,7,-1
 283.599609375 85.640625 l 1,8,-1
 283.599609375 59.7998046875 l 1,9,10
 283.599609375 59.7998046875 283.599609375 59.7998046875 295.5 44.16015625 c 128,-1,11
 307.400390625 28.5205078125 307.400390625 28.5205078125 341.400390625 12.2001953125 c 2,12,-1
 401.240234375 -17.0400390625 l 1,13,-1
 283.599609375 -17.0400390625 l 1,14,-1
 153.719726562 -17.0400390625 l 1,15,-1
 35.400390625 -17.0400390625 l 1,16,-1
 95.919921875 12.2001953125 l 2,17,18
 128.559570312 27.8408203125 128.559570312 27.8408203125 141.140625 43.140625 c 128,-1,19
 153.719726562 58.4404296875 153.719726562 58.4404296875 153.719726562 59.7998046875 c 1,20,21
 153.719726562 85.640625 l 1,22,-1
 153.719726562 164.520507812 l 1,23,-1
 153.719726562 181.520507812 l 1,24,-1
 153.719726562 390.959960938 l 1,25,-1
 138.080078125 390.959960938 l 1,26,27
 119.719726562 397.080078125 119.719726562 397.080078125 105.780273438 406.599609375 c 128,-1,28
 91.83984375 416.120117188 91.83984375 416.120117188 74.83984375 422.919921875 c 2,29,-1
 6.8408203125 440.599609375 l 1,30,-1
 153.719726562 440.599609375 l 1,31,-1
 153.719726562 620.120117188 l 2,32,33
 153.719726562 707.83984375 153.719726562 707.83984375 91.16015625 729.940429688 c 128,-1,34
 28.599609375 752.040039062 28.599609375 752.040039062 36.759765625 752.040039062 c 2,35,-1
 598.440429688 752.040039062 l 2,36,37
 622.919921875 752.040039062 622.919921875 752.040039062 642.640625 732.3203125 c 128,-1,38
 662.359375 712.599609375 662.359375 712.599609375 672.559570312 691.520507812 c 0,39,40
 694.3203125 645.280273438 694.3203125 645.280273438 694.3203125 587.479492188 c 0,41,42
 694.3203125 554.16015625 694.3203125 554.16015625 688.540039062 513.700195312 c 128,-1,43
 682.759765625 473.240234375 682.759765625 473.240234375 665.759765625 453.520507812 c 0,44,45
 618.83984375 399.120117188 618.83984375 399.120117188 561.040039062 378.719726562 c 128,-1,46
 503.240234375 358.3203125 503.240234375 358.3203125 415.520507812 354.240234375 c 0,47,48
 410.759765625 354.240234375 410.759765625 354.240234375 406 354.580078125 c 128,-1,49
 401.240234375 354.919921875 401.240234375 354.919921875 397.16015625 354.919921875 c 1,0,-1
283.599609375 440.599609375 m 1,50,51
 352.280273438 440.599609375 352.280273438 440.599609375 384.240234375 444 c 0,52,53
 398.520507812 445.359375 398.520507812 445.359375 438.640625 448.419921875 c 128,-1,54
 478.759765625 451.479492188 478.759765625 451.479492188 493.719726562 456.919921875 c 0,55,56
 584.83984375 487.520507812 584.83984375 487.520507812 584.83984375 572.520507812 c 0,57,58
 584.83984375 645.959960938 584.83984375 645.959960938 526.359375 682 c 0,59,60
 506.640625 693.559570312 506.640625 693.559570312 449.1796875 699.6796875 c 128,-1,61
 391.719726562 705.799804688 391.719726562 705.799804688 348.200195312 705.799804688 c 1,62,63
 349.559570312 705.799804688 349.559570312 705.799804688 315.559570312 704.440429688 c 2,64,-1
 283.599609375 702.400390625 l 1,65,-1
 283.599609375 440.599609375 l 1,50,51
EndSplineSet
EndChar

StartChar: S
Encoding: 83 83 52
Width: 631
VWidth: 1145
Flags: W
VStem: -11.7348 9.18<262.645 269.355> -3.57475 144.16<556.014 628.624>
LayerCount: 2
Fore
SplineSet
537.025390625 687.5546875 m 2,0,-1
 569.665039062 497.834960938 l 1,1,2
 569.665039062 497.834960938 569.665039062 497.834960938 544.504882812 536.594726562 c 128,-1,3
 519.344726562 575.354492188 519.344726562 575.354492188 491.46484375 615.474609375 c 0,4,5
 473.78515625 639.955078125 473.78515625 639.955078125 417.004882812 652.875 c 128,-1,6
 360.225585938 665.794921875 360.225585938 665.794921875 299.365234375 665.455078125 c 128,-1,7
 238.504882812 665.114257812 238.504882812 665.114257812 189.884765625 650.834960938 c 128,-1,8
 141.264648438 636.5546875 141.264648438 636.5546875 140.584960938 605.955078125 c 0,9,10
 140.584960938 596.434570312 140.584960938 596.434570312 143.985351562 572.294921875 c 128,-1,11
 147.384765625 548.154296875 147.384765625 548.154296875 255.504882812 501.9140625 c 0,12,13
 362.9453125 454.995117188 362.9453125 454.995117188 449.985351562 429.834960938 c 128,-1,14
 537.025390625 404.674804688 537.025390625 404.674804688 573.745117188 314.234375 c 0,15,16
 609.78515625 223.794921875 609.78515625 223.794921875 583.9453125 161.575195312 c 128,-1,17
 558.10546875 99.3544921875 558.10546875 99.3544921875 509.14453125 54.474609375 c 0,18,19
 458.825195312 8.9140625 458.825195312 8.9140625 354.4453125 -6.3857421875 c 128,-1,20
 250.065429688 -21.685546875 250.065429688 -21.685546875 203.14453125 -13.525390625 c 256,21,22
 156.225585938 -5.365234375 156.225585938 -5.365234375 110.325195312 10.955078125 c 128,-1,23
 64.42578125 27.275390625 64.42578125 27.275390625 32.46484375 53.794921875 c 1,24,25
 30.42578125 64.6748046875 30.42578125 64.6748046875 22.9453125 102.4140625 c 128,-1,26
 15.46484375 140.154296875 15.46484375 140.154296875 7.9853515625 180.955078125 c 128,-1,27
 0.5048828125 221.754882812 0.5048828125 221.754882812 -5.615234375 254.0546875 c 128,-1,28
 -11.7353515625 286.354492188 -11.7353515625 286.354492188 -11.7353515625 286.354492188 c 257,29,30
 -11.7353515625 286.354492188 -11.7353515625 286.354492188 -2.5546875 269.354492188 c 128,-1,31
 6.6259765625 252.354492188 6.6259765625 252.354492188 17.5048828125 225.834960938 c 0,32,33
 28.384765625 198.634765625 28.384765625 198.634765625 60.3447265625 159.875 c 128,-1,34
 92.3056640625 121.114257812 92.3056640625 121.114257812 153.504882812 94.5947265625 c 0,35,36
 201.10546875 73.5146484375 201.10546875 73.5146484375 263.665039062 74.1953125 c 128,-1,37
 326.225585938 74.875 326.225585938 74.875 377.905273438 93.5751953125 c 128,-1,38
 429.584960938 112.275390625 429.584960938 112.275390625 457.46484375 147.634765625 c 128,-1,39
 485.344726562 182.995117188 485.344726562 182.995117188 463.584960938 231.955078125 c 0,40,41
 441.825195312 280.234375 441.825195312 280.234375 366.685546875 311.514648438 c 128,-1,42
 291.544921875 342.794921875 291.544921875 342.794921875 209.60546875 374.075195312 c 128,-1,43
 127.665039062 405.354492188 127.665039062 405.354492188 62.7255859375 446.154296875 c 128,-1,44
 -2.21484375 486.955078125 -2.21484375 486.955078125 -3.57421875 554.955078125 c 0,45,46
 -5.615234375 650.154296875 -5.615234375 650.154296875 76.3251953125 695.034179688 c 128,-1,47
 158.264648438 739.9140625 158.264648438 739.9140625 258.905273438 749.094726562 c 128,-1,48
 359.544921875 758.275390625 359.544921875 758.275390625 445.225585938 739.234375 c 128,-1,49
 530.905273438 720.1953125 530.905273438 720.1953125 537.025390625 687.5546875 c 2,0,-1
EndSplineSet
EndChar

StartChar: T
Encoding: 84 84 53
Width: 666
VWidth: 1145
Flags: W
HStem: -17.04 14.28G<167.5 450.38> 683.36 68.68<83.18 229.64 394.62 540.14>
VStem: 257.26 112.2<33.5954 309.268>
LayerCount: 2
Fore
SplineSet
167.5 -17.0400390625 m 1,0,1
 253.859375 -4.1201171875 253.859375 -4.1201171875 257.259765625 87 c 0,2,3
 268.8203125 407.959960938 268.8203125 407.959960938 248.759765625 542.259765625 c 128,-1,4
 228.700195312 676.559570312 228.700195312 676.559570312 228.700195312 676.559570312 c 257,5,6
 228.700195312 676.559570312 228.700195312 676.559570312 228.359375 677.919921875 c 128,-1,7
 228.020507812 679.280273438 228.020507812 679.280273438 227.33984375 683.359375 c 1,8,-1
 83.1796875 683.359375 l 1,9,10
 83.1796875 683.359375 83.1796875 683.359375 56.3203125 669.759765625 c 128,-1,11
 29.4599609375 656.16015625 29.4599609375 656.16015625 -1.8203125 607.200195312 c 0,12,13
 -34.4599609375 557.559570312 -34.4599609375 557.559570312 -43.9794921875 538.859375 c 128,-1,14
 -53.5 520.16015625 -53.5 520.16015625 -53.5 520.16015625 c 1,15,-1
 13.140625 752.040039062 l 1,16,-1
 228.700195312 752.040039062 l 1,17,-1
 311.66015625 752.040039062 l 1,18,-1
 394.620117188 752.040039062 l 1,19,-1
 610.1796875 752.040039062 l 1,20,-1
 677.5 520.16015625 l 1,21,22
 677.5 520.16015625 677.5 520.16015625 667.299804688 538.859375 c 128,-1,23
 657.099609375 557.559570312 657.099609375 557.559570312 625.8203125 607.200195312 c 0,24,25
 593.1796875 656.16015625 593.1796875 656.16015625 566.66015625 669.759765625 c 128,-1,26
 540.140625 683.359375 540.140625 683.359375 540.140625 683.359375 c 1,27,-1
 396.66015625 683.359375 l 1,28,29
 394.620117188 679.280273438 394.620117188 679.280273438 394.620117188 677.919921875 c 128,-1,30
 394.620117188 676.559570312 394.620117188 676.559570312 394.620117188 676.559570312 c 257,31,32
 394.620117188 676.559570312 394.620117188 676.559570312 374.559570312 542.259765625 c 128,-1,33
 354.5 407.959960938 354.5 407.959960938 369.459960938 87 c 1,34,35
 378.299804688 -0.7197265625 378.299804688 -0.7197265625 450.379882812 -17.0400390625 c 1,36,-1
 167.5 -17.0400390625 l 1,0,1
EndSplineSet
EndChar

StartChar: U
Encoding: 85 85 54
Width: 797
VWidth: 1145
Flags: W
HStem: -17.3483 50.66<311.351 517.047> 724.532 21.42<31.1916 53.6257 734.009 765.559> 734.732 11.22<252.646 298.373 562.233 592.638>
VStem: 66.7171 153.34<109.919 715.245> 612.077 86.36<126.88 691.681>
LayerCount: 2
Fore
SplineSet
218.357421875 675.231445312 m 2,0,-1
 219.716796875 354.271484375 l 2,1,2
 219.716796875 281.51171875 219.716796875 281.51171875 220.057617188 236.971679688 c 128,-1,3
 220.396484375 192.431640625 220.396484375 192.431640625 221.077148438 176.112304688 c 0,4,5
 223.1171875 145.51171875 223.1171875 145.51171875 232.63671875 116.271484375 c 0,6,7
 244.876953125 74.7919921875 244.876953125 74.7919921875 293.157226562 54.3916015625 c 0,8,9
 344.157226562 33.3125 344.157226562 33.3125 417.596679688 33.3125 c 0,10,11
 536.596679688 33.3125 536.596679688 33.3125 579.4375 91.7919921875 c 0,12,13
 597.796875 118.3125 597.796875 118.3125 605.27734375 155.03125 c 0,14,15
 612.077148438 192.431640625 612.077148438 192.431640625 612.077148438 258.391601562 c 2,16,-1
 612.077148438 348.831054688 l 1,17,-1
 610.716796875 684.072265625 l 2,18,19
 610.037109375 726.231445312 610.037109375 726.231445312 581.477539062 734.731445312 c 128,-1,20
 552.916992188 743.231445312 552.916992188 743.231445312 510.077148438 745.951171875 c 1,21,-1
 815.396484375 746.631835938 l 2,22,23
 824.916992188 746.631835938 824.916992188 746.631835938 761.677734375 727.931640625 c 128,-1,24
 698.4375 709.231445312 698.4375 709.231445312 698.4375 627.631835938 c 2,25,-1
 698.4375 335.912109375 l 2,26,27
 697.756835938 313.471679688 697.756835938 313.471679688 697.416992188 295.112304688 c 128,-1,28
 697.077148438 276.751953125 697.077148438 276.751953125 697.077148438 263.151367188 c 0,29,30
 695.716796875 152.3125 695.716796875 152.3125 677.357421875 106.751953125 c 0,31,32
 654.237304688 48.951171875 654.237304688 48.951171875 587.256835938 19.3720703125 c 128,-1,33
 520.27734375 -10.2080078125 520.27734375 -10.2080078125 440.376953125 -17.3486328125 c 128,-1,34
 360.477539062 -24.48828125 360.477539062 -24.48828125 267.657226562 -11.908203125 c 128,-1,35
 174.836914062 0.671875 174.836914062 0.671875 134.037109375 28.5517578125 c 0,36,37
 92.5576171875 53.7119140625 92.5576171875 53.7119140625 80.3173828125 95.1923828125 c 0,38,39
 66.716796875 135.9921875 66.716796875 135.9921875 66.716796875 232.551757812 c 2,40,-1
 65.357421875 675.231445312 l 2,41,42
 65.357421875 711.271484375 65.357421875 711.271484375 40.537109375 724.53125 c 128,-1,43
 15.716796875 737.791992188 15.716796875 737.791992188 -36.642578125 745.951171875 c 1,44,-1
 335.997070312 745.951171875 l 2,45,46
 345.516601562 745.951171875 345.516601562 745.951171875 281.9375 737.112304688 c 128,-1,47
 218.357421875 728.271484375 218.357421875 728.271484375 218.357421875 675.231445312 c 2,0,-1
EndSplineSet
EndChar

StartChar: V
Encoding: 86 86 55
Width: 573
VWidth: 1145
Flags: W
HStem: -17.04 14.28G<294.58 300.056> 733.34 12.58<442.342 473.45> 740.82 5.1<683.913 708.904> 741.16 10.88<-159.192 -105.834>
LayerCount: 2
Fore
SplineSet
172.859375 752.040039062 m 1,0,1
 172.859375 752.040039062 172.859375 752.040039062 147.020507812 740.8203125 c 128,-1,2
 121.1796875 729.599609375 121.1796875 729.599609375 106.900390625 719.400390625 c 0,3,4
 91.9404296875 709.879882812 91.9404296875 709.879882812 93.640625 686.080078125 c 0,5,-1
 95.33984375 662.280273438 l 1,6,-1
 313.620117188 221.640625 l 1,7,-1
 487.700195312 658.879882812 l 1,8,9
 487.700195312 658.879882812 487.700195312 658.879882812 488.379882812 663.299804688 c 128,-1,10
 489.059570312 667.719726562 489.059570312 667.719726562 493.8203125 694.240234375 c 256,11,12
 498.580078125 720.759765625 498.580078125 720.759765625 457.780273438 733.33984375 c 0,13,-1
 416.979492188 745.919921875 l 1,14,-1
 710.059570312 745.919921875 l 1,15,16
 710.059570312 745.919921875 710.059570312 745.919921875 692.719726562 740.8203125 c 128,-1,17
 675.379882812 735.719726562 675.379882812 735.719726562 632.540039062 726.200195312 c 0,18,19
 589.020507812 716 589.020507812 716 565.559570312 656.83984375 c 0,20,-1
 542.099609375 597.6796875 l 1,21,-1
 294.580078125 -17.0400390625 l 1,22,23
 294.580078125 -17.0400390625 294.580078125 -17.0400390625 248.6796875 83.9404296875 c 128,-1,24
 202.780273438 184.919921875 202.780273438 184.919921875 144.640625 310.719726562 c 128,-1,25
 86.5 436.520507812 86.5 436.520507812 33.7998046875 549.059570312 c 128,-1,26
 -18.900390625 661.599609375 -18.900390625 661.599609375 -33.1796875 684.719726562 c 0,27,28
 -62.419921875 730.280273438 -62.419921875 730.280273438 -129.740234375 741.16015625 c 0,29,-1
 -197.059570312 752.040039062 l 1,30,-1
 172.859375 752.040039062 l 1,0,1
EndSplineSet
EndChar

StartChar: W
Encoding: 87 87 56
Width: 1410
VWidth: 1145
Flags: W
HStem: -18.48 14.28G<588.24 594.304 949.32 955.247> 729.52 14.96<175.856 203.879> 739.72 4.76<1340.92 1367.22>
LayerCount: 2
Fore
SplineSet
141.479492188 744.479492188 m 1,0,-1
 453.599609375 744.479492188 l 1,1,2
 426.400390625 731.559570312 426.400390625 731.559570312 414.83984375 724.080078125 c 0,3,4
 399.879882812 713.879882812 399.879882812 713.879882812 401.580078125 689.740234375 c 0,5,-1
 403.280273438 665.599609375 l 1,6,-1
 623.599609375 221.559570312 l 1,7,-1
 714.040039062 449.359375 l 1,8,9
 677.3203125 526.879882812 677.3203125 526.879882812 647.740234375 588.759765625 c 128,-1,10
 618.159179688 650.640625 618.159179688 650.640625 603.879882812 677.16015625 c 2,11,-1
 568.520507812 744.479492188 l 1,12,-1
 777.280273438 744.479492188 l 1,13,14
 745.3203125 728.16015625 745.3203125 728.16015625 738.520507812 724.080078125 c 0,15,16
 724.240234375 713.879882812 724.240234375 713.879882812 725.599609375 689.740234375 c 0,17,-1
 726.959960938 665.599609375 l 1,18,-1
 954.080078125 221.559570312 l 1,19,-1
 1122.71972656 662.200195312 l 1,20,21
 1122.71972656 662.200195312 1122.71972656 662.200195312 1124.08007812 669 c 128,-1,22
 1125.44042969 675.799804688 1125.44042969 675.799804688 1129.52050781 698.240234375 c 0,23,24
 1133.59960938 720 1133.59960938 720 1112.859375 729.1796875 c 128,-1,25
 1092.12011719 738.359375 1092.12011719 738.359375 1073.75976562 744.479492188 c 1,26,-1
 1367.52050781 744.479492188 l 1,27,28
 1358 741.759765625 1358 741.759765625 1350.1796875 739.719726562 c 128,-1,29
 1342.359375 737.6796875 1342.359375 737.6796875 1310.40039062 730.200195312 c 0,30,31
 1278.44042969 723.400390625 1278.44042969 723.400390625 1248.859375 662.200195312 c 0,32,-1
 1219.28027344 601 l 1,33,-1
 949.3203125 -18.4794921875 l 1,34,35
 949.3203125 -18.4794921875 949.3203125 -18.4794921875 884.379882812 100.520507812 c 128,-1,36
 819.440429688 219.520507812 819.440429688 219.520507812 756.200195312 358.240234375 c 1,37,-1
 588.240234375 -18.4794921875 l 1,38,39
 588.240234375 -18.4794921875 588.240234375 -18.4794921875 536.900390625 85.5595703125 c 128,-1,40
 485.559570312 189.599609375 485.559570312 189.599609375 421.640625 317.780273438 c 128,-1,41
 357.719726562 445.959960938 357.719726562 445.959960938 300.940429688 558.5 c 128,-1,42
 244.159179688 671.040039062 244.159179688 671.040039062 233.959960938 688.719726562 c 0,43,44
 212.200195312 722.040039062 212.200195312 722.040039062 190.099609375 729.520507812 c 128,-1,45
 168 737 168 737 141.479492188 744.479492188 c 1,0,-1
EndSplineSet
EndChar

StartChar: X
Encoding: 88 88 57
Width: 858
VWidth: 1145
Flags: W
HStem: -18.48 14.28G<23.26 266.02 518.3 829.74>
LayerCount: 2
Fore
SplineSet
473.419921875 444.599609375 m 1,0,-1
 680.8203125 131.799804688 l 1,1,-1
 707.33984375 93.0400390625 l 2,2,3
 750.1796875 29.1201171875 750.1796875 29.1201171875 769.219726562 10.759765625 c 0,4,5
 792.33984375 -11 792.33984375 -11 829.740234375 -18.4794921875 c 1,6,-1
 518.299804688 -18.4794921875 l 1,7,8
 579.5 -5.5595703125 579.5 -5.5595703125 579.5 33.2001953125 c 0,9,10
 579.5 54.9599609375 579.5 54.9599609375 555.020507812 91.6796875 c 2,11,-1
 393.859375 333.080078125 l 1,12,-1
 273.5 154.919921875 l 2,13,14
 261.940429688 137.240234375 261.940429688 137.240234375 251.400390625 120.919921875 c 128,-1,15
 240.859375 104.599609375 240.859375 104.599609375 232.020507812 89.640625 c 0,16,17
 211.620117188 54.9599609375 211.620117188 54.9599609375 211.620117188 27.759765625 c 0,18,19
 211.620117188 -10.3203125 211.620117188 -10.3203125 266.020507812 -18.4794921875 c 1,20,-1
 23.259765625 -18.4794921875 l 1,21,22
 59.2998046875 -10.3203125 59.2998046875 -10.3203125 79.0205078125 8.0400390625 c 0,23,24
 96.7001953125 24.359375 96.7001953125 24.359375 139.540039062 84.2001953125 c 2,25,-1
 355.780273438 394.280273438 l 1,26,-1
 213.66015625 606.440429688 l 2,27,28
 165.379882812 679.879882812 165.379882812 679.879882812 132.740234375 709.799804688 c 0,29,30
 101.459960938 738.359375 101.459960938 738.359375 65.419921875 744.479492188 c 1,31,-1
 368.700195312 744.479492188 l 1,32,33
 316.33984375 737 316.33984375 737 316.33984375 702.3203125 c 0,34,35
 316.33984375 679.200195312 316.33984375 679.200195312 344.219726562 637.040039062 c 2,36,-1
 431.259765625 505.120117188 l 1,37,-1
 518.299804688 628.879882812 l 2,38,39
 555.700195312 681.919921875 555.700195312 681.919921875 555.700195312 709.799804688 c 0,40,41
 555.700195312 738.359375 555.700195312 738.359375 518.299804688 744.479492188 c 1,42,-1
 748.8203125 744.479492188 l 1,43,44
 701.900390625 734.280273438 701.900390625 734.280273438 675.379882812 715.240234375 c 0,45,46
 648.1796875 692.120117188 648.1796875 692.120117188 596.5 620.719726562 c 2,47,-1
 473.419921875 444.599609375 l 1,0,-1
EndSplineSet
EndChar

StartChar: Y
Encoding: 89 89 58
Width: 805
VWidth: 1145
Flags: W
HStem: -18.48 10.88<268.403 288.855> -18.48 6.8<508.508 535.386>
VStem: 322.08 142.8<19.6425 333.08>
LayerCount: 2
Fore
SplineSet
464.879882812 333.080078125 m 1,0,-1
 464.879882812 151.520507812 l 2,1,2
 464.879882812 39.3203125 464.879882812 39.3203125 481.879882812 14.16015625 c 0,3,4
 493.440429688 -4.8798828125 493.440429688 -4.8798828125 517.919921875 -11.6796875 c 0,5,6
 526.759765625 -15.759765625 526.759765625 -15.759765625 550.559570312 -18.4794921875 c 1,7,-1
 241.83984375 -18.4794921875 l 1,8,9
 265.640625 -14.400390625 265.640625 -14.400390625 281.280273438 -7.599609375 c 0,10,11
 313.240234375 9.400390625 313.240234375 9.400390625 318.6796875 61.759765625 c 0,12,13
 322.080078125 89.640625 322.080078125 89.640625 322.080078125 151.520507812 c 2,14,-1
 322.080078125 333.080078125 l 1,15,-1
 143.919921875 614.599609375 l 2,16,17
 105.840820312 673.080078125 105.840820312 673.080078125 82.7197265625 705.040039062 c 1,18,19
 54.8408203125 737.6796875 54.8408203125 737.6796875 15.400390625 744.479492188 c 1,20,-1
 322.080078125 744.479492188 l 1,21,22
 262.240234375 734.959960938 262.240234375 734.959960938 262.240234375 696.879882812 c 0,23,24
 262.240234375 662.879882812 262.240234375 662.879882812 304.400390625 595.559570312 c 2,25,-1
 424.080078125 406.520507812 l 1,26,-1
 549.879882812 598.959960938 l 2,27,28
 575.040039062 637.719726562 575.040039062 637.719726562 584.559570312 657.440429688 c 0,29,30
 596.799804688 681.919921875 596.799804688 681.919921875 596.799804688 698.240234375 c 0,31,32
 596.799804688 740.400390625 596.799804688 740.400390625 543.080078125 744.479492188 c 1,33,-1
 773.599609375 744.479492188 l 1,34,35
 728.040039062 735.640625 728.040039062 735.640625 700.83984375 704.359375 c 0,36,37
 675 675.120117188 675 675.120117188 643.040039062 622.759765625 c 2,38,-1
 464.879882812 333.080078125 l 1,0,-1
EndSplineSet
EndChar

StartChar: Z
Encoding: 90 90 59
Width: 640
VWidth: 1145
Flags: W
HStem: -18.48 53.04<174.684 378.451> 692.8 51.68<198.777 396.106>
LayerCount: 2
Fore
SplineSet
512.059570312 -18.4794921875 m 1,0,-1
 -31.9404296875 -18.4794921875 l 1,1,-1
 397.8203125 686.6796875 l 1,2,3
 342.740234375 692.799804688 342.740234375 692.799804688 315.540039062 692.799804688 c 0,4,5
 192.459960938 692.799804688 192.459960938 692.799804688 119.020507812 641.799804688 c 0,6,7
 72.7802734375 609.840820312 72.7802734375 609.840820312 45.580078125 562.240234375 c 0,8,9
 34.7001953125 545.240234375 34.7001953125 545.240234375 20.419921875 507.16015625 c 1,10,-1
 80.259765625 744.479492188 l 1,11,-1
 606.580078125 744.479492188 l 1,12,-1
 172.740234375 39.3203125 l 1,13,14
 235.299804688 34.5595703125 235.299804688 34.5595703125 253.66015625 34.5595703125 c 0,15,16
 401.219726562 34.5595703125 401.219726562 34.5595703125 505.259765625 105.959960938 c 0,17,18
 573.940429688 154.240234375 573.940429688 154.240234375 624.940429688 250.799804688 c 1,19,-1
 512.059570312 -18.4794921875 l 1,0,-1
EndSplineSet
EndChar

StartChar: bracketleft
Encoding: 91 91 60
Width: 411
VWidth: 897
Flags: W
LayerCount: 2
Fore
SplineSet
149.849609375 -121.299804688 m 1,0,-1
 149.849609375 759.299804688 l 1,1,-1
 386.150390625 759.299804688 l 1,2,-1
 386.150390625 623.299804688 l 1,3,-1
 326.650390625 623.299804688 l 1,4,-1
 326.650390625 13.849609375 l 1,5,-1
 386.150390625 13.849609375 l 1,6,-1
 386.150390625 -121.299804688 l 1,7,-1
 149.849609375 -121.299804688 l 1,0,-1
EndSplineSet
EndChar

StartChar: backslash
Encoding: 92 92 61
Width: 391
VWidth: 897
Flags: W
LayerCount: 2
Fore
SplineSet
262.224609375 -37.0751953125 m 1,0,-1
 42.0751953125 676.075195312 l 1,1,-1
 162.775390625 676.075195312 l 1,2,-1
 382.924804688 -37.0751953125 l 1,3,-1
 262.224609375 -37.0751953125 l 1,0,-1
EndSplineSet
EndChar

StartChar: bracketright
Encoding: 93 93 62
Width: 398
VWidth: 897
Flags: W
LayerCount: 2
Fore
SplineSet
48.775390625 -121.299804688 m 1,0,-1
 48.775390625 13.849609375 l 1,1,-1
 107.424804688 13.849609375 l 1,2,-1
 107.424804688 623.299804688 l 1,3,-1
 48.775390625 623.299804688 l 1,4,-1
 48.775390625 759.299804688 l 1,5,-1
 284.224609375 759.299804688 l 1,6,-1
 284.224609375 -121.299804688 l 1,7,-1
 48.775390625 -121.299804688 l 1,0,-1
EndSplineSet
EndChar

StartChar: asciicircum
Encoding: 94 94 63
Width: 407
VWidth: 925
Flags: W
LayerCount: 2
Fore
SplineSet
249.900390625 384.625 m 1,0,-1
 217.599609375 524.025390625 l 1,1,-1
 186.150390625 384.625 l 1,2,-1
 79.900390625 384.625 l 1,3,-1
 140.25 618.375 l 1,4,-1
 302.599609375 618.375 l 1,5,-1
 362.099609375 384.625 l 1,6,-1
 249.900390625 384.625 l 1,0,-1
EndSplineSet
EndChar

StartChar: underscore
Encoding: 95 95 64
Width: 508
VWidth: 838
Flags: W
LayerCount: 2
Fore
SplineSet
39.5498046875 -111 m 1,0,-1
 39.5498046875 -43 l 1,1,-1
 510.450195312 -43 l 1,2,-1
 510.450195312 -111 l 1,3,-1
 39.5498046875 -111 l 1,0,-1
EndSplineSet
EndChar

StartChar: grave
Encoding: 96 96 65
Width: 295
VWidth: 960
Flags: W
LayerCount: 2
Fore
SplineSet
41.224609375 708.474609375 m 1,0,-1
 41.224609375 798.575195312 l 1,1,-1
 281.775390625 739.924804688 l 1,2,-1
 281.775390625 680.424804688 l 1,3,-1
 41.224609375 708.474609375 l 1,0,-1
EndSplineSet
EndChar

StartChar: a
Encoding: 97 97 66
Width: 725
VWidth: 1329
Flags: W
LayerCount: 2
Fore
SplineSet
447.063476562 354.931640625 m 1,0,-1
 371.991210938 536.083984375 l 1,1,-1
 290.391601562 354.931640625 l 1,2,-1
 447.063476562 354.931640625 l 1,0,-1
278.967773438 328.8203125 m 1,3,-1
 189.208007812 131.348632812 l 2,4,5
 172.071289062 93.8115234375 172.071289062 93.8115234375 224.704101562 66.4755859375 c 128,-1,6
 277.3359375 39.140625 277.3359375 39.140625 289.575195312 29.3486328125 c 1,7,-1
 16.2158203125 29.3486328125 l 1,8,9
 35.7998046875 43.2197265625 35.7998046875 43.2197265625 74.5595703125 70.9638671875 c 128,-1,10
 113.3203125 98.7080078125 113.3203125 98.7080078125 129.640625 119.924804688 c 0,11,12
 150.040039062 146.8515625 150.040039062 146.8515625 153.711914062 157.05078125 c 128,-1,13
 157.383789062 167.250976562 157.383789062 167.250976562 157.383789062 167.250976562 c 1,14,-1
 398.919921875 697.651367188 l 1,15,-1
 695.944335938 104.419921875 l 1,16,17
 695.944335938 104.419921875 695.944335938 104.419921875 707.368164062 84.4287109375 c 128,-1,18
 718.791992188 64.4365234375 718.791992188 64.4365234375 743.271484375 53.01171875 c 0,19,20
 763.671875 42.404296875 763.671875 42.404296875 775.50390625 36.2841796875 c 128,-1,21
 787.3359375 30.1640625 787.3359375 30.1640625 789.784179688 29.3486328125 c 2,22,-1
 491.12890625 29.3486328125 l 2,23,24
 498.471679688 30.1640625 498.471679688 30.1640625 522.544921875 40.771484375 c 128,-1,25
 546.616210938 51.3798828125 546.616210938 51.3798828125 549.063476562 68.515625 c 256,26,27
 551.51171875 85.6513671875 551.51171875 85.6513671875 521.3203125 163.171875 c 128,-1,28
 491.12890625 240.69140625 491.12890625 240.69140625 456.85546875 328.8203125 c 1,29,-1
 278.967773438 328.8203125 l 1,3,-1
EndSplineSet
EndChar

StartChar: b
Encoding: 98 98 67
Width: 714
VWidth: 1329
Flags: W
LayerCount: 2
Fore
SplineSet
494.95703125 407.971679688 m 1,0,1
 568.397460938 394.099609375 568.397460938 394.099609375 605.1171875 366.35546875 c 0,2,3
 667.133789062 315.763671875 667.133789062 315.763671875 667.133789062 222.740234375 c 0,4,5
 667.133789062 122.37109375 667.133789062 122.37109375 596.140625 67.7001953125 c 0,6,7
 546.365234375 29.3486328125 546.365234375 29.3486328125 443.548828125 29.3486328125 c 2,8,-1
 95.1171875 29.3486328125 l 2,9,10
 86.95703125 29.3486328125 86.95703125 29.3486328125 140.405273438 46.8916015625 c 128,-1,11
 193.853515625 64.4365234375 193.853515625 64.4365234375 193.853515625 140.32421875 c 2,12,-1
 193.853515625 582.595703125 l 2,13,14
 193.853515625 659.299804688 193.853515625 659.299804688 139.58984375 678.475585938 c 128,-1,15
 85.326171875 697.651367188 85.326171875 697.651367188 92.6689453125 697.651367188 c 2,16,-1
 536.573242188 697.651367188 l 2,17,18
 575.741210938 697.651367188 575.741210938 697.651367188 600.221679688 644.611328125 c 0,19,20
 618.989257812 603.811523438 618.989257812 603.811523438 618.989257812 554.036132812 c 0,21,22
 618.989257812 496.099609375 618.989257812 496.099609375 588.796875 461.828125 c 0,23,24
 559.421875 425.924804688 559.421875 425.924804688 494.95703125 407.971679688 c 1,0,1
307.27734375 426.740234375 m 1,25,26
 361.94921875 426.740234375 361.94921875 426.740234375 394.58984375 430.00390625 c 0,27,28
 419.069335938 432.451171875 419.069335938 432.451171875 445.181640625 442.244140625 c 0,29,30
 524.333984375 468.35546875 524.333984375 468.35546875 524.333984375 546.69140625 c 0,31,32
 524.333984375 613.604492188 524.333984375 613.604492188 473.741210938 646.244140625 c 0,33,34
 440.28515625 667.459960938 440.28515625 667.459960938 363.581054688 667.459960938 c 0,35,36
 348.893554688 667.459960938 348.893554688 667.459960938 334.205078125 666.64453125 c 2,37,-1
 307.27734375 665.01171875 l 1,38,-1
 307.27734375 426.740234375 l 1,25,26
307.27734375 383.491210938 m 1,39,-1
 307.27734375 193.364257812 l 2,40,41
 307.27734375 122.37109375 307.27734375 122.37109375 309.725585938 109.31640625 c 0,42,43
 310.541015625 93.8115234375 310.541015625 93.8115234375 317.885742188 83.2041015625 c 0,44,45
 332.573242188 59.5400390625 332.573242188 59.5400390625 410.91015625 59.5400390625 c 0,46,47
 570.030273438 59.5400390625 570.030273438 59.5400390625 570.030273438 214.580078125 c 0,48,49
 570.030273438 318.211914062 570.030273438 318.211914062 502.301757812 355.749023438 c 0,50,51
 445.181640625 387.571289062 445.181640625 387.571289062 346.4453125 384.30859375 c 1,52,-1
 334.205078125 383.491210938 l 1,53,-1
 307.27734375 383.491210938 l 1,39,-1
EndSplineSet
EndChar

StartChar: c
Encoding: 99 99 68
Width: 676
VWidth: 1308
Flags: W
LayerCount: 2
Fore
SplineSet
85.333984375 334.232421875 m 0,0,1
 85.333984375 486.82421875 85.333984375 486.82421875 181.622070312 582.295898438 c 0,2,3
 278.725585938 676.951171875 278.725585938 676.951171875 445.189453125 676.951171875 c 0,4,5
 489.254882812 676.951171875 489.254882812 676.951171875 532.501953125 664.711914062 c 128,-1,6
 575.75 652.471679688 575.75 652.471679688 623.89453125 645.12890625 c 2,7,-1
 654.901367188 641.048828125 l 1,8,-1
 673.670898438 477.032226562 l 2,9,10
 674.485351562 463.16015625 674.485351562 463.16015625 635.725585938 524.359375 c 128,-1,11
 596.966796875 585.559570312 596.966796875 585.559570312 572.485351562 602.6953125 c 0,12,13
 521.077148438 636.151367188 521.077148438 636.151367188 454.981445312 636.151367188 c 0,14,15
 404.389648438 636.151367188 404.389648438 636.151367188 363.58984375 617.383789062 c 0,16,17
 320.341796875 599.431640625 320.341796875 599.431640625 291.78125 564.344726562 c 0,18,19
 224.870117188 486.008789062 224.870117188 486.008789062 224.870117188 349.736328125 c 0,20,21
 224.870117188 149 224.870117188 149 312.997070312 45.3681640625 c 128,-1,22
 401.125976562 -58.263671875 401.125976562 -58.263671875 602.677734375 -174.951171875 c 1,23,24
 419.89453125 -122.728515625 419.89453125 -122.728515625 252.614257812 -11.3447265625 c 128,-1,25
 85.333984375 100.040039062 85.333984375 100.040039062 85.333984375 334.232421875 c 0,0,1
EndSplineSet
EndChar

StartChar: d
Encoding: 100 100 69
Width: 748
VWidth: 1329
Flags: W
LayerCount: 2
Fore
SplineSet
23.740234375 697.651367188 m 1,0,-1
 399.916015625 697.651367188 l 2,1,2
 507.62890625 697.651367188 507.62890625 697.651367188 562.299804688 669.908203125 c 0,3,4
 632.475585938 634.00390625 632.475585938 634.00390625 673.275390625 551.587890625 c 0,5,6
 713.259765625 468.35546875 713.259765625 468.35546875 713.259765625 363.091796875 c 256,7,8
 713.259765625 257.828125 713.259765625 257.828125 673.275390625 175.412109375 c 0,9,10
 632.475585938 92.1796875 632.475585938 92.1796875 562.299804688 57.091796875 c 0,11,12
 507.62890625 29.3486328125 507.62890625 29.3486328125 399.916015625 29.3486328125 c 2,13,-1
 23.740234375 29.3486328125 l 1,14,15
 84.9404296875 51.3798828125 84.9404296875 51.3798828125 112.68359375 68.515625 c 128,-1,16
 140.428710938 85.6513671875 140.428710938 85.6513671875 140.428710938 201.524414062 c 2,17,-1
 140.428710938 525.475585938 l 2,18,19
 140.428710938 640.532226562 140.428710938 640.532226562 112.68359375 658.075195312 c 128,-1,20
 84.9404296875 675.620117188 84.9404296875 675.620117188 23.740234375 697.651367188 c 1,0,-1
585.963867188 363.091796875 m 256,21,22
 585.963867188 536.900390625 585.963867188 536.900390625 491.30859375 612.788085938 c 0,23,24
 457.036132812 638.083984375 457.036132812 638.083984375 419.5 648.69140625 c 0,25,26
 381.1484375 660.116210938 381.1484375 660.116210938 319.94921875 660.116210938 c 0,27,28
 285.67578125 660.116210938 285.67578125 660.116210938 238.348632812 655.219726562 c 1,29,-1
 238.348632812 71.7802734375 l 1,30,31
 285.67578125 66.8837890625 285.67578125 66.8837890625 319.94921875 66.8837890625 c 0,32,33
 381.1484375 66.8837890625 381.1484375 66.8837890625 419.5 78.30859375 c 0,34,35
 457.036132812 88.099609375 457.036132812 88.099609375 491.30859375 114.211914062 c 0,36,37
 585.963867188 189.284179688 585.963867188 189.284179688 585.963867188 363.091796875 c 256,21,22
EndSplineSet
EndChar

StartChar: e
Encoding: 101 101 70
Width: 689
VWidth: 1329
Flags: W
LayerCount: 2
Fore
SplineSet
550.736328125 697.651367188 m 1,0,-1
 601.328125 496.099609375 l 1,1,2
 601.328125 496.099609375 601.328125 496.099609375 593.575195312 512.419921875 c 128,-1,3
 585.82421875 528.740234375 585.82421875 528.740234375 562.16015625 571.98828125 c 0,4,5
 537.6796875 614.419921875 537.6796875 614.419921875 518.095703125 626.250976562 c 128,-1,6
 498.51171875 638.083984375 498.51171875 638.083984375 498.51171875 638.083984375 c 1,7,-1
 247.18359375 638.083984375 l 1,8,-1
 247.18359375 436.532226562 l 1,9,-1
 372.032226562 436.532226562 l 1,10,11
 372.032226562 436.532226562 372.032226562 436.532226562 376.520507812 436.532226562 c 128,-1,12
 381.008789062 436.532226562 381.008789062 436.532226562 395.6953125 442.244140625 c 256,13,14
 410.383789062 447.955078125 410.383789062 447.955078125 434.864257812 492.428710938 c 128,-1,15
 459.344726562 536.900390625 459.344726562 536.900390625 459.344726562 536.900390625 c 1,16,17
 459.344726562 506.708007812 459.344726562 506.708007812 454.85546875 475.291992188 c 128,-1,18
 450.368164062 443.875976562 450.368164062 443.875976562 450.368164062 414.5 c 0,19,20
 450.368164062 380.228515625 450.368164062 380.228515625 454.85546875 348.404296875 c 128,-1,21
 459.344726562 316.580078125 459.344726562 316.580078125 459.344726562 283.940429688 c 1,22,23
 459.344726562 283.940429688 459.344726562 283.940429688 434.864257812 327.595703125 c 128,-1,24
 410.383789062 371.250976562 410.383789062 371.250976562 395.6953125 377.780273438 c 0,25,26
 381.008789062 382.67578125 381.008789062 382.67578125 376.520507812 383.083984375 c 128,-1,27
 372.032226562 383.491210938 372.032226562 383.491210938 372.032226562 383.491210938 c 1,28,-1
 247.18359375 383.491210938 l 1,29,-1
 247.18359375 372.883789062 l 1,30,-1
 247.18359375 119.108398438 l 1,31,-1
 480.559570312 119.108398438 l 1,32,33
 480.559570312 119.108398438 480.559570312 119.108398438 500.14453125 129.30859375 c 128,-1,34
 519.728515625 139.508789062 519.728515625 139.508789062 546.655273438 165.620117188 c 0,35,36
 572.767578125 190.916015625 572.767578125 190.916015625 615.608398438 261.091796875 c 128,-1,37
 658.44921875 331.267578125 658.44921875 331.267578125 658.44921875 331.267578125 c 257,38,39
 658.44921875 331.267578125 658.44921875 331.267578125 640.904296875 269.250976562 c 128,-1,40
 623.359375 207.236328125 623.359375 207.236328125 610.3046875 171.33203125 c 0,41,42
 596.431640625 134.611328125 596.431640625 134.611328125 582.151367188 81.9794921875 c 128,-1,43
 567.87109375 29.3486328125 567.87109375 29.3486328125 555.631835938 29.3486328125 c 2,44,-1
 41.5517578125 29.3486328125 l 1,45,-1
 91.328125 54.64453125 l 2,46,47
 119.071289062 68.515625 119.071289062 68.515625 129.271484375 81.9794921875 c 128,-1,48
 139.471679688 95.4443359375 139.471679688 95.4443359375 139.471679688 95.4443359375 c 1,49,-1
 139.471679688 631.555664062 l 1,50,51
 139.471679688 631.555664062 139.471679688 631.555664062 134.575195312 640.124023438 c 128,-1,52
 129.6796875 648.69140625 129.6796875 648.69140625 121.520507812 663.379882812 c 0,53,54
 112.544921875 676.436523438 112.544921875 676.436523438 82.759765625 687.044921875 c 128,-1,55
 52.9755859375 697.651367188 52.9755859375 697.651367188 52.9755859375 697.651367188 c 1,56,-1
 550.736328125 697.651367188 l 1,0,-1
EndSplineSet
EndChar

StartChar: f
Encoding: 102 102 71
Width: 664
VWidth: 1329
Flags: W
LayerCount: 2
Fore
SplineSet
586.295898438 697.651367188 m 1,0,-1
 636.888671875 496.099609375 l 1,1,2
 636.888671875 496.099609375 636.888671875 496.099609375 629.135742188 512.419921875 c 128,-1,3
 621.383789062 528.740234375 621.383789062 528.740234375 597.719726562 571.98828125 c 0,4,5
 573.240234375 614.419921875 573.240234375 614.419921875 553.655273438 626.250976562 c 128,-1,6
 534.071289062 638.083984375 534.071289062 638.083984375 534.071289062 638.083984375 c 1,7,-1
 282.744140625 638.083984375 l 1,8,-1
 282.744140625 436.532226562 l 1,9,-1
 408.408203125 436.532226562 l 1,10,11
 408.408203125 436.532226562 408.408203125 436.532226562 412.48828125 436.532226562 c 128,-1,12
 416.568359375 436.532226562 416.568359375 436.532226562 431.255859375 442.244140625 c 256,13,14
 445.944335938 447.955078125 445.944335938 447.955078125 470.83203125 492.428710938 c 128,-1,15
 495.719726562 536.900390625 495.719726562 536.900390625 495.719726562 536.900390625 c 1,16,17
 495.719726562 506.708007812 495.719726562 506.708007812 491.232421875 475.291992188 c 128,-1,18
 486.744140625 443.875976562 486.744140625 443.875976562 486.744140625 414.5 c 0,19,20
 486.744140625 380.228515625 486.744140625 380.228515625 491.232421875 348.404296875 c 128,-1,21
 495.719726562 316.580078125 495.719726562 316.580078125 495.719726562 283.940429688 c 1,22,23
 495.719726562 283.940429688 495.719726562 283.940429688 470.83203125 327.595703125 c 128,-1,24
 445.944335938 371.250976562 445.944335938 371.250976562 431.255859375 377.780273438 c 0,25,26
 416.568359375 382.67578125 416.568359375 382.67578125 412.48828125 383.083984375 c 128,-1,27
 408.408203125 383.491210938 408.408203125 383.491210938 408.408203125 383.491210938 c 1,28,-1
 282.744140625 383.491210938 l 1,29,-1
 282.744140625 372.883789062 l 1,30,-1
 282.744140625 186.8359375 l 1,31,-1
 282.744140625 119.108398438 l 1,32,-1
 282.744140625 95.4443359375 l 1,33,34
 282.744140625 95.4443359375 282.744140625 95.4443359375 292.536132812 81.9794921875 c 128,-1,35
 302.328125 68.515625 302.328125 68.515625 330.888671875 54.64453125 c 2,36,-1
 380.6640625 29.3486328125 l 1,37,-1
 282.744140625 29.3486328125 l 1,38,-1
 175.032226562 29.3486328125 l 1,39,-1
 77.111328125 29.3486328125 l 1,40,-1
 126.888671875 54.64453125 l 2,41,42
 154.631835938 68.515625 154.631835938 68.515625 164.83203125 81.9794921875 c 128,-1,43
 175.032226562 95.4443359375 175.032226562 95.4443359375 175.032226562 95.4443359375 c 257,44,45
 175.032226562 95.4443359375 175.032226562 95.4443359375 175.032226562 95.4443359375 c 129,-1,46
 175.032226562 95.4443359375 175.032226562 95.4443359375 175.032226562 95.4443359375 c 1,47,-1
 175.032226562 119.108398438 l 1,48,-1
 175.032226562 186.8359375 l 1,49,-1
 175.032226562 631.555664062 l 1,50,51
 175.032226562 631.555664062 175.032226562 631.555664062 170.135742188 640.124023438 c 128,-1,52
 165.240234375 648.69140625 165.240234375 648.69140625 157.080078125 663.379882812 c 0,53,54
 148.104492188 676.436523438 148.104492188 676.436523438 118.3203125 687.044921875 c 128,-1,55
 88.5361328125 697.651367188 88.5361328125 697.651367188 88.5361328125 697.651367188 c 1,56,-1
 586.295898438 697.651367188 l 1,0,-1
EndSplineSet
EndChar

StartChar: g
Encoding: 103 103 72
Width: 735
VWidth: 1302
Flags: W
LayerCount: 2
Fore
SplineSet
611.611328125 32.412109375 m 1,0,1
 531.642578125 3.0361328125 531.642578125 3.0361328125 446.779296875 3.0361328125 c 0,2,3
 312.955078125 3.0361328125 312.955078125 3.0361328125 228.091796875 73.2119140625 c 0,4,5
 176.682617188 114.01171875 176.682617188 114.01171875 151.387695312 176.028320312 c 0,6,7
 122.01171875 247.020507812 122.01171875 247.020507812 122.01171875 328.620117188 c 0,8,9
 122.01171875 482.028320312 122.01171875 482.028320312 217.483398438 576.68359375 c 0,10,11
 315.403320312 671.33984375 315.403320312 671.33984375 481.8671875 671.33984375 c 0,12,13
 525.116210938 671.33984375 525.116210938 671.33984375 568.36328125 659.099609375 c 128,-1,14
 611.611328125 646.859375 611.611328125 646.859375 659.754882812 639.515625 c 2,15,-1
 691.580078125 635.436523438 l 1,16,-1
 709.532226562 471.419921875 l 2,17,18
 711.163085938 457.548828125 711.163085938 457.548828125 672.403320312 518.749023438 c 128,-1,19
 633.642578125 579.94921875 633.642578125 579.94921875 609.163085938 597.083984375 c 0,20,21
 556.940429688 630.540039062 556.940429688 630.540039062 490.842773438 630.540039062 c 0,22,23
 440.250976562 630.540039062 440.250976562 630.540039062 399.451171875 611.771484375 c 0,24,25
 355.387695312 593.00390625 355.387695312 593.00390625 327.642578125 558.732421875 c 0,26,27
 260.731445312 478.763671875 260.731445312 478.763671875 260.731445312 344.124023438 c 0,28,29
 260.731445312 260.075195312 260.731445312 260.075195312 287.659179688 189.083984375 c 0,30,31
 310.5078125 124.620117188 310.5078125 124.620117188 361.099609375 87.083984375 c 0,32,33
 407.611328125 50.3642578125 407.611328125 50.3642578125 470.442382812 50.3642578125 c 0,34,35
 495.740234375 50.3642578125 495.740234375 50.3642578125 529.1953125 56.0751953125 c 128,-1,36
 562.651367188 61.7880859375 562.651367188 61.7880859375 580.603515625 74.0283203125 c 0,37,38
 603.451171875 87.083984375 603.451171875 87.083984375 607.532226562 112.379882812 c 0,39,40
 612.427734375 149.099609375 612.427734375 149.099609375 612.427734375 199.69140625 c 128,-1,41
 612.427734375 250.284179688 612.427734375 250.284179688 603.451171875 282.108398438 c 0,42,43
 598.555664062 299.244140625 598.555664062 299.244140625 566.731445312 310.66796875 c 128,-1,44
 534.907226562 322.091796875 534.907226562 322.091796875 519.403320312 330.250976562 c 1,45,-1
 791.131835938 333.515625 l 2,46,47
 808.266601562 333.515625 808.266601562 333.515625 767.466796875 319.64453125 c 128,-1,48
 726.666992188 305.771484375 726.666992188 305.771484375 716.875 294.348632812 c 0,49,50
 706.266601562 282.108398438 706.266601562 282.108398438 705.451171875 266.604492188 c 0,51,52
 698.923828125 192.348632812 698.923828125 192.348632812 706.266601562 107.891601562 c 128,-1,53
 713.611328125 23.4365234375 713.611328125 23.4365234375 694.02734375 -48.37109375 c 0,54,55
 672.811523438 -125.891601562 672.811523438 -125.891601562 610.387695312 -162.204101562 c 128,-1,56
 547.962890625 -198.515625 547.962890625 -198.515625 489.211914062 -230.33984375 c 1,57,58
 528.379882812 -183.828125 528.379882812 -183.828125 553.266601562 -161.388671875 c 128,-1,59
 578.155273438 -138.94921875 578.155273438 -138.94921875 604.266601562 -85.091796875 c 0,60,61
 608.346679688 -76.1162109375 608.346679688 -76.1162109375 610.795898438 -50.8203125 c 0,62,63
 611.611328125 -41.0283203125 611.611328125 -41.0283203125 611.611328125 32.412109375 c 1,0,1
EndSplineSet
EndChar

StartChar: h
Encoding: 104 104 73
Width: 654
VWidth: 1329
Flags: W
LayerCount: 2
Fore
SplineSet
556.955078125 29.3486328125 m 1,0,-1
 422.31640625 30.1640625 l 1,1,2
 422.31640625 30.1640625 422.31640625 30.1640625 441.900390625 37.916015625 c 128,-1,3
 461.484375 45.66796875 461.484375 45.66796875 475.35546875 56.275390625 c 0,4,5
 488.412109375 66.068359375 488.412109375 66.068359375 497.795898438 90.140625 c 128,-1,6
 507.1796875 114.211914062 507.1796875 114.211914062 507.1796875 114.211914062 c 1,7,-1
 507.1796875 390.8359375 l 1,8,-1
 233.8203125 390.8359375 l 1,9,-1
 233.8203125 114.211914062 l 1,10,11
 233.8203125 114.211914062 233.8203125 114.211914062 242.795898438 90.140625 c 128,-1,12
 251.771484375 66.068359375 251.771484375 66.068359375 265.64453125 56.275390625 c 0,13,14
 278.700195312 45.66796875 278.700195312 45.66796875 298.69140625 37.916015625 c 128,-1,15
 318.68359375 30.1640625 318.68359375 30.1640625 318.68359375 30.1640625 c 1,16,-1
 184.044921875 29.3486328125 l 1,17,-1
 48.587890625 30.1640625 l 1,18,19
 48.587890625 30.1640625 48.587890625 30.1640625 68.580078125 37.916015625 c 128,-1,20
 88.5712890625 45.66796875 88.5712890625 45.66796875 102.444335938 56.275390625 c 0,21,22
 114.68359375 66.068359375 114.68359375 66.068359375 124.475585938 90.140625 c 128,-1,23
 134.267578125 114.211914062 134.267578125 114.211914062 134.267578125 114.211914062 c 1,24,-1
 134.267578125 603.811523438 l 1,25,26
 134.267578125 603.811523438 134.267578125 603.811523438 133.451171875 619.31640625 c 128,-1,27
 132.635742188 634.8203125 132.635742188 634.8203125 127.740234375 651.955078125 c 256,28,29
 122.844726562 669.091796875 122.844726562 669.091796875 88.1640625 683.37109375 c 128,-1,30
 53.484375 697.651367188 53.484375 697.651367188 53.484375 697.651367188 c 1,31,-1
 184.044921875 697.651367188 l 1,32,-1
 314.604492188 697.651367188 l 1,33,34
 314.604492188 697.651367188 314.604492188 697.651367188 279.515625 683.37109375 c 128,-1,35
 244.428710938 669.091796875 244.428710938 669.091796875 239.532226562 651.955078125 c 256,36,37
 234.635742188 634.8203125 234.635742188 634.8203125 234.228515625 619.31640625 c 128,-1,38
 233.8203125 603.811523438 233.8203125 603.811523438 233.8203125 603.811523438 c 1,39,-1
 233.8203125 433.267578125 l 1,40,-1
 507.1796875 433.267578125 l 1,41,-1
 507.1796875 603.811523438 l 1,42,43
 507.1796875 603.811523438 507.1796875 603.811523438 506.364257812 619.31640625 c 128,-1,44
 505.548828125 634.8203125 505.548828125 634.8203125 500.651367188 651.955078125 c 256,45,46
 495.755859375 669.091796875 495.755859375 669.091796875 461.484375 683.37109375 c 128,-1,47
 427.211914062 697.651367188 427.211914062 697.651367188 427.211914062 697.651367188 c 1,48,-1
 556.955078125 697.651367188 l 1,49,-1
 687.515625 697.651367188 l 1,50,51
 687.515625 697.651367188 687.515625 697.651367188 652.428710938 683.37109375 c 128,-1,52
 617.33984375 669.091796875 617.33984375 669.091796875 613.259765625 651.955078125 c 0,53,54
 608.364257812 634.8203125 608.364257812 634.8203125 607.548828125 619.31640625 c 128,-1,55
 606.731445312 603.811523438 606.731445312 603.811523438 606.731445312 603.811523438 c 1,56,-1
 606.731445312 114.211914062 l 1,57,58
 606.731445312 114.211914062 606.731445312 114.211914062 616.116210938 90.140625 c 128,-1,59
 625.5 66.068359375 625.5 66.068359375 638.555664062 56.275390625 c 0,60,61
 651.611328125 45.66796875 651.611328125 45.66796875 672.01171875 37.916015625 c 128,-1,62
 692.412109375 30.1640625 692.412109375 30.1640625 692.412109375 30.1640625 c 1,63,-1
 556.955078125 29.3486328125 l 1,0,-1
EndSplineSet
EndChar

StartChar: i
Encoding: 105 105 74
Width: 313
VWidth: 1322
Flags: W
LayerCount: 2
Fore
SplineSet
-30.6083984375 691.48828125 m 1,0,-1
 398.608398438 691.48828125 l 1,1,2
 398.608398438 691.48828125 398.608398438 691.48828125 334.959960938 682.51171875 c 128,-1,3
 271.311523438 673.536132812 271.311523438 673.536132812 263.967773438 656.400390625 c 0,4,5
 256.624023438 637.631835938 256.624023438 637.631835938 255.400390625 631.51171875 c 128,-1,6
 254.17578125 625.391601562 254.17578125 625.391601562 254.17578125 625.391601562 c 257,7,8
 254.17578125 625.391601562 254.17578125 625.391601562 238.671875 508.704101562 c 128,-1,9
 223.16796875 392.015625 223.16796875 392.015625 219.904296875 303.071289062 c 2,10,-1
 206.848632812 -31.48828125 l 1,11,-1
 159.520507812 -31.48828125 l 1,12,-1
 147.280273438 305.520507812 l 2,13,14
 147.280273438 394.463867188 147.280273438 394.463867188 130.14453125 509.928710938 c 128,-1,15
 113.008789062 625.391601562 113.008789062 625.391601562 113.008789062 625.391601562 c 257,16,17
 113.008789062 625.391601562 113.008789062 625.391601562 111.375976562 631.51171875 c 128,-1,18
 109.744140625 637.631835938 109.744140625 637.631835938 102.400390625 656.400390625 c 0,19,20
 95.0556640625 673.536132812 95.0556640625 673.536132812 32.224609375 682.51171875 c 128,-1,21
 -30.6083984375 691.48828125 -30.6083984375 691.48828125 -30.6083984375 691.48828125 c 1,0,-1
EndSplineSet
EndChar

StartChar: j
Encoding: 106 106 75
Width: 356
VWidth: 1309
Flags: W
LayerCount: 2
Fore
SplineSet
237.638671875 559.563476562 m 2,0,-1
 237.638671875 239.69140625 l 1,1,-1
 237.638671875 128.715820312 l 2,2,3
 237.638671875 57.724609375 237.638671875 57.724609375 227.030273438 24.2685546875 c 0,4,5
 204.182617188 -53.2509765625 204.182617188 -53.2509765625 136.046875 -89.5634765625 c 128,-1,6
 67.91015625 -125.875976562 67.91015625 -125.875976562 4.2626953125 -157.700195312 c 1,7,8
 45.87890625 -111.188476562 45.87890625 -111.188476562 73.21484375 -88.7490234375 c 128,-1,9
 100.549804688 -66.30859375 100.549804688 -66.30859375 129.110351562 -12.451171875 c 0,10,11
 134.006835938 -3.4755859375 134.006835938 -3.4755859375 136.454101562 21.8203125 c 0,12,13
 137.270507812 31.611328125 137.270507812 31.611328125 137.270507812 110.763671875 c 2,14,-1
 137.270507812 239.69140625 l 1,15,-1
 137.270507812 559.563476562 l 2,16,17
 137.270507812 621.580078125 137.270507812 621.580078125 134.006835938 627.291992188 c 2,18,-1
 121.766601562 649.32421875 l 1,19,-1
 40.1669921875 678.700195312 l 1,20,-1
 333.110351562 678.700195312 l 2,21,22
 342.903320312 678.700195312 342.903320312 678.700195312 294.758789062 661.563476562 c 128,-1,23
 246.614257812 644.428710938 246.614257812 644.428710938 245.798828125 641.1640625 c 0,24,25
 238.454101562 625.66015625 238.454101562 625.66015625 237.638671875 559.563476562 c 2,0,-1
EndSplineSet
EndChar

StartChar: k
Encoding: 107 107 76
Width: 849
VWidth: 1329
Flags: W
LayerCount: 2
Fore
SplineSet
337.369140625 373.700195312 m 1,0,-1
 337.369140625 186.020507812 l 2,1,2
 337.369140625 115.844726562 337.369140625 115.844726562 339 102.788085938 c 0,3,4
 341.44921875 76.67578125 341.44921875 76.67578125 347.975585938 71.7802734375 c 2,5,-1
 361.848632812 59.5400390625 l 1,6,-1
 440.184570312 30.9794921875 l 1,7,-1
 116.233398438 30.9794921875 l 2,8,9
 111.336914062 30.9794921875 111.336914062 30.9794921875 159.073242188 48.5244140625 c 128,-1,10
 206.80859375 66.068359375 206.80859375 66.068359375 210.888671875 75.044921875 c 0,11,12
 218.233398438 92.1796875 218.233398438 92.1796875 218.233398438 186.8359375 c 2,13,-1
 218.233398438 527.108398438 l 2,14,15
 218.233398438 613.604492188 218.233398438 613.604492188 216.600585938 620.94921875 c 2,16,-1
 209.256835938 652.771484375 l 1,17,-1
 116.233398438 696.8359375 l 1,18,-1
 442.6328125 697.651367188 l 1,19,-1
 347.161132812 653.587890625 l 2,20,21
 337.369140625 648.69140625 337.369140625 648.69140625 337.369140625 578.515625 c 2,22,-1
 337.369140625 407.971679688 l 1,23,-1
 600.120117188 625.028320312 l 1,24,-1
 627.865234375 659.299804688 l 1,25,-1
 543.81640625 695.204101562 l 1,26,-1
 843.288085938 696.020507812 l 1,27,-1
 729.865234375 655.219726562 l 2,28,29
 714.360351562 649.508789062 714.360351562 649.508789062 691.512695312 632.37109375 c 128,-1,30
 668.665039062 615.236328125 668.665039062 615.236328125 636.840820312 591.571289062 c 2,31,-1
 412.440429688 421.028320312 l 1,32,-1
 761.688476562 79.1240234375 l 1,33,-1
 872.665039062 29.3486328125 l 1,34,-1
 571.560546875 30.1640625 l 1,35,-1
 638.473632812 65.2509765625 l 1,36,-1
 337.369140625 373.700195312 l 1,0,-1
EndSplineSet
EndChar

StartChar: l
Encoding: 108 108 77
Width: 673
VWidth: 1329
Flags: W
LayerCount: 2
Fore
SplineSet
68.9755859375 697.651367188 m 1,0,1
 140.784179688 697.651367188 140.784179688 697.651367188 199.944335938 697.651367188 c 128,-1,2
 259.104492188 697.651367188 259.104492188 697.651367188 331.728515625 697.651367188 c 1,3,4
 321.936523438 691.940429688 321.936523438 691.940429688 308.471679688 682.555664062 c 128,-1,5
 295.008789062 673.171875 295.008789062 673.171875 285.215820312 660.931640625 c 0,6,7
 275.424804688 647.875976562 275.424804688 647.875976562 271.344726562 637.267578125 c 128,-1,8
 267.263671875 626.66015625 267.263671875 626.66015625 267.263671875 626.66015625 c 1,9,-1
 267.263671875 109.31640625 l 1,10,-1
 496.559570312 109.31640625 l 1,11,12
 496.559570312 109.31640625 496.559570312 109.31640625 516.14453125 119.515625 c 128,-1,13
 535.728515625 129.715820312 535.728515625 129.715820312 562.655273438 155.828125 c 0,14,15
 588.767578125 181.124023438 588.767578125 181.124023438 631.608398438 251.299804688 c 128,-1,16
 674.44921875 321.475585938 674.44921875 321.475585938 674.44921875 321.475585938 c 257,17,18
 674.44921875 321.475585938 674.44921875 321.475585938 656.904296875 259.459960938 c 128,-1,19
 639.359375 197.444335938 639.359375 197.444335938 626.3046875 161.540039062 c 0,20,21
 611.616210938 124.8203125 611.616210938 124.8203125 597.744140625 77.083984375 c 128,-1,22
 583.87109375 29.3486328125 583.87109375 29.3486328125 571.631835938 29.3486328125 c 2,23,-1
 57.5517578125 29.3486328125 l 1,24,-1
 107.328125 54.64453125 l 2,25,26
 135.071289062 68.515625 135.071289062 68.515625 145.271484375 81.9794921875 c 128,-1,27
 155.471679688 95.4443359375 155.471679688 95.4443359375 155.471679688 95.4443359375 c 1,28,-1
 155.471679688 631.555664062 l 1,29,30
 155.471679688 631.555664062 155.471679688 631.555664062 150.575195312 640.124023438 c 128,-1,31
 145.6796875 648.69140625 145.6796875 648.69140625 137.520507812 663.379882812 c 0,32,33
 128.544921875 676.436523438 128.544921875 676.436523438 98.759765625 687.044921875 c 128,-1,34
 68.9755859375 697.651367188 68.9755859375 697.651367188 68.9755859375 697.651367188 c 1,0,1
EndSplineSet
EndChar

StartChar: m
Encoding: 109 109 78
Width: 1000
VWidth: 1325
Flags: W
LayerCount: 2
Fore
SplineSet
369.936523438 693.799804688 m 1,0,-1
 574.752929688 195.224609375 l 1,1,-1
 813.024414062 693.799804688 l 1,2,-1
 1008.04882812 693.799804688 l 2,3,4
 1016.20898438 693.799804688 1016.20898438 693.799804688 956.232421875 675.032226562 c 128,-1,5
 896.256835938 656.263671875 896.256835938 656.263671875 896.256835938 622.80859375 c 0,6,7
 896.256835938 614.6484375 896.256835938 614.6484375 896.256835938 589.3515625 c 128,-1,8
 896.256835938 564.055664062 896.256835938 564.055664062 897.072265625 546.919921875 c 2,9,-1
 900.336914062 191.959960938 l 2,10,11
 900.336914062 74.455078125 900.336914062 74.455078125 916.65625 73.232421875 c 128,-1,12
 932.975585938 72.0087890625 932.975585938 72.0087890625 1006.41601562 30.3916015625 c 1,13,-1
 712.65625 28.759765625 l 2,14,15
 703.680664062 28.759765625 703.680664062 28.759765625 756.720703125 47.1201171875 c 128,-1,16
 809.760742188 65.4794921875 809.760742188 65.4794921875 809.760742188 121.784179688 c 2,17,-1
 806.49609375 484.904296875 l 1,18,-1
 569.041015625 0.2001953125 l 1,19,-1
 326.688476562 512.6484375 l 1,20,-1
 310.369140625 165.032226562 l 2,21,22
 306.2890625 80.984375 306.2890625 80.984375 333.216796875 68.3359375 c 128,-1,23
 360.14453125 55.6884765625 360.14453125 55.6884765625 421.344726562 29.5751953125 c 1,24,-1
 112.080078125 27.9443359375 l 2,25,26
 107.184570312 27.9443359375 107.184570312 27.9443359375 161.44921875 52.4248046875 c 128,-1,27
 215.711914062 76.904296875 215.711914062 76.904296875 221.424804688 167.479492188 c 2,28,-1
 250.80078125 604.040039062 l 2,29,30
 254.065429688 666.055664062 254.065429688 666.055664062 230.400390625 677.888671875 c 128,-1,31
 206.736328125 689.719726562 206.736328125 689.719726562 157.776367188 693.799804688 c 1,32,-1
 369.936523438 693.799804688 l 1,0,-1
EndSplineSet
EndChar

StartChar: n
Encoding: 110 110 79
Width: 758
VWidth: 1329
Flags: W
LayerCount: 2
Fore
SplineSet
273.131835938 697.651367188 m 1,0,-1
 635.436523438 215.395507812 l 1,1,-1
 635.436523438 632.37109375 l 1,2,3
 635.436523438 632.37109375 635.436523438 632.37109375 628.5 643.388671875 c 128,-1,4
 621.563476562 654.404296875 621.563476562 654.404296875 601.1640625 671.540039062 c 0,5,6
 581.580078125 686.228515625 581.580078125 686.228515625 556.284179688 697.651367188 c 1,7,-1
 768.444335938 697.651367188 l 1,8,9
 734.171875 678.068359375 734.171875 678.068359375 720.299804688 660.116210938 c 0,10,11
 708.875976562 644.611328125 708.875976562 644.611328125 705.611328125 634.8203125 c 128,-1,12
 702.348632812 625.028320312 702.348632812 625.028320312 702.348632812 625.028320312 c 1,13,-1
 702.348632812 29.3486328125 l 1,14,-1
 601.979492188 29.3486328125 l 1,15,-1
 242.940429688 549.955078125 l 1,16,-1
 242.940429688 106.868164062 l 1,17,18
 242.940429688 106.868164062 242.940429688 106.868164062 252.732421875 91.3642578125 c 128,-1,19
 262.524414062 75.859375 262.524414062 75.859375 284.555664062 62.8046875 c 0,20,21
 304.140625 49.7490234375 304.140625 49.7490234375 333.924804688 39.955078125 c 128,-1,22
 363.708007812 30.1640625 363.708007812 30.1640625 366.971679688 29.3486328125 c 2,23,-1
 80.5556640625 29.3486328125 l 2,24,25
 83.00390625 30.1640625 83.00390625 30.1640625 111.155273438 39.548828125 c 128,-1,26
 139.30859375 48.931640625 139.30859375 48.931640625 158.891601562 63.6201171875 c 0,27,28
 179.291992188 78.30859375 179.291992188 78.30859375 184.188476562 96.259765625 c 128,-1,29
 189.083984375 114.211914062 189.083984375 114.211914062 189.083984375 114.211914062 c 1,30,-1
 189.083984375 629.108398438 l 1,31,32
 189.083984375 629.108398438 189.083984375 629.108398438 162.563476562 659.708007812 c 128,-1,33
 136.044921875 690.30859375 136.044921875 690.30859375 116.459960938 695.204101562 c 0,34,35
 110.749023438 696.020507812 110.749023438 696.020507812 102.587890625 697.651367188 c 2,36,-1
 273.131835938 697.651367188 l 1,0,-1
EndSplineSet
EndChar

StartChar: o
Encoding: 111 111 80
Width: 754
VWidth: 1329
Flags: W
LayerCount: 2
Fore
SplineSet
435.263671875 697.651367188 m 0,0,1
 501.359375 697.651367188 501.359375 697.651367188 557.6640625 674.8046875 c 0,2,3
 614.784179688 650.32421875 614.784179688 650.32421875 653.951171875 609.524414062 c 0,4,5
 696.383789062 563.828125 696.383789062 563.828125 718.416015625 501.811523438 c 0,6,7
 742.080078125 438.1640625 742.080078125 438.1640625 742.080078125 367.98828125 c 0,8,9
 742.080078125 298.62890625 742.080078125 298.62890625 717.599609375 229.267578125 c 0,10,11
 692.3046875 160.724609375 692.3046875 160.724609375 649.055664062 115.028320312 c 0,12,13
 570.719726562 29.3486328125 570.719726562 29.3486328125 431.18359375 29.3486328125 c 0,14,15
 354.479492188 29.3486328125 354.479492188 29.3486328125 291.6484375 58.724609375 c 0,16,17
 228 87.2841796875 228 87.2841796875 187.200195312 141.955078125 c 0,18,19
 121.919921875 227.635742188 121.919921875 227.635742188 121.919921875 359.01171875 c 0,20,21
 121.919921875 444.69140625 121.919921875 444.69140625 152.111328125 519.763671875 c 0,22,23
 180.671875 590.755859375 180.671875 590.755859375 233.711914062 634.00390625 c 0,24,25
 310.416015625 697.651367188 310.416015625 697.651367188 435.263671875 697.651367188 c 0,0,1
429.551757812 656.8515625 m 0,26,27
 368.3515625 656.8515625 368.3515625 656.8515625 325.919921875 611.155273438 c 0,28,29
 286.750976562 571.98828125 286.750976562 571.98828125 268.799804688 509.155273438 c 0,30,31
 250.032226562 446.32421875 250.032226562 446.32421875 250.032226562 355.749023438 c 0,32,33
 250.032226562 226.00390625 250.032226562 226.00390625 296.544921875 153.379882812 c 0,34,35
 349.583984375 70.1484375 349.583984375 70.1484375 434.44921875 70.1484375 c 0,36,37
 522.575195312 70.1484375 522.575195312 70.1484375 570.719726562 162.35546875 c 0,38,39
 588.671875 197.444335938 588.671875 197.444335938 600.095703125 254.563476562 c 0,40,41
 610.704101562 309.236328125 610.704101562 309.236328125 610.704101562 369.620117188 c 0,42,43
 610.704101562 435.715820312 610.704101562 435.715820312 595.200195312 496.916015625 c 0,44,45
 580.51171875 554.036132812 580.51171875 554.036132812 555.215820312 590.755859375 c 0,46,47
 505.440429688 656.8515625 505.440429688 656.8515625 429.551757812 656.8515625 c 0,26,27
EndSplineSet
EndChar

StartChar: p
Encoding: 112 112 81
Width: 619
VWidth: 1329
Flags: W
LayerCount: 2
Fore
SplineSet
352.075195312 337.795898438 m 0,0,1
 329.228515625 338.611328125 329.228515625 338.611328125 303.931640625 337.795898438 c 2,2,-1
 291.69140625 337.795898438 l 1,3,-1
 263.948242188 337.795898438 l 1,4,-1
 263.948242188 202.33984375 l 1,5,-1
 263.948242188 186.8359375 l 1,6,-1
 263.948242188 119.108398438 l 1,7,-1
 263.948242188 95.4443359375 l 1,8,9
 263.948242188 95.4443359375 263.948242188 95.4443359375 274.555664062 81.9794921875 c 128,-1,10
 285.1640625 68.515625 285.1640625 68.515625 314.540039062 54.64453125 c 2,11,-1
 366.763671875 29.3486328125 l 1,12,-1
 263.948242188 29.3486328125 l 1,13,-1
 151.33984375 29.3486328125 l 1,14,-1
 48.5244140625 29.3486328125 l 1,15,-1
 101.563476562 54.64453125 l 2,16,17
 130.124023438 68.515625 130.124023438 68.515625 140.731445312 81.9794921875 c 128,-1,18
 151.33984375 95.4443359375 151.33984375 95.4443359375 151.33984375 95.4443359375 c 257,19,20
 151.33984375 95.4443359375 151.33984375 95.4443359375 151.33984375 95.4443359375 c 129,-1,21
 151.33984375 95.4443359375 151.33984375 95.4443359375 151.33984375 95.4443359375 c 1,22,-1
 151.33984375 119.108398438 l 1,23,-1
 151.33984375 186.8359375 l 1,24,-1
 151.33984375 202.33984375 l 1,25,-1
 151.33984375 202.33984375 l 1,26,-1
 151.33984375 582.595703125 l 2,27,28
 151.33984375 659.299804688 151.33984375 659.299804688 97.0751953125 678.475585938 c 128,-1,29
 42.8115234375 697.651367188 42.8115234375 697.651367188 50.1552734375 697.651367188 c 2,30,-1
 494.059570312 697.651367188 l 2,31,32
 533.228515625 697.651367188 533.228515625 697.651367188 557.708007812 644.611328125 c 0,33,34
 576.475585938 603.811523438 576.475585938 603.811523438 576.475585938 554.036132812 c 0,35,36
 576.475585938 525.475585938 576.475585938 525.475585938 570.35546875 487.532226562 c 128,-1,37
 564.236328125 449.587890625 564.236328125 449.587890625 549.548828125 432.451171875 c 0,38,39
 508.749023438 385.124023438 508.749023438 385.124023438 468.35546875 363.5 c 128,-1,40
 427.963867188 341.875976562 427.963867188 341.875976562 352.075195312 337.795898438 c 0,0,1
263.948242188 426.740234375 m 1,41,42
 325.963867188 426.740234375 325.963867188 426.740234375 352.075195312 429.188476562 c 0,43,44
 374.924804688 430.8203125 374.924804688 430.8203125 402.66796875 440.611328125 c 0,45,46
 481.8203125 465.091796875 481.8203125 465.091796875 481.8203125 535.267578125 c 0,47,48
 481.8203125 595.651367188 481.8203125 595.651367188 431.228515625 624.211914062 c 0,49,50
 395.32421875 644.611328125 395.32421875 644.611328125 320.250976562 644.611328125 c 1,51,52
 321.068359375 644.611328125 321.068359375 644.611328125 291.69140625 642.979492188 c 2,53,-1
 263.948242188 641.348632812 l 1,54,-1
 263.948242188 426.740234375 l 1,41,42
EndSplineSet
EndChar

StartChar: q
Encoding: 113 113 82
Width: 716
VWidth: 1305
Flags: W
LayerCount: 2
Fore
SplineSet
402.35546875 674.008789062 m 0,0,1
 463.555664062 674.008789062 463.555664062 674.008789062 515.780273438 651.16015625 c 0,2,3
 569.635742188 626.6796875 569.635742188 626.6796875 605.540039062 585.879882812 c 0,4,5
 643.075195312 542.631835938 643.075195312 542.631835938 665.924804688 478.16796875 c 0,6,7
 687.140625 412.888671875 687.140625 412.888671875 687.140625 344.344726562 c 0,8,9
 687.140625 271.719726562 687.140625 271.719726562 664.291992188 205.624023438 c 0,10,11
 642.259765625 137.895507812 642.259765625 137.895507812 601.459960938 91.3837890625 c 0,12,13
 547.604492188 28.5517578125 547.604492188 28.5517578125 463.555664062 11.416015625 c 1,14,15
 461.924804688 3.255859375 461.924804688 3.255859375 460.291992188 -4.49609375 c 128,-1,16
 458.66015625 -12.2490234375 458.66015625 -12.2490234375 457.844726562 -19.591796875 c 0,17,18
 449.68359375 -52.2314453125 449.68359375 -52.2314453125 427.651367188 -100.375976562 c 0,19,20
 404.8046875 -148.520507812 404.8046875 -148.520507812 360.740234375 -177.080078125 c 0,21,22
 316.67578125 -204.008789062 316.67578125 -204.008789062 271.795898438 -204.008789062 c 0,23,24
 239.155273438 -204.008789062 239.155273438 -204.008789062 216.30859375 -186.055664062 c 0,25,26
 199.98828125 -173.81640625 199.98828125 -173.81640625 199.98828125 -157.49609375 c 0,27,28
 199.98828125 -143.624023438 199.98828125 -143.624023438 209.780273438 -133.83203125 c 0,29,30
 218.755859375 -124.85546875 218.755859375 -124.85546875 235.891601562 -123.224609375 c 1,31,32
 249.763671875 -126.48828125 249.763671875 -126.48828125 254.66015625 -128.936523438 c 0,33,34
 261.188476562 -132.200195312 261.188476562 -132.200195312 275.875976562 -146.888671875 c 0,35,36
 293.01171875 -165.655273438 293.01171875 -165.655273438 311.780273438 -165.655273438 c 0,37,38
 323.204101562 -165.655273438 323.204101562 -165.655273438 328.916015625 -159.944335938 c 0,39,40
 340.33984375 -146.888671875 340.33984375 -146.888671875 349.31640625 -110.16796875 c 0,41,42
 361.555664062 -61.2080078125 361.555664062 -61.2080078125 361.555664062 -8.984375 c 0,43,44
 361.555664062 -4.904296875 361.555664062 -4.904296875 361.555664062 -0.82421875 c 128,-1,45
 361.555664062 3.255859375 361.555664062 3.255859375 361.555664062 8.1513671875 c 1,46,47
 315.859375 12.232421875 315.859375 12.232421875 268.532226562 35.080078125 c 0,48,49
 208.963867188 64.455078125 208.963867188 64.455078125 171.428710938 118.311523438 c 0,50,51
 111.859375 203.17578125 111.859375 203.17578125 111.859375 335.368164062 c 0,52,53
 111.859375 423.49609375 111.859375 423.49609375 138.788085938 496.120117188 c 0,54,55
 165.715820312 567.111328125 165.715820312 567.111328125 214.67578125 610.359375 c 0,56,57
 288.116210938 674.008789062 288.116210938 674.008789062 402.35546875 674.008789062 c 0,0,1
396.64453125 633.208007812 m 0,58,59
 341.971679688 633.208007812 341.971679688 633.208007812 300.35546875 587.51171875 c 0,60,61
 263.635742188 545.895507812 263.635742188 545.895507812 247.31640625 485.51171875 c 0,62,63
 230.99609375 425.944335938 230.99609375 425.944335938 230.99609375 332.104492188 c 0,64,65
 230.99609375 200.728515625 230.99609375 200.728515625 273.428710938 129.736328125 c 0,66,67
 323.204101562 46.50390625 323.204101562 46.50390625 402.35546875 46.50390625 c 0,68,69
 483.140625 46.50390625 483.140625 46.50390625 528.020507812 138.711914062 c 0,70,71
 544.33984375 173.799804688 544.33984375 173.799804688 554.94921875 230.919921875 c 0,72,73
 564.740234375 279.879882812 564.740234375 279.879882812 564.740234375 345.975585938 c 0,74,75
 564.740234375 416.151367188 564.740234375 416.151367188 551.68359375 473.271484375 c 0,76,77
 537.811523438 528.759765625 537.811523438 528.759765625 513.33203125 567.111328125 c 0,78,79
 469.267578125 633.208007812 469.267578125 633.208007812 396.64453125 633.208007812 c 0,58,59
EndSplineSet
EndChar

StartChar: r
Encoding: 114 114 83
Width: 789
VWidth: 1329
Flags: W
LayerCount: 2
Fore
SplineSet
385.508789062 352.484375 m 2,0,-1
 639.284179688 79.1240234375 l 1,1,-1
 739.651367188 29.3486328125 l 1,2,-1
 468.740234375 30.1640625 l 1,3,-1
 515.250976562 65.2509765625 l 1,4,-1
 286.771484375 336.1640625 l 1,5,-1
 286.771484375 202.33984375 l 1,6,-1
 286.771484375 186.8359375 l 1,7,-1
 286.771484375 119.108398438 l 1,8,-1
 286.771484375 95.4443359375 l 1,9,10
 286.771484375 95.4443359375 286.771484375 95.4443359375 296.971679688 81.9794921875 c 128,-1,11
 307.171875 68.515625 307.171875 68.515625 336.548828125 54.64453125 c 2,12,-1
 389.587890625 29.3486328125 l 1,13,-1
 286.771484375 29.3486328125 l 1,14,-1
 174.1640625 29.3486328125 l 1,15,-1
 71.3486328125 29.3486328125 l 1,16,-1
 123.571289062 54.64453125 l 2,17,18
 152.94921875 68.515625 152.94921875 68.515625 163.1484375 81.9794921875 c 128,-1,19
 173.348632812 95.4443359375 173.348632812 95.4443359375 174.1640625 95.4443359375 c 1,20,21
 174.1640625 95.4443359375 174.1640625 95.4443359375 174.1640625 95.4443359375 c 129,-1,22
 174.1640625 95.4443359375 174.1640625 95.4443359375 174.1640625 95.4443359375 c 1,23,-1
 174.1640625 119.108398438 l 1,24,-1
 174.1640625 186.8359375 l 1,25,-1
 174.1640625 202.33984375 l 1,26,-1
 174.1640625 202.33984375 l 1,27,-1
 174.1640625 582.595703125 l 2,28,29
 174.1640625 659.299804688 174.1640625 659.299804688 119.491210938 678.475585938 c 128,-1,30
 64.8203125 697.651367188 64.8203125 697.651367188 72.9794921875 697.651367188 c 2,31,-1
 560.94921875 697.651367188 l 2,32,33
 600.116210938 697.651367188 600.116210938 697.651367188 624.595703125 644.611328125 c 0,34,35
 643.364257812 603.811523438 643.364257812 603.811523438 643.364257812 554.036132812 c 0,36,37
 643.364257812 525.475585938 643.364257812 525.475585938 638.467773438 490.388671875 c 128,-1,38
 633.571289062 455.299804688 633.571289062 455.299804688 618.883789062 438.1640625 c 0,39,40
 578.083984375 390.8359375 578.083984375 390.8359375 527.900390625 373.291992188 c 128,-1,41
 477.715820312 355.749023438 477.715820312 355.749023438 401.828125 351.66796875 c 0,42,43
 396.931640625 351.66796875 396.931640625 351.66796875 393.259765625 352.075195312 c 128,-1,44
 389.587890625 352.484375 389.587890625 352.484375 385.508789062 352.484375 c 2,0,-1
286.771484375 426.740234375 m 1,45,46
 341.444335938 426.740234375 341.444335938 426.740234375 374.083984375 430.00390625 c 0,47,48
 386.32421875 430.8203125 386.32421875 430.8203125 421.412109375 433.67578125 c 128,-1,49
 456.5 436.532226562 456.5 436.532226562 469.555664062 441.428710938 c 0,50,51
 547.891601562 468.35546875 547.891601562 468.35546875 547.891601562 541.795898438 c 0,52,53
 547.891601562 605.444335938 547.891601562 605.444335938 498.116210938 636.451171875 c 0,54,55
 480.979492188 646.244140625 480.979492188 646.244140625 431.204101562 651.548828125 c 128,-1,56
 381.428710938 656.8515625 381.428710938 656.8515625 343.075195312 656.8515625 c 0,57,58
 329.204101562 656.8515625 329.204101562 656.8515625 314.515625 656.036132812 c 2,59,-1
 286.771484375 654.404296875 l 1,60,-1
 286.771484375 426.740234375 l 1,45,46
EndSplineSet
EndChar

StartChar: s
Encoding: 115 115 84
Width: 672
VWidth: 1329
Flags: W
LayerCount: 2
Fore
SplineSet
580.96484375 641.286132812 m 2,0,-1
 609.524414062 476.455078125 l 1,1,2
 609.524414062 476.455078125 609.524414062 476.455078125 587.4921875 510.319335938 c 128,-1,3
 565.459960938 544.181640625 565.459960938 544.181640625 541.795898438 578.455078125 c 0,4,5
 526.291992188 599.669921875 526.291992188 599.669921875 476.923828125 611.094726562 c 128,-1,6
 427.556640625 622.518554688 427.556640625 622.518554688 374.516601562 622.110351562 c 128,-1,7
 321.4765625 621.702148438 321.4765625 621.702148438 279.860351562 609.0546875 c 128,-1,8
 238.244140625 596.40625 238.244140625 596.40625 237.428710938 570.294921875 c 0,9,10
 236.612304688 562.134765625 236.612304688 562.134765625 239.876953125 540.918945312 c 128,-1,11
 243.139648438 519.702148438 243.139648438 519.702148438 336.979492188 479.71875 c 0,12,13
 430.00390625 438.918945312 430.00390625 438.918945312 505.483398438 417.294921875 c 128,-1,14
 580.96484375 395.669921875 580.96484375 395.669921875 612.788085938 317.334960938 c 256,15,16
 644.612304688 238.999023438 644.612304688 238.999023438 622.172851562 184.735351562 c 128,-1,17
 599.732421875 130.470703125 599.732421875 130.470703125 557.299804688 91.3017578125 c 0,18,19
 513.236328125 51.3193359375 513.236328125 51.3193359375 422.252929688 37.85546875 c 128,-1,20
 331.268554688 24.390625 331.268554688 24.390625 291.284179688 31.7353515625 c 0,21,22
 194.1796875 48.8701171875 194.1796875 48.8701171875 142.772460938 90.486328125 c 1,23,24
 138.692382812 110.0703125 138.692382812 110.0703125 121.556640625 201.461914062 c 128,-1,25
 104.419921875 292.85546875 104.419921875 292.85546875 104.419921875 292.85546875 c 257,26,27
 104.419921875 292.85546875 104.419921875 292.85546875 112.172851562 278.166015625 c 128,-1,28
 119.923828125 263.478515625 119.923828125 263.478515625 129.716796875 240.630859375 c 0,29,30
 139.5078125 216.151367188 139.5078125 216.151367188 166.84375 182.286132812 c 128,-1,31
 194.1796875 148.421875 194.1796875 148.421875 248.037109375 125.57421875 c 0,32,33
 331.268554688 88.85546875 331.268554688 88.85546875 443.060546875 124.759765625 c 128,-1,34
 554.852539062 160.662109375 554.852539062 160.662109375 518.1328125 245.526367188 c 0,35,36
 498.548828125 287.142578125 498.548828125 287.142578125 433.268554688 314.0703125 c 128,-1,37
 367.98828125 340.999023438 367.98828125 340.999023438 296.99609375 368.334960938 c 128,-1,38
 226.00390625 395.669921875 226.00390625 395.669921875 169.291992188 431.166015625 c 128,-1,39
 112.579101562 466.662109375 112.579101562 466.662109375 111.764648438 526.23046875 c 0,40,41
 109.31640625 608.646484375 109.31640625 608.646484375 180.716796875 647.814453125 c 128,-1,42
 252.116210938 686.982421875 252.116210938 686.982421875 339.428710938 694.735351562 c 128,-1,43
 426.740234375 702.486328125 426.740234375 702.486328125 501.404296875 685.759765625 c 128,-1,44
 576.068359375 669.030273438 576.068359375 669.030273438 580.96484375 641.286132812 c 2,0,-1
EndSplineSet
EndChar

StartChar: t
Encoding: 116 116 85
Width: 685
VWidth: 1329
Flags: W
LayerCount: 2
Fore
SplineSet
364.071289062 29.3486328125 m 1,0,-1
 349.383789062 309.236328125 l 2,1,2
 344.48828125 398.1796875 344.48828125 398.1796875 327.3515625 514.868164062 c 128,-1,3
 310.215820312 631.555664062 310.215820312 631.555664062 310.215820312 631.555664062 c 257,4,5
 310.215820312 631.555664062 310.215820312 631.555664062 309.80859375 632.780273438 c 128,-1,6
 309.400390625 634.00390625 309.400390625 634.00390625 308.583984375 638.083984375 c 1,7,-1
 183.736328125 638.083984375 l 1,8,9
 183.736328125 638.083984375 183.736328125 638.083984375 160.479492188 626.250976562 c 128,-1,10
 137.224609375 614.419921875 137.224609375 614.419921875 110.295898438 571.98828125 c 0,11,12
 81.736328125 528.740234375 81.736328125 528.740234375 73.5751953125 512.419921875 c 128,-1,13
 65.416015625 496.099609375 65.416015625 496.099609375 65.416015625 496.099609375 c 1,14,-1
 123.3515625 697.651367188 l 1,15,-1
 310.215820312 697.651367188 l 1,16,-1
 470.967773438 697.651367188 l 1,17,-1
 657.83203125 697.651367188 l 1,18,-1
 716.583984375 496.099609375 l 1,19,20
 716.583984375 496.099609375 716.583984375 496.099609375 707.608398438 512.419921875 c 128,-1,21
 698.631835938 528.740234375 698.631835938 528.740234375 670.888671875 571.98828125 c 0,22,23
 643.14453125 614.419921875 643.14453125 614.419921875 620.295898438 626.250976562 c 128,-1,24
 597.448242188 638.083984375 597.448242188 638.083984375 597.448242188 638.083984375 c 1,25,-1
 472.599609375 638.083984375 l 1,26,27
 470.967773438 634.00390625 470.967773438 634.00390625 470.967773438 632.780273438 c 128,-1,28
 470.967773438 631.555664062 470.967773438 631.555664062 470.967773438 631.555664062 c 257,29,30
 470.967773438 631.555664062 470.967773438 631.555664062 453.424804688 514.868164062 c 128,-1,31
 435.879882812 398.1796875 435.879882812 398.1796875 431.799804688 309.236328125 c 2,32,-1
 417.111328125 29.3486328125 l 1,33,-1
 364.071289062 29.3486328125 l 1,0,-1
EndSplineSet
EndChar

StartChar: u
Encoding: 117 117 86
Width: 685
VWidth: 1328
Flags: W
LayerCount: 2
Fore
SplineSet
205.483398438 631.16796875 m 2,0,-1
 206.299804688 352.913085938 l 2,1,2
 206.299804688 289.264648438 206.299804688 289.264648438 206.708007812 250.504882812 c 128,-1,3
 207.116210938 211.744140625 207.116210938 211.744140625 207.932617188 197.873046875 c 0,4,5
 208.748046875 170.12890625 208.748046875 170.12890625 215.276367188 145.6484375 c 0,6,7
 225.883789062 108.928710938 225.883789062 108.928710938 260.97265625 92.6083984375 c 0,8,9
 298.5078125 73.841796875 298.5078125 73.841796875 353.99609375 73.841796875 c 0,10,11
 442.939453125 73.841796875 442.939453125 73.841796875 473.948242188 124.43359375 c 0,12,13
 487.00390625 145.6484375 487.00390625 145.6484375 493.532226562 179.104492188 c 0,14,15
 499.244140625 209.296875 499.244140625 209.296875 499.244140625 269.680664062 c 2,16,-1
 498.427734375 348.017578125 l 1,17,-1
 497.612304688 638.512695312 l 2,18,19
 497.612304688 675.233398438 497.612304688 675.233398438 475.987304688 682.984375 c 128,-1,20
 454.364257812 690.737304688 454.364257812 690.737304688 422.540039062 693.184570312 c 2,21,-1
 649.387695312 694.000976562 l 2,22,23
 656.732421875 694.000976562 656.732421875 694.000976562 609.8125 677.272460938 c 128,-1,24
 562.891601562 660.543945312 562.891601562 660.543945312 562.891601562 589.552734375 c 2,25,-1
 562.891601562 336.592773438 l 2,26,27
 562.891601562 304.768554688 562.891601562 304.768554688 561.259765625 273.760742188 c 0,28,29
 561.259765625 179.920898438 561.259765625 179.920898438 547.387695312 137.48828125 c 0,30,31
 513.932617188 37.12109375 513.932617188 37.12109375 370.723632812 29.7763671875 c 128,-1,32
 227.516601562 22.43359375 227.516601562 22.43359375 167.131835938 69.7607421875 c 0,33,34
 136.124023438 92.6083984375 136.124023438 92.6083984375 126.33203125 127.697265625 c 0,35,36
 117.356445312 157.072265625 117.356445312 157.072265625 116.540039062 246.833007812 c 2,37,-1
 115.723632812 631.16796875 l 2,38,39
 115.723632812 678.497070312 115.723632812 678.497070312 39.8369140625 693.184570312 c 1,40,-1
 292.795898438 693.184570312 l 2,41,42
 300.139648438 693.184570312 300.139648438 693.184570312 252.403320312 685.024414062 c 128,-1,43
 204.66796875 676.864257812 204.66796875 676.864257812 205.483398438 631.16796875 c 2,0,-1
EndSplineSet
EndChar

StartChar: v
Encoding: 118 118 87
Width: 832
VWidth: 1329
Flags: W
LayerCount: 2
Fore
SplineSet
330.467773438 697.651367188 m 1,0,1
 330.467773438 697.651367188 330.467773438 697.651367188 308.028320312 687.451171875 c 128,-1,2
 285.587890625 677.250976562 285.587890625 677.250976562 273.348632812 669.908203125 c 0,3,4
 260.291992188 660.931640625 260.291992188 660.931640625 261.924804688 640.124023438 c 128,-1,5
 263.555664062 619.31640625 263.555664062 619.31640625 263.555664062 619.31640625 c 1,6,-1
 453.68359375 236.611328125 l 1,7,-1
 604.64453125 616.05078125 l 1,8,9
 604.64453125 616.05078125 604.64453125 616.05078125 605.05078125 619.724609375 c 128,-1,10
 605.459960938 623.395507812 605.459960938 623.395507812 609.540039062 647.059570312 c 0,11,12
 613.620117188 669.908203125 613.620117188 669.908203125 578.124023438 680.924804688 c 128,-1,13
 542.62890625 691.940429688 542.62890625 691.940429688 542.62890625 691.940429688 c 1,14,-1
 797.219726562 691.940429688 l 1,15,16
 797.219726562 691.940429688 797.219726562 691.940429688 782.124023438 687.451171875 c 128,-1,17
 767.028320312 682.963867188 767.028320312 682.963867188 730.30859375 675.620117188 c 0,18,19
 691.955078125 666.64453125 691.955078125 666.64453125 671.963867188 614.828125 c 128,-1,20
 651.971679688 563.01171875 651.971679688 563.01171875 651.971679688 563.01171875 c 1,21,-1
 436.548828125 29.3486328125 l 1,22,23
 436.548828125 29.3486328125 436.548828125 29.3486328125 396.563476562 117.068359375 c 128,-1,24
 356.580078125 204.788085938 356.580078125 204.788085938 306.395507812 314.131835938 c 128,-1,25
 256.211914062 423.475585938 256.211914062 423.475585938 210.108398438 520.98828125 c 128,-1,26
 164.00390625 618.5 164.00390625 618.5 151.763671875 638.900390625 c 0,27,28
 126.467773438 678.068359375 126.467773438 678.068359375 68.1240234375 687.859375 c 128,-1,29
 9.7802734375 697.651367188 9.7802734375 697.651367188 9.7802734375 697.651367188 c 1,30,-1
 330.467773438 697.651367188 l 1,0,1
EndSplineSet
EndChar

StartChar: w
Encoding: 119 119 88
Width: 1242
VWidth: 1328
Flags: W
LayerCount: 2
Fore
SplineSet
126.059570312 691.295898438 m 1,0,-1
 396.155273438 691.295898438 l 1,1,2
 368.412109375 677.424804688 368.412109375 677.424804688 362.700195312 673.344726562 c 0,3,4
 350.459960938 665.18359375 350.459960938 665.18359375 351.68359375 644.375976562 c 128,-1,5
 352.908203125 623.568359375 352.908203125 623.568359375 352.908203125 623.568359375 c 1,6,-1
 544.66796875 237.599609375 l 1,7,-1
 623.00390625 435.071289062 l 1,8,9
 591.1796875 501.984375 591.1796875 501.984375 565.475585938 555.83984375 c 128,-1,10
 539.771484375 609.6953125 539.771484375 609.6953125 527.532226562 633.359375 c 2,11,-1
 496.524414062 691.295898438 l 1,12,-1
 677.67578125 691.295898438 l 1,13,14
 649.931640625 677.424804688 649.931640625 677.424804688 644.219726562 673.344726562 c 0,15,16
 631.1640625 665.18359375 631.1640625 665.18359375 632.795898438 644.375976562 c 128,-1,17
 634.428710938 623.568359375 634.428710938 623.568359375 634.428710938 623.568359375 c 1,18,-1
 831.083984375 237.599609375 l 1,19,-1
 977.963867188 620.3046875 l 1,20,21
 977.963867188 620.3046875 977.963867188 620.3046875 978.780273438 626.015625 c 128,-1,22
 979.595703125 631.728515625 979.595703125 631.728515625 983.67578125 651.311523438 c 0,23,24
 986.940429688 670.895507812 986.940429688 670.895507812 968.98828125 678.6484375 c 128,-1,25
 951.036132812 686.400390625 951.036132812 686.400390625 935.532226562 691.295898438 c 1,26,-1
 1190.94042969 691.295898438 l 2,27,28
 1182.78027344 688.848632812 1182.78027344 688.848632812 1175.43652344 686.80859375 c 128,-1,29
 1168.09179688 684.767578125 1168.09179688 684.767578125 1141.1640625 679.055664062 c 0,30,31
 1113.41992188 672.528320312 1113.41992188 672.528320312 1087.71582031 619.48828125 c 128,-1,32
 1062.01171875 566.44921875 1062.01171875 566.44921875 1062.01171875 566.44921875 c 1,33,-1
 827.8203125 28.7041015625 l 1,34,35
 827.8203125 28.7041015625 827.8203125 28.7041015625 771.108398438 132.3359375 c 128,-1,36
 714.395507812 235.967773438 714.395507812 235.967773438 659.724609375 355.919921875 c 1,37,-1
 513.659179688 28.7041015625 l 1,38,39
 513.659179688 28.7041015625 513.659179688 28.7041015625 468.780273438 118.87109375 c 128,-1,40
 423.900390625 209.040039062 423.900390625 209.040039062 368.412109375 320.424804688 c 128,-1,41
 312.924804688 431.80859375 312.924804688 431.80859375 263.963867188 529.728515625 c 128,-1,42
 215.00390625 627.6484375 215.00390625 627.6484375 206.028320312 643.151367188 c 0,43,44
 186.444335938 672.528320312 186.444335938 672.528320312 167.267578125 678.6484375 c 128,-1,45
 148.091796875 684.767578125 148.091796875 684.767578125 126.059570312 691.295898438 c 1,0,-1
EndSplineSet
EndChar

StartChar: x
Encoding: 120 120 89
Width: 796
VWidth: 1328
Flags: W
LayerCount: 2
Fore
SplineSet
453.891601562 430.991210938 m 1,0,-1
 633.412109375 159.263671875 l 1,1,-1
 656.259765625 125.80859375 l 2,2,3
 695.428710938 69.50390625 695.428710938 69.50390625 710.116210938 54 c 0,4,5
 730.515625 35.232421875 730.515625 35.232421875 763.155273438 28.7041015625 c 1,6,-1
 492.244140625 28.7041015625 l 1,7,8
 545.284179688 39.3115234375 545.284179688 39.3115234375 545.284179688 73.583984375 c 0,9,10
 545.284179688 93.984375 545.284179688 93.984375 524.883789062 124.17578125 c 2,11,-1
 384.532226562 333.888671875 l 1,12,-1
 280.083984375 178.848632812 l 2,13,14
 260.5 149.471679688 260.5 149.471679688 243.364257812 122.544921875 c 0,15,16
 226.228515625 91.5361328125 226.228515625 91.5361328125 226.228515625 68.6884765625 c 0,17,18
 226.228515625 35.232421875 226.228515625 35.232421875 273.555664062 28.7041015625 c 1,19,-1
 63.8447265625 28.7041015625 l 1,20,21
 94.8515625 36.048828125 94.8515625 36.048828125 111.171875 51.5517578125 c 0,22,23
 130.755859375 71.1357421875 130.755859375 71.1357421875 163.395507812 117.6484375 c 2,24,-1
 351.075195312 386.928710938 l 1,25,-1
 227.859375 572.16015625 l 2,26,27
 187.059570312 633.359375 187.059570312 633.359375 157.68359375 661.104492188 c 0,28,29
 129.124023438 686.400390625 129.124023438 686.400390625 98.931640625 691.295898438 c 1,30,-1
 362.5 691.295898438 l 1,31,32
 317.620117188 684.767578125 317.620117188 684.767578125 317.620117188 654.575195312 c 0,33,34
 317.620117188 633.359375 317.620117188 633.359375 341.284179688 598.271484375 c 2,35,-1
 417.171875 484.032226562 l 1,36,-1
 492.244140625 590.928710938 l 2,37,38
 525.700195312 639.071289062 525.700195312 639.071289062 525.700195312 661.104492188 c 0,39,40
 525.700195312 685.583984375 525.700195312 685.583984375 492.244140625 691.295898438 c 1,41,-1
 692.979492188 691.295898438 l 1,42,43
 648.916015625 682.3203125 648.916015625 682.3203125 629.33203125 666 c 0,44,45
 604.036132812 646.416015625 604.036132812 646.416015625 560.788085938 583.583984375 c 2,46,-1
 453.891601562 430.991210938 l 1,0,-1
EndSplineSet
EndChar

StartChar: y
Encoding: 121 121 90
Width: 790
VWidth: 1328
Flags: W
LayerCount: 2
Fore
SplineSet
490.015625 333.888671875 m 1,0,-1
 490.015625 176.400390625 l 2,1,2
 490.015625 78.4794921875 490.015625 78.4794921875 504.704101562 56.44921875 c 0,3,4
 515.311523438 40.12890625 515.311523438 40.12890625 535.711914062 34.416015625 c 0,5,6
 549.583984375 30.3359375 549.583984375 30.3359375 564.271484375 28.7041015625 c 2,7,-1
 295.80859375 28.7041015625 l 1,8,9
 318.655273438 33.599609375 318.655273438 33.599609375 330.080078125 38.49609375 c 0,10,11
 357.82421875 52.3681640625 357.82421875 52.3681640625 362.719726562 98.0634765625 c 0,12,13
 364.3515625 115.200195312 364.3515625 115.200195312 365.984375 176.400390625 c 2,14,-1
 365.984375 333.888671875 l 1,15,-1
 210.944335938 578.688476562 l 2,16,17
 175.85546875 631.728515625 175.85546875 631.728515625 157.904296875 657.83984375 c 1,18,19
 132.608398438 686.400390625 132.608398438 686.400390625 98.3359375 691.295898438 c 1,20,-1
 365.984375 691.295898438 l 1,21,22
 312.944335938 683.135742188 312.944335938 683.135742188 312.944335938 650.49609375 c 0,23,24
 312.944335938 621.120117188 312.944335938 621.120117188 349.6640625 562.368164062 c 2,25,-1
 454.111328125 398.3515625 l 1,26,-1
 563.455078125 564.81640625 l 2,27,28
 575.6953125 584.400390625 575.6953125 584.400390625 583.040039062 597.048828125 c 128,-1,29
 590.383789062 609.6953125 590.383789062 609.6953125 593.6484375 615.408203125 c 0,30,31
 604.255859375 639.071289062 604.255859375 639.071289062 604.255859375 651.311523438 c 0,32,33
 604.255859375 688.848632812 604.255859375 688.848632812 557.744140625 691.295898438 c 2,34,-1
 757.6640625 691.295898438 l 1,35,36
 718.49609375 684.767578125 718.49609375 684.767578125 694.83203125 657.024414062 c 0,37,38
 671.984375 631.728515625 671.984375 631.728515625 644.240234375 586.032226562 c 2,39,-1
 490.015625 333.888671875 l 1,0,-1
EndSplineSet
EndChar

StartChar: z
Encoding: 122 122 91
Width: 672
VWidth: 1328
Flags: W
LayerCount: 2
Fore
SplineSet
546.6796875 28.7041015625 m 1,0,-1
 73.400390625 28.7041015625 l 1,1,-1
 447.12890625 641.520507812 l 1,2,3
 398.984375 646.416015625 398.984375 646.416015625 376.135742188 646.416015625 c 0,4,5
 268.424804688 646.416015625 268.424804688 646.416015625 204.775390625 602.3515625 c 0,6,7
 165.608398438 575.424804688 165.608398438 575.424804688 141.12890625 532.991210938 c 0,8,9
 131.3359375 515.040039062 131.3359375 515.040039062 119.095703125 485.6640625 c 1,10,-1
 171.3203125 691.295898438 l 1,11,-1
 628.280273438 691.295898438 l 1,12,-1
 252.104492188 79.2958984375 l 1,13,14
 290.455078125 75.2158203125 290.455078125 75.2158203125 322.280273438 75.2158203125 c 0,15,16
 452.024414062 75.2158203125 452.024414062 75.2158203125 540.151367188 137.232421875 c 0,17,18
 600.536132812 178.848632812 600.536132812 178.848632812 644.599609375 262.080078125 c 1,19,-1
 546.6796875 28.7041015625 l 1,0,-1
EndSplineSet
EndChar

StartChar: braceleft
Encoding: 123 123 92
Width: 441
Flags: W
LayerCount: 2
Fore
SplineSet
237 -199 m 2,0,1
 134 -199 134 -199 134 -120 c 2,2,-1
 134 227 l 1,3,-1
 42 321 l 1,4,-1
 134 415 l 1,5,-1
 134 756 l 2,6,7
 134 837 134 837 237 837 c 2,8,-1
 411 837 l 1,9,-1
 411 677 l 1,10,-1
 344 677 l 2,11,12
 342 677 342 677 342 675 c 2,13,-1
 342 382 l 1,14,-1
 279 320 l 1,15,-1
 342 260 l 1,16,-1
 342 -38 l 2,17,18
 342 -40 342 -40 344 -40 c 2,19,-1
 411 -40 l 1,20,-1
 411 -199 l 1,21,-1
 237 -199 l 2,0,1
EndSplineSet
Validated: 1
EndChar

StartChar: bar
Encoding: 124 124 93
Width: 307
Flags: W
LayerCount: 2
Fore
SplineSet
94 -101 m 1,0,-1
 94 740 l 1,1,-1
 211 740 l 1,2,-1
 211 -101 l 1,3,-1
 94 -101 l 1,0,-1
EndSplineSet
Validated: 1
EndChar

StartChar: braceright
Encoding: 125 125 94
Width: 441
Flags: W
LayerCount: 2
Fore
SplineSet
29 -199 m 1,0,-1
 29 -40 l 1,1,-1
 96 -40 l 2,2,3
 98 -40 98 -40 98 -38 c 2,4,-1
 98 260 l 1,5,-1
 161 320 l 1,6,-1
 98 382 l 1,7,-1
 98 675 l 2,8,9
 98 677 98 677 96 677 c 2,10,-1
 29 677 l 1,11,-1
 29 837 l 1,12,-1
 203 837 l 2,13,14
 306 837 306 837 306 756 c 2,15,-1
 306 415 l 1,16,-1
 398 321 l 1,17,-1
 306 227 l 1,18,-1
 306 -120 l 2,19,20
 306 -199 306 -199 203 -199 c 2,21,-1
 29 -199 l 1,0,-1
EndSplineSet
Validated: 1
EndChar

StartChar: asciitilde
Encoding: 126 126 95
Width: 484
Flags: W
LayerCount: 2
Fore
SplineSet
453 392 m 1,0,1
 453 321 453 321 426 285.5 c 128,-1,2
 399 250 399 250 335 250 c 0,3,4
 306 250 306 250 281.5 258.5 c 128,-1,5
 257 267 257 267 236 277.5 c 128,-1,6
 215 288 215 288 196 297 c 128,-1,7
 177 306 177 306 161 306 c 0,8,9
 143 306 143 306 134.5 294 c 128,-1,10
 126 282 126 282 126 250 c 1,11,-1
 38 250 l 1,12,13
 38 321 38 321 65 356.5 c 128,-1,14
 92 392 92 392 156 392 c 0,15,16
 183 392 183 392 207.5 383 c 128,-1,17
 232 374 232 374 254 363.5 c 128,-1,18
 276 353 276 353 294.5 344.5 c 128,-1,19
 313 336 313 336 330 336 c 0,20,21
 348 336 348 336 357 348 c 128,-1,22
 366 360 366 360 366 392 c 1,23,-1
 453 392 l 1,0,1
EndSplineSet
Validated: 1
EndChar

StartChar: cent
Encoding: 162 162 98
Width: 512
Flags: W
LayerCount: 2
Fore
SplineSet
194 0 m 1,0,-1
 194 52 l 1,1,-1
 126 52 l 2,2,3
 22 52 22 52 22 131 c 2,4,-1
 22 508 l 2,5,6
 22 588 22 588 126 588 c 2,7,-1
 194 588 l 1,8,-1
 194 639 l 1,9,-1
 341 639 l 1,10,-1
 341 588 l 1,11,-1
 385 588 l 2,12,13
 489 588 489 588 489 508 c 2,14,-1
 489 369 l 1,15,-1
 281 369 l 1,16,-1
 281 426 l 2,17,18
 281 428 281 428 279 428 c 2,19,-1
 232 428 l 2,20,21
 230 428 230 428 230 426 c 2,22,-1
 230 212 l 2,23,24
 230 210 230 210 232 210 c 2,25,-1
 279 210 l 2,26,27
 281 210 281 210 281 212 c 2,28,-1
 281 310 l 1,29,-1
 489 310 l 1,30,-1
 489 131 l 2,31,32
 489 52 489 52 385 52 c 2,33,-1
 341 52 l 1,34,-1
 341 0 l 1,35,-1
 194 0 l 1,0,-1
EndSplineSet
Validated: 1
EndChar

StartChar: sterling
Encoding: 163 163 99
Width: 458
Flags: W
LayerCount: 2
Fore
SplineSet
20 0 m 1,0,-1
 20 159 l 1,1,-1
 46 159 l 1,2,-1
 46 251 l 1,3,-1
 21 251 l 1,4,-1
 21 388 l 1,5,-1
 46 388 l 1,6,-1
 46 558 l 2,7,8
 46 639 46 639 150 639 c 2,9,-1
 436 639 l 1,10,-1
 436 479 l 1,11,-1
 256 479 l 2,12,13
 254 479 254 479 254 477 c 2,14,-1
 254 388 l 1,15,-1
 346 388 l 1,16,-1
 346 250 l 1,17,-1
 254 250 l 1,18,-1
 254 159 l 1,19,-1
 436 159 l 1,20,-1
 436 0 l 1,21,-1
 20 0 l 1,0,-1
EndSplineSet
Validated: 1
EndChar

StartChar: currency
Encoding: 164 164 100
Width: 500
Flags: W
LayerCount: 2
Fore
SplineSet
346 338 m 0,0,1
 346 357 346 357 338.5 374.5 c 128,-1,2
 331 392 331 392 317.5 404.5 c 128,-1,3
 304 417 304 417 286 424.5 c 128,-1,4
 268 432 268 432 247 432 c 256,5,6
 226 432 226 432 207.5 424.5 c 128,-1,7
 189 417 189 417 175.5 404.5 c 128,-1,8
 162 392 162 392 154 374.5 c 128,-1,9
 146 357 146 357 146 338 c 0,10,11
 146 318 146 318 154 301 c 128,-1,12
 162 284 162 284 175.5 271.5 c 128,-1,13
 189 259 189 259 207.5 251.5 c 128,-1,14
 226 244 226 244 247 244 c 256,15,16
 268 244 268 244 286 251.5 c 128,-1,17
 304 259 304 259 317.5 271.5 c 128,-1,18
 331 284 331 284 338.5 301 c 128,-1,19
 346 318 346 318 346 338 c 0,0,1
330 199 m 1,20,21
 292 179 292 179 247 179 c 0,22,23
 224 179 224 179 203 184.5 c 128,-1,24
 182 190 182 190 162 199 c 1,25,-1
 100 136 l 1,26,-1
 37 202 l 1,27,-1
 93 259 l 1,28,29
 82 276 82 276 76 296 c 128,-1,30
 70 316 70 316 70 338 c 0,31,32
 70 381 70 381 94 416 c 1,33,-1
 37 475 l 1,34,-1
 100 542 l 1,35,-1
 162 476 l 1,36,37
 201 497 201 497 247 497 c 0,38,39
 292 497 292 497 329 477 c 1,40,-1
 391 542 l 1,41,-1
 456 475 l 1,42,-1
 398 417 l 1,43,44
 409 400 409 400 416 380 c 128,-1,45
 423 360 423 360 423 338 c 0,46,47
 423 295 423 295 399 260 c 1,48,-1
 456 202 l 1,49,-1
 391 136 l 1,50,-1
 330 199 l 1,20,21
EndSplineSet
Validated: 1
EndChar

StartChar: yen
Encoding: 165 165 101
Width: 519
Flags: W
LayerCount: 2
Fore
SplineSet
157 0 m 1,0,-1
 157 136 l 1,1,-1
 26 136 l 1,2,-1
 26 185 l 1,3,-1
 157 185 l 1,4,-1
 157 215 l 1,5,-1
 26 215 l 1,6,-1
 26 263 l 1,7,-1
 157 263 l 1,8,-1
 157 325 l 1,9,10
 26 325 26 325 26 455 c 2,11,-1
 26 639 l 1,12,-1
 234 639 l 1,13,-1
 234 477 l 2,14,15
 234 475 234 475 236 475 c 2,16,-1
 283 475 l 2,17,18
 285 475 285 475 285 477 c 2,19,-1
 285 639 l 1,20,-1
 493 639 l 1,21,-1
 493 455 l 2,22,23
 493 325 493 325 365 325 c 1,24,-1
 365 263 l 1,25,-1
 496 263 l 1,26,-1
 496 215 l 1,27,-1
 365 215 l 1,28,-1
 365 185 l 1,29,-1
 496 185 l 1,30,-1
 496 136 l 1,31,-1
 365 136 l 1,32,-1
 365 0 l 1,33,-1
 157 0 l 1,0,-1
EndSplineSet
Validated: 1
EndChar

StartChar: brokenbar
Encoding: 166 166 102
Width: 307
Flags: W
LayerCount: 2
Fore
SplineSet
211 333 m 1,0,-1
 94 333 l 1,1,-1
 94 740 l 1,2,-1
 211 740 l 1,3,-1
 211 333 l 1,0,-1
94 -101 m 1,4,-1
 94 302 l 1,5,-1
 211 302 l 1,6,-1
 211 -101 l 1,7,-1
 94 -101 l 1,4,-1
EndSplineSet
Validated: 1
EndChar

StartChar: section
Encoding: 167 167 103
Width: 543
Flags: W
LayerCount: 2
Fore
SplineSet
218 -199 m 1,0,-1
 218 -38 l 1,1,-1
 325 -38 l 2,2,3
 344 -38 344 -38 344 -19 c 2,4,-1
 344 38 l 1,5,-1
 159 38 l 2,6,7
 87 38 87 38 56.5 77.5 c 128,-1,8
 26 117 26 117 26 191 c 2,9,-1
 26 488 l 2,10,11
 26 562 26 562 56.5 600.5 c 128,-1,12
 87 639 87 639 166 639 c 2,13,-1
 325 639 l 1,14,-1
 325 479 l 1,15,-1
 218 479 l 2,16,17
 199 479 199 479 199 458 c 2,18,-1
 199 401 l 1,19,-1
 383 401 l 2,20,21
 454 401 454 401 485 361.5 c 128,-1,22
 516 322 516 322 516 249 c 2,23,-1
 516 -49 l 2,24,25
 516 -122 516 -122 486 -160.5 c 128,-1,26
 456 -199 456 -199 377 -199 c 2,27,-1
 218 -199 l 1,0,-1
344 252 m 2,28,29
 344 272 344 272 325 272 c 2,30,-1
 199 272 l 1,31,-1
 199 187 l 2,32,33
 199 167 199 167 218 167 c 2,34,-1
 344 167 l 1,35,-1
 344 252 l 2,28,29
EndSplineSet
Validated: 1
EndChar

StartChar: dieresis
Encoding: 168 168 104
Width: 389
Flags: W
LayerCount: 2
Fore
SplineSet
249 678 m 1,0,-1
 249 789 l 1,1,-1
 369 789 l 1,2,-1
 369 678 l 1,3,-1
 249 678 l 1,0,-1
19 678 m 1,4,-1
 19 789 l 1,5,-1
 139 789 l 1,6,-1
 139 678 l 1,7,-1
 19 678 l 1,4,-1
EndSplineSet
Validated: 1
EndChar

StartChar: copyright
Encoding: 169 169 105
Width: 556
Flags: W
LayerCount: 2
Fore
SplineSet
84 0 m 2,0,1
 24 0 24 0 24 58 c 2,2,-1
 24 585 l 2,3,4
 24 639 24 639 84 639 c 2,5,-1
 472 639 l 2,6,7
 532 639 532 639 532 585 c 2,8,-1
 532 58 l 2,9,10
 532 0 532 0 472 0 c 2,11,-1
 84 0 l 2,0,1
425 544 m 2,12,13
 425 548 425 548 419 548 c 2,14,-1
 137 548 l 2,15,16
 131 548 131 548 131 544 c 2,17,-1
 131 112 l 2,18,19
 131 109 131 109 136 109 c 2,20,-1
 420 109 l 2,21,22
 425 109 425 109 425 112 c 2,23,-1
 425 544 l 2,12,13
231 201 m 2,24,25
 189 201 189 201 189 233 c 2,26,-1
 189 425 l 2,27,28
 189 458 189 458 231 458 c 2,29,-1
 335 458 l 2,30,31
 377 458 377 458 377 425 c 2,32,-1
 377 359 l 1,33,-1
 293 359 l 1,34,-1
 293 392 l 2,35,36
 293 394 293 394 291 394 c 2,37,-1
 274 394 l 2,38,39
 272 394 272 394 272 392 c 2,40,-1
 272 267 l 2,41,42
 272 265 272 265 274 265 c 2,43,-1
 291 265 l 2,44,45
 293 265 293 265 293 267 c 2,46,-1
 293 316 l 1,47,-1
 377 316 l 1,48,-1
 377 233 l 2,49,50
 377 201 377 201 335 201 c 2,51,-1
 231 201 l 2,24,25
EndSplineSet
Validated: 1
Ligature2: "'liga' Standard Ligatures in Latin lookup 0 subtable" parenleft c parenright
Ligature2: "'liga' Standard Ligatures in Latin lookup 0 subtable" parenleft C parenright
EndChar

StartChar: ordfeminine
Encoding: 170 170 106
Width: 344
Flags: W
LayerCount: 2
Fore
SplineSet
186 562 m 2,0,1
 186 563 186 563 185 563 c 2,2,-1
 159 563 l 1,3,4
 159 563 159 563 158 562 c 2,5,-1
 158 519 l 1,6,-1
 186 519 l 1,7,-1
 186 562 l 2,0,1
186 300 m 1,8,-1
 186 431 l 1,9,-1
 158 431 l 1,10,-1
 158 300 l 1,11,-1
 44 300 l 1,12,-1
 44 607 l 2,13,14
 44 651 44 651 101 651 c 2,15,-1
 243 651 l 2,16,17
 301 651 301 651 301 607 c 2,18,-1
 301 300 l 1,19,-1
 186 300 l 1,8,-1
EndSplineSet
Validated: 1
EndChar

StartChar: logicalnot
Encoding: 172 172 108
Width: 649
Flags: W
LayerCount: 2
Fore
SplineSet
462 0 m 1,0,-1
 462 293 l 1,1,-1
 36 293 l 1,2,-1
 36 407 l 1,3,-1
 578 407 l 1,4,-1
 578 0 l 1,5,-1
 462 0 l 1,0,-1
EndSplineSet
Validated: 1
EndChar

StartChar: registered
Encoding: 174 174 109
Width: 556
Flags: W
LayerCount: 2
Fore
SplineSet
84 0 m 2,0,1
 24 0 24 0 24 58 c 2,2,-1
 24 585 l 2,3,4
 24 639 24 639 84 639 c 2,5,-1
 472 639 l 2,6,7
 532 639 532 639 532 585 c 2,8,-1
 532 58 l 2,9,10
 532 0 532 0 472 0 c 2,11,-1
 84 0 l 2,0,1
425 544 m 2,12,13
 425 548 425 548 419 548 c 2,14,-1
 137 548 l 2,15,16
 131 548 131 548 131 544 c 2,17,-1
 131 112 l 2,18,19
 131 109 131 109 136 109 c 2,20,-1
 420 109 l 2,21,22
 425 109 425 109 425 112 c 2,23,-1
 425 544 l 2,12,13
294 201 m 1,24,-1
 294 302 l 2,25,26
 294 304 294 304 292 304 c 2,27,-1
 273 304 l 1,28,-1
 273 201 l 1,29,-1
 189 201 l 1,30,-1
 189 458 l 1,31,-1
 336 458 l 2,32,33
 377 458 377 458 377 425 c 2,34,-1
 377 351 l 2,35,36
 377 332 377 332 357 330 c 1,37,38
 377 327 377 327 377 308 c 2,39,-1
 377 201 l 1,40,-1
 294 201 l 1,24,-1
294 392 m 2,41,42
 294 394 294 394 292 394 c 2,43,-1
 273 394 l 1,44,-1
 273 355 l 1,45,-1
 292 355 l 2,46,47
 294 355 294 355 294 357 c 2,48,-1
 294 392 l 2,41,42
EndSplineSet
Validated: 1
Ligature2: "'liga' Standard Ligatures in Latin lookup 0 subtable" parenleft R parenright
EndChar

StartChar: macron
Encoding: 175 175 110
Width: 391
Flags: W
LayerCount: 2
Fore
SplineSet
20 695 m 1,0,-1
 20 782 l 1,1,-1
 370 782 l 1,2,-1
 370 695 l 1,3,-1
 20 695 l 1,0,-1
EndSplineSet
Validated: 1
EndChar

StartChar: degree
Encoding: 176 176 111
Width: 362
Flags: W
LayerCount: 2
Fore
SplineSet
257 568 m 256,0,1
 257 601 257 601 237.5 621 c 128,-1,2
 218 641 218 641 185 641 c 256,3,4
 152 641 152 641 132.5 621 c 128,-1,5
 113 601 113 601 113 568 c 256,6,7
 113 535 113 535 132.5 516 c 128,-1,8
 152 497 152 497 185 497 c 256,9,10
 218 497 218 497 237.5 516 c 128,-1,11
 257 535 257 535 257 568 c 256,0,1
310 568 m 256,12,13
 310 511 310 511 275.5 477.5 c 128,-1,14
 241 444 241 444 184 444 c 256,15,16
 127 444 127 444 93 477.5 c 128,-1,17
 59 511 59 511 59 568 c 256,18,19
 59 625 59 625 93 659.5 c 128,-1,20
 127 694 127 694 184 694 c 256,21,22
 241 694 241 694 275.5 659.5 c 128,-1,23
 310 625 310 625 310 568 c 256,12,13
EndSplineSet
Validated: 1
EndChar

StartChar: acute
Encoding: 180 180 115
Width: 319
Flags: W
LayerCount: 2
Fore
SplineSet
20 670 m 1,0,-1
 20 740 l 1,1,-1
 303 809 l 1,2,-1
 303 703 l 1,3,-1
 20 670 l 1,0,-1
EndSplineSet
Validated: 1
EndChar

StartChar: paragraph
Encoding: 182 182 116
Width: 548
Flags: W
LayerCount: 2
Fore
SplineSet
388 -100 m 1,0,-1
 388 512 l 1,1,-1
 268 512 l 1,2,-1
 268 -100 l 1,3,-1
 132 -100 l 1,4,-1
 132 386 l 1,5,6
 8 401 8 401 8 516 c 0,7,8
 8 542 8 542 16 564.5 c 128,-1,9
 24 587 24 587 43 603.5 c 128,-1,10
 62 620 62 620 91.5 629.5 c 128,-1,11
 121 639 121 639 165 639 c 2,12,-1
 523 639 l 1,13,-1
 523 -100 l 1,14,-1
 388 -100 l 1,0,-1
EndSplineSet
Validated: 1
EndChar

StartChar: periodcentered
Encoding: 183 183 117
Width: 260
Flags: W
LayerCount: 2
Fore
SplineSet
26 230 m 1,0,-1
 26 389 l 1,1,-1
 234 389 l 1,2,-1
 234 230 l 1,3,-1
 26 230 l 1,0,-1
EndSplineSet
Validated: 1
EndChar

StartChar: cedilla
Encoding: 184 184 118
Width: 171
Flags: W
LayerCount: 2
Fore
SplineSet
12 -199 m 1,0,-1
 39 -28 l 1,1,-1
 159 -28 l 1,2,-1
 96 -199 l 1,3,-1
 12 -199 l 1,0,-1
EndSplineSet
Validated: 1
EndChar

StartChar: ordmasculine
Encoding: 186 186 120
Width: 343
Flags: W
LayerCount: 2
Fore
SplineSet
186 562 m 2,0,1
 186 563 186 563 185 563 c 2,2,-1
 159 563 l 2,3,4
 158 563 158 563 158 562 c 2,5,-1
 158 389 l 2,6,7
 158 387 158 387 159 387 c 2,8,-1
 185 387 l 1,9,10
 185 387 185 387 186 389 c 2,11,-1
 186 562 l 2,0,1
100 300 m 2,12,13
 43 300 43 300 43 343 c 2,14,-1
 43 607 l 2,15,16
 43 651 43 651 100 651 c 2,17,-1
 243 651 l 2,18,19
 300 651 300 651 300 607 c 2,20,-1
 300 343 l 2,21,22
 300 300 300 300 243 300 c 2,23,-1
 100 300 l 2,12,13
EndSplineSet
Validated: 1
EndChar

StartChar: Agrave
Encoding: 192 192 126
Width: 517
Flags: W
LayerCount: 2
Fore
SplineSet
284 477 m 2,0,1
 284 479 284 479 282 479 c 2,2,-1
 235 479 l 2,3,4
 233 479 233 479 233 477 c 2,5,-1
 233 399 l 1,6,-1
 284 399 l 1,7,-1
 284 477 l 2,0,1
284 0 m 1,8,-1
 284 239 l 1,9,-1
 233 239 l 1,10,-1
 233 0 l 1,11,-1
 25 0 l 1,12,-1
 25 558 l 2,13,14
 25 639 25 639 129 639 c 2,15,-1
 388 639 l 2,16,17
 492 639 492 639 492 558 c 2,18,-1
 492 0 l 1,19,-1
 284 0 l 1,8,-1
EndSplineSet
Refer: 708 -1 N 1 0 0 1 25 0 0
Refer: 65 96 N 1 0 0 1 67 0 2
EndChar

StartChar: Aacute
Encoding: 193 193 127
Width: 517
Flags: W
LayerCount: 2
Fore
SplineSet
284 477 m 2,0,1
 284 479 284 479 282 479 c 2,2,-1
 235 479 l 2,3,4
 233 479 233 479 233 477 c 2,5,-1
 233 399 l 1,6,-1
 284 399 l 1,7,-1
 284 477 l 2,0,1
284 0 m 1,8,-1
 284 239 l 1,9,-1
 233 239 l 1,10,-1
 233 0 l 1,11,-1
 25 0 l 1,12,-1
 25 558 l 2,13,14
 25 639 25 639 129 639 c 2,15,-1
 388 639 l 2,16,17
 492 639 492 639 492 558 c 2,18,-1
 492 0 l 1,19,-1
 284 0 l 1,8,-1
EndSplineSet
Refer: 708 -1 N 1 0 0 1 25 0 0
Refer: 115 180 N 1 0 0 1 127 0 2
Validated: 1
EndChar

StartChar: Acircumflex
Encoding: 194 194 128
Width: 517
Flags: W
LayerCount: 2
Fore
SplineSet
284 477 m 2,0,1
 284 479 284 479 282 479 c 2,2,-1
 235 479 l 2,3,4
 233 479 233 479 233 477 c 2,5,-1
 233 399 l 1,6,-1
 284 399 l 1,7,-1
 284 477 l 2,0,1
284 0 m 1,8,-1
 284 239 l 1,9,-1
 233 239 l 1,10,-1
 233 0 l 1,11,-1
 25 0 l 1,12,-1
 25 558 l 2,13,14
 25 639 25 639 129 639 c 2,15,-1
 388 639 l 2,16,17
 492 639 492 639 492 558 c 2,18,-1
 492 0 l 1,19,-1
 284 0 l 1,8,-1
EndSplineSet
Refer: 708 -1 N 1 0 0 1 25 0 0
Refer: 308 710 N 1 0 0 1 72 0 2
Validated: 1
EndChar

StartChar: Atilde
Encoding: 195 195 129
Width: 517
Flags: W
LayerCount: 2
Fore
SplineSet
284 477 m 2,0,1
 284 479 284 479 282 479 c 2,2,-1
 235 479 l 2,3,4
 233 479 233 479 233 477 c 2,5,-1
 233 399 l 1,6,-1
 284 399 l 1,7,-1
 284 477 l 2,0,1
284 0 m 1,8,-1
 284 239 l 1,9,-1
 233 239 l 1,10,-1
 233 0 l 1,11,-1
 25 0 l 1,12,-1
 25 558 l 2,13,14
 25 639 25 639 129 639 c 2,15,-1
 388 639 l 2,16,17
 492 639 492 639 492 558 c 2,18,-1
 492 0 l 1,19,-1
 284 0 l 1,8,-1
EndSplineSet
Refer: 708 -1 N 1 0 0 1 25 0 0
Refer: 314 732 N 1 0 0 1 58 0 2
Validated: 1
EndChar

StartChar: Adieresis
Encoding: 196 196 130
Width: 517
Flags: W
LayerCount: 2
Fore
SplineSet
284 477 m 2,0,1
 284 479 284 479 282 479 c 2,2,-1
 235 479 l 2,3,4
 233 479 233 479 233 477 c 2,5,-1
 233 399 l 1,6,-1
 284 399 l 1,7,-1
 284 477 l 2,0,1
284 0 m 1,8,-1
 284 239 l 1,9,-1
 233 239 l 1,10,-1
 233 0 l 1,11,-1
 25 0 l 1,12,-1
 25 558 l 2,13,14
 25 639 25 639 129 639 c 2,15,-1
 388 639 l 2,16,17
 492 639 492 639 492 558 c 2,18,-1
 492 0 l 1,19,-1
 284 0 l 1,8,-1
EndSplineSet
Refer: 708 -1 N 1 0 0 1 25 0 0
Refer: 104 168 N 1 0 0 1 64 0 2
Validated: 1
EndChar

StartChar: Aring
Encoding: 197 197 131
Width: 517
Flags: W
LayerCount: 2
Fore
SplineSet
284 477 m 2,0,1
 284 479 284 479 282 479 c 2,2,-1
 235 479 l 2,3,4
 233 479 233 479 233 477 c 2,5,-1
 233 399 l 1,6,-1
 284 399 l 1,7,-1
 284 477 l 2,0,1
284 0 m 1,8,-1
 284 239 l 1,9,-1
 233 239 l 1,10,-1
 233 0 l 1,11,-1
 25 0 l 1,12,-1
 25 558 l 2,13,14
 25 639 25 639 129 639 c 2,15,-1
 388 639 l 2,16,17
 492 639 492 639 492 558 c 2,18,-1
 492 0 l 1,19,-1
 284 0 l 1,8,-1
EndSplineSet
Refer: 708 -1 N 1 0 0 1 25 0 0
Refer: 312 730 N 1 0 0 1 157 0 2
Validated: 1
EndChar

StartChar: AE
Encoding: 198 198 132
Width: 660
Flags: W
LayerCount: 2
Fore
SplineSet
128 0 m 2,0,1
 24 0 24 0 24 79 c 2,2,-1
 24 320 l 2,3,4
 24 399 24 399 128 399 c 2,5,-1
 283 399 l 1,6,-1
 283 479 l 1,7,-1
 234 479 l 2,8,9
 232 479 232 479 232 477 c 2,10,-1
 232 440 l 1,11,-1
 24 440 l 1,12,-1
 24 558 l 2,13,14
 24 639 24 639 128 639 c 2,15,-1
 635 639 l 1,16,-1
 635 479 l 1,17,-1
 491 479 l 1,18,-1
 491 399 l 1,19,-1
 633 399 l 1,20,-1
 633 239 l 1,21,-1
 491 239 l 1,22,-1
 491 159 l 1,23,-1
 636 159 l 1,24,-1
 636 0 l 1,25,-1
 128 0 l 2,0,1
283 259 m 1,26,-1
 234 259 l 2,27,28
 232 259 232 259 232 257 c 2,29,-1
 232 161 l 2,30,31
 232 159 232 159 234 159 c 2,32,-1
 283 159 l 1,33,-1
 283 259 l 1,26,-1
EndSplineSet
Validated: 1
EndChar

StartChar: Ccedilla
Encoding: 199 199 133
Width: 515
Flags: W
LayerCount: 2
Fore
SplineSet
128 0 m 2,0,1
 24 0 24 0 24 79 c 2,2,-1
 24 558 l 2,3,4
 24 639 24 639 128 639 c 2,5,-1
 387 639 l 2,6,7
 491 639 491 639 491 558 c 2,8,-1
 491 369 l 1,9,-1
 283 369 l 1,10,-1
 283 477 l 2,11,12
 283 479 283 479 281 479 c 2,13,-1
 234 479 l 2,14,15
 232 479 232 479 232 477 c 2,16,-1
 232 161 l 2,17,18
 232 159 232 159 234 159 c 2,19,-1
 281 159 l 2,20,21
 283 159 283 159 283 161 c 2,22,-1
 283 310 l 1,23,-1
 491 310 l 1,24,-1
 491 79 l 2,25,26
 491 0 491 0 387 0 c 2,27,-1
 128 0 l 2,0,1
EndSplineSet
Refer: 708 -1 N 1 0 0 1 24 0 0
Refer: 118 184 N 1 0 0 1 159 0 2
Validated: 1
EndChar

StartChar: Egrave
Encoding: 200 200 134
Width: 403
Flags: W
LayerCount: 2
Fore
SplineSet
26 0 m 1,0,-1
 26 639 l 1,1,-1
 378 639 l 1,2,-1
 378 479 l 1,3,-1
 234 479 l 1,4,-1
 234 399 l 1,5,-1
 376 399 l 1,6,-1
 376 239 l 1,7,-1
 234 239 l 1,8,-1
 234 159 l 1,9,-1
 379 159 l 1,10,-1
 379 0 l 1,11,-1
 26 0 l 1,0,-1
EndSplineSet
Refer: 708 -1 N 1 0 0 1 26 0 0
Refer: 65 96 N 1 0 0 1 10 0 2
EndChar

StartChar: Eacute
Encoding: 201 201 135
Width: 403
Flags: W
LayerCount: 2
Fore
SplineSet
26 0 m 1,0,-1
 26 639 l 1,1,-1
 378 639 l 1,2,-1
 378 479 l 1,3,-1
 234 479 l 1,4,-1
 234 399 l 1,5,-1
 376 399 l 1,6,-1
 376 239 l 1,7,-1
 234 239 l 1,8,-1
 234 159 l 1,9,-1
 379 159 l 1,10,-1
 379 0 l 1,11,-1
 26 0 l 1,0,-1
EndSplineSet
Refer: 708 -1 N 1 0 0 1 26 0 0
Refer: 115 180 N 1 0 0 1 70 0 2
Validated: 1
EndChar

StartChar: Ecircumflex
Encoding: 202 202 136
Width: 403
Flags: W
LayerCount: 2
Fore
SplineSet
26 0 m 1,0,-1
 26 639 l 1,1,-1
 378 639 l 1,2,-1
 378 479 l 1,3,-1
 234 479 l 1,4,-1
 234 399 l 1,5,-1
 376 399 l 1,6,-1
 376 239 l 1,7,-1
 234 239 l 1,8,-1
 234 159 l 1,9,-1
 379 159 l 1,10,-1
 379 0 l 1,11,-1
 26 0 l 1,0,-1
EndSplineSet
Refer: 708 -1 N 1 0 0 1 26 0 0
Refer: 308 710 N 1 0 0 1 15 0 2
Validated: 1
EndChar

StartChar: Edieresis
Encoding: 203 203 137
Width: 403
Flags: W
LayerCount: 2
Fore
SplineSet
26 0 m 1,0,-1
 26 639 l 1,1,-1
 378 639 l 1,2,-1
 378 479 l 1,3,-1
 234 479 l 1,4,-1
 234 399 l 1,5,-1
 376 399 l 1,6,-1
 376 239 l 1,7,-1
 234 239 l 1,8,-1
 234 159 l 1,9,-1
 379 159 l 1,10,-1
 379 0 l 1,11,-1
 26 0 l 1,0,-1
EndSplineSet
Refer: 708 -1 N 1 0 0 1 26 0 0
Refer: 104 168 N 1 0 0 1 7 0 2
Validated: 1
EndChar

StartChar: Igrave
Encoding: 204 204 138
Width: 260
Flags: W
LayerCount: 2
Fore
SplineSet
26 0 m 1,0,-1
 26 639 l 1,1,-1
 234 639 l 1,2,-1
 234 0 l 1,3,-1
 26 0 l 1,0,-1
EndSplineSet
Refer: 708 -1 N 1 0 0 1 0 0 0
Refer: 65 96 N 1 0 0 1 -60 0 2
EndChar

StartChar: Iacute
Encoding: 205 205 139
Width: 260
Flags: W
LayerCount: 2
Fore
SplineSet
26 0 m 1,0,-1
 26 639 l 1,1,-1
 234 639 l 1,2,-1
 234 0 l 1,3,-1
 26 0 l 1,0,-1
EndSplineSet
Refer: 708 -1 N 1 0 0 1 20 0 0
Refer: 115 180 N 1 0 0 1 0 0 2
Validated: 1
EndChar

StartChar: Icircumflex
Encoding: 206 206 140
Width: 260
Flags: W
LayerCount: 2
Fore
SplineSet
26 0 m 1,0,-1
 26 639 l 1,1,-1
 234 639 l 1,2,-1
 234 0 l 1,3,-1
 26 0 l 1,0,-1
EndSplineSet
Refer: 708 -1 N 1 0 0 1 0 0 0
Refer: 308 710 N 1 0 0 1 -55 0 2
Validated: 1
EndChar

StartChar: Idieresis
Encoding: 207 207 141
Width: 260
Flags: W
LayerCount: 2
Fore
SplineSet
26 0 m 1,0,-1
 26 639 l 1,1,-1
 234 639 l 1,2,-1
 234 0 l 1,3,-1
 26 0 l 1,0,-1
EndSplineSet
Refer: 708 -1 N 1 0 0 1 0 0 0
Refer: 104 168 N 1 0 0 1 -63 0 2
Validated: 1
EndChar

StartChar: Eth
Encoding: 208 208 142
Width: 517
Flags: W
LayerCount: 2
Fore
SplineSet
26 0 m 1,0,-1
 26 263 l 1,1,-1
 0 263 l 1,2,-1
 0 379 l 1,3,-1
 26 379 l 1,4,-1
 26 639 l 1,5,-1
 389 639 l 2,6,7
 493 639 493 639 493 558 c 2,8,-1
 493 79 l 2,9,10
 493 0 493 0 389 0 c 2,11,-1
 26 0 l 1,0,-1
285 477 m 2,12,13
 285 479 285 479 283 479 c 2,14,-1
 229 479 l 1,15,-1
 229 379 l 1,16,-1
 258 379 l 1,17,-1
 258 263 l 1,18,-1
 229 263 l 1,19,-1
 229 159 l 1,20,-1
 283 159 l 2,21,22
 285 159 285 159 285 161 c 2,23,-1
 285 477 l 2,12,13
EndSplineSet
Validated: 1
EndChar

StartChar: Ntilde
Encoding: 209 209 143
Width: 518
Flags: W
LayerCount: 2
Fore
SplineSet
285 0 m 1,0,-1
 285 477 l 2,1,2
 285 479 285 479 283 479 c 2,3,-1
 236 479 l 2,4,5
 234 479 234 479 234 477 c 2,6,-1
 234 0 l 1,7,-1
 26 0 l 1,8,-1
 26 639 l 1,9,-1
 234 639 l 1,10,-1
 234 598 l 1,11,12
 287 639 287 639 389 639 c 0,13,14
 493 639 493 639 493 558 c 2,15,-1
 493 0 l 1,16,-1
 285 0 l 1,0,-1
EndSplineSet
Refer: 708 -1 N 1 0 0 1 26 0 0
Refer: 314 732 N 1 0 0 1 69 0 2
Validated: 1
EndChar

StartChar: Ograve
Encoding: 210 210 144
Width: 515
Flags: W
LayerCount: 2
Fore
SplineSet
283 477 m 2,0,1
 283 479 283 479 281 479 c 2,2,-1
 234 479 l 2,3,4
 232 479 232 479 232 477 c 2,5,-1
 232 161 l 2,6,7
 232 159 232 159 234 159 c 2,8,-1
 281 159 l 2,9,10
 283 159 283 159 283 161 c 2,11,-1
 283 477 l 2,0,1
128 0 m 2,12,13
 24 0 24 0 24 79 c 2,14,-1
 24 558 l 2,15,16
 24 639 24 639 128 639 c 2,17,-1
 387 639 l 2,18,19
 491 639 491 639 491 558 c 2,20,-1
 491 79 l 2,21,22
 491 0 491 0 387 0 c 2,23,-1
 128 0 l 2,12,13
EndSplineSet
Refer: 708 -1 N 1 0 0 1 24 0 0
Refer: 65 96 N 1 0 0 1 66 0 2
EndChar

StartChar: Oacute
Encoding: 211 211 145
Width: 515
Flags: W
LayerCount: 2
Fore
SplineSet
283 477 m 2,0,1
 283 479 283 479 281 479 c 2,2,-1
 234 479 l 2,3,4
 232 479 232 479 232 477 c 2,5,-1
 232 161 l 2,6,7
 232 159 232 159 234 159 c 2,8,-1
 281 159 l 2,9,10
 283 159 283 159 283 161 c 2,11,-1
 283 477 l 2,0,1
128 0 m 2,12,13
 24 0 24 0 24 79 c 2,14,-1
 24 558 l 2,15,16
 24 639 24 639 128 639 c 2,17,-1
 387 639 l 2,18,19
 491 639 491 639 491 558 c 2,20,-1
 491 79 l 2,21,22
 491 0 491 0 387 0 c 2,23,-1
 128 0 l 2,12,13
EndSplineSet
Refer: 708 -1 N 1 0 0 1 24 0 0
Refer: 115 180 N 1 0 0 1 126 0 2
Validated: 1
EndChar

StartChar: Ocircumflex
Encoding: 212 212 146
Width: 515
Flags: W
LayerCount: 2
Fore
SplineSet
283 477 m 2,0,1
 283 479 283 479 281 479 c 2,2,-1
 234 479 l 2,3,4
 232 479 232 479 232 477 c 2,5,-1
 232 161 l 2,6,7
 232 159 232 159 234 159 c 2,8,-1
 281 159 l 2,9,10
 283 159 283 159 283 161 c 2,11,-1
 283 477 l 2,0,1
128 0 m 2,12,13
 24 0 24 0 24 79 c 2,14,-1
 24 558 l 2,15,16
 24 639 24 639 128 639 c 2,17,-1
 387 639 l 2,18,19
 491 639 491 639 491 558 c 2,20,-1
 491 79 l 2,21,22
 491 0 491 0 387 0 c 2,23,-1
 128 0 l 2,12,13
EndSplineSet
Refer: 708 -1 N 1 0 0 1 24 0 0
Refer: 308 710 N 1 0 0 1 71 0 2
Validated: 1
EndChar

StartChar: Otilde
Encoding: 213 213 147
Width: 515
Flags: W
LayerCount: 2
Fore
SplineSet
283 477 m 2,0,1
 283 479 283 479 281 479 c 2,2,-1
 234 479 l 2,3,4
 232 479 232 479 232 477 c 2,5,-1
 232 161 l 2,6,7
 232 159 232 159 234 159 c 2,8,-1
 281 159 l 2,9,10
 283 159 283 159 283 161 c 2,11,-1
 283 477 l 2,0,1
128 0 m 2,12,13
 24 0 24 0 24 79 c 2,14,-1
 24 558 l 2,15,16
 24 639 24 639 128 639 c 2,17,-1
 387 639 l 2,18,19
 491 639 491 639 491 558 c 2,20,-1
 491 79 l 2,21,22
 491 0 491 0 387 0 c 2,23,-1
 128 0 l 2,12,13
EndSplineSet
Refer: 708 -1 N 1 0 0 1 24 0 0
Refer: 314 732 N 1 0 0 1 57 0 2
Validated: 1
EndChar

StartChar: Odieresis
Encoding: 214 214 148
Width: 515
Flags: W
LayerCount: 2
Fore
SplineSet
283 477 m 2,0,1
 283 479 283 479 281 479 c 2,2,-1
 234 479 l 2,3,4
 232 479 232 479 232 477 c 2,5,-1
 232 161 l 2,6,7
 232 159 232 159 234 159 c 2,8,-1
 281 159 l 2,9,10
 283 159 283 159 283 161 c 2,11,-1
 283 477 l 2,0,1
128 0 m 2,12,13
 24 0 24 0 24 79 c 2,14,-1
 24 558 l 2,15,16
 24 639 24 639 128 639 c 2,17,-1
 387 639 l 2,18,19
 491 639 491 639 491 558 c 2,20,-1
 491 79 l 2,21,22
 491 0 491 0 387 0 c 2,23,-1
 128 0 l 2,12,13
EndSplineSet
Refer: 708 -1 N 1 0 0 1 24 0 0
Refer: 104 168 N 1 0 0 1 63 0 2
Validated: 1
EndChar

StartChar: multiply
Encoding: 215 215 149
Width: 484
Flags: W
LayerCount: 2
Fore
SplineSet
349 129 m 1,0,-1
 244 234 l 1,1,-1
 140 130 l 1,2,-1
 55 215 l 1,3,-1
 159 319 l 1,4,-1
 55 423 l 1,5,-1
 140 508 l 1,6,-1
 244 404 l 1,7,-1
 349 508 l 1,8,-1
 434 423 l 1,9,-1
 329 319 l 1,10,-1
 434 214 l 1,11,-1
 349 129 l 1,0,-1
EndSplineSet
Validated: 1
EndChar

StartChar: Oslash
Encoding: 216 216 150
Width: 515
Flags: W
LayerCount: 2
Fore
SplineSet
127 0 m 1,0,-1
 93 -70 l 1,1,-1
 48 -52 l 1,2,-1
 76 6 l 1,3,4
 24 22 24 22 24 79 c 2,5,-1
 24 558 l 2,6,7
 24 639 24 639 128 639 c 2,8,-1
 387 639 l 1,9,-1
 427 721 l 1,10,-1
 473 703 l 1,11,-1
 438 632 l 1,12,13
 491 615 491 615 491 558 c 2,14,-1
 491 79 l 2,15,16
 491 0 491 0 387 0 c 2,17,-1
 127 0 l 1,0,-1
283 316 m 1,18,-1
 232 212 l 1,19,-1
 232 161 l 2,20,21
 232 159 232 159 234 159 c 2,22,-1
 281 159 l 2,23,24
 283 159 283 159 283 161 c 2,25,-1
 283 316 l 1,18,-1
283 427 m 1,26,-1
 283 477 l 2,27,28
 283 479 283 479 281 479 c 2,29,-1
 234 479 l 2,30,31
 232 479 232 479 232 477 c 2,32,-1
 232 323 l 1,33,-1
 283 427 l 1,26,-1
EndSplineSet
Validated: 1
EndChar

StartChar: Ugrave
Encoding: 217 217 151
Width: 517
Flags: W
LayerCount: 2
Fore
SplineSet
129 0 m 2,0,1
 25 0 25 0 25 79 c 2,2,-1
 25 639 l 1,3,-1
 233 639 l 1,4,-1
 233 161 l 2,5,6
 233 159 233 159 235 159 c 2,7,-1
 282 159 l 2,8,9
 284 159 284 159 284 161 c 2,10,-1
 284 639 l 1,11,-1
 492 639 l 1,12,-1
 492 79 l 2,13,14
 492 0 492 0 388 0 c 2,15,-1
 129 0 l 2,0,1
EndSplineSet
Refer: 708 -1 N 1 0 0 1 25 0 0
Refer: 65 96 N 1 0 0 1 67 0 2
EndChar

StartChar: Uacute
Encoding: 218 218 152
Width: 517
Flags: W
LayerCount: 2
Fore
SplineSet
129 0 m 2,0,1
 25 0 25 0 25 79 c 2,2,-1
 25 639 l 1,3,-1
 233 639 l 1,4,-1
 233 161 l 2,5,6
 233 159 233 159 235 159 c 2,7,-1
 282 159 l 2,8,9
 284 159 284 159 284 161 c 2,10,-1
 284 639 l 1,11,-1
 492 639 l 1,12,-1
 492 79 l 2,13,14
 492 0 492 0 388 0 c 2,15,-1
 129 0 l 2,0,1
EndSplineSet
Refer: 708 -1 N 1 0 0 1 25 0 0
Refer: 115 180 N 1 0 0 1 127 0 2
Validated: 1
EndChar

StartChar: Ucircumflex
Encoding: 219 219 153
Width: 517
Flags: W
LayerCount: 2
Fore
SplineSet
129 0 m 2,0,1
 25 0 25 0 25 79 c 2,2,-1
 25 639 l 1,3,-1
 233 639 l 1,4,-1
 233 161 l 2,5,6
 233 159 233 159 235 159 c 2,7,-1
 282 159 l 2,8,9
 284 159 284 159 284 161 c 2,10,-1
 284 639 l 1,11,-1
 492 639 l 1,12,-1
 492 79 l 2,13,14
 492 0 492 0 388 0 c 2,15,-1
 129 0 l 2,0,1
EndSplineSet
Refer: 708 -1 N 1 0 0 1 25 0 0
Refer: 308 710 N 1 0 0 1 72 0 2
Validated: 1
EndChar

StartChar: Udieresis
Encoding: 220 220 154
Width: 517
Flags: W
LayerCount: 2
Fore
SplineSet
129 0 m 2,0,1
 25 0 25 0 25 79 c 2,2,-1
 25 639 l 1,3,-1
 233 639 l 1,4,-1
 233 161 l 2,5,6
 233 159 233 159 235 159 c 2,7,-1
 282 159 l 2,8,9
 284 159 284 159 284 161 c 2,10,-1
 284 639 l 1,11,-1
 492 639 l 1,12,-1
 492 79 l 2,13,14
 492 0 492 0 388 0 c 2,15,-1
 129 0 l 2,0,1
EndSplineSet
Refer: 708 -1 N 1 0 0 1 25 0 0
Refer: 104 168 N 1 0 0 1 64 0 2
Validated: 1
EndChar

StartChar: Yacute
Encoding: 221 221 155
Width: 501
Flags: W
LayerCount: 2
Fore
SplineSet
149 0 m 1,0,-1
 149 228 l 1,1,2
 18 228 18 228 18 358 c 2,3,-1
 18 639 l 1,4,-1
 226 639 l 1,5,-1
 226 380 l 2,6,7
 226 378 226 378 228 378 c 2,8,-1
 275 378 l 2,9,10
 277 378 277 378 277 380 c 2,11,-1
 277 639 l 1,12,-1
 485 639 l 1,13,-1
 485 358 l 2,14,15
 485 228 485 228 357 228 c 1,16,-1
 357 0 l 1,17,-1
 149 0 l 1,0,-1
EndSplineSet
Refer: 708 -1 N 1 0 0 1 18 0 0
Refer: 115 180 N 1 0 0 1 119 0 2
Validated: 1
EndChar

StartChar: Thorn
Encoding: 222 222 156
Width: 507
Flags: W
LayerCount: 2
Fore
SplineSet
285 359 m 2,0,1
 285 361 285 361 283 361 c 2,2,-1
 234 361 l 1,3,-1
 234 273 l 1,4,-1
 283 273 l 2,5,6
 285 273 285 273 285 275 c 2,7,-1
 285 359 l 2,0,1
234 117 m 1,8,-1
 234 0 l 1,9,-1
 26 0 l 1,10,-1
 26 639 l 1,11,-1
 234 639 l 1,12,-1
 234 517 l 1,13,-1
 389 517 l 2,14,15
 493 517 493 517 493 436 c 2,16,-1
 493 198 l 2,17,18
 493 117 493 117 389 117 c 2,19,-1
 234 117 l 1,8,-1
EndSplineSet
Validated: 1
EndChar

StartChar: germandbls
Encoding: 223 223 157
Width: 1030
Flags: W
LayerCount: 2
Fore
SplineSet
643 0 m 2,0,1
 539 0 539 0 539 79 c 2,2,-1
 539 199 l 1,3,-1
 747 199 l 1,4,-1
 747 161 l 2,5,6
 747 159 747 159 749 159 c 2,7,-1
 796 159 l 2,8,9
 798 159 798 159 798 161 c 2,10,-1
 798 237 l 2,11,12
 798 239 798 239 796 239 c 2,13,-1
 643 239 l 2,14,15
 539 239 539 239 539 320 c 2,16,-1
 539 558 l 2,17,18
 539 639 539 639 643 639 c 2,19,-1
 902 639 l 2,20,21
 1006 639 1006 639 1006 558 c 2,22,-1
 1006 440 l 1,23,-1
 798 440 l 1,24,-1
 798 477 l 2,25,26
 798 479 798 479 796 479 c 2,27,-1
 749 479 l 2,28,29
 747 479 747 479 747 477 c 2,30,-1
 747 401 l 2,31,32
 747 399 747 399 749 399 c 2,33,-1
 902 399 l 2,34,35
 1006 399 1006 399 1006 320 c 2,36,-1
 1006 79 l 2,37,38
 1006 0 1006 0 902 0 c 2,39,-1
 643 0 l 2,0,1
128 0 m 2,40,41
 24 0 24 0 24 79 c 2,42,-1
 24 199 l 1,43,-1
 232 199 l 1,44,-1
 232 161 l 2,45,46
 232 159 232 159 234 159 c 2,47,-1
 281 159 l 2,48,49
 283 159 283 159 283 161 c 2,50,-1
 283 237 l 2,51,52
 283 239 283 239 281 239 c 2,53,-1
 128 239 l 2,54,55
 24 239 24 239 24 320 c 2,56,-1
 24 558 l 2,57,58
 24 639 24 639 128 639 c 2,59,-1
 387 639 l 2,60,61
 491 639 491 639 491 558 c 2,62,-1
 491 440 l 1,63,-1
 283 440 l 1,64,-1
 283 477 l 2,65,66
 283 479 283 479 281 479 c 2,67,-1
 234 479 l 2,68,69
 232 479 232 479 232 477 c 2,70,-1
 232 401 l 2,71,72
 232 399 232 399 234 399 c 2,73,-1
 387 399 l 2,74,75
 491 399 491 399 491 320 c 2,76,-1
 491 79 l 2,77,78
 491 0 491 0 387 0 c 2,79,-1
 128 0 l 2,40,41
EndSplineSet
Refer: 708 -1 N 1 0 0 1 24 0 0
Validated: 1
EndChar

StartChar: agrave
Encoding: 224 224 158
Width: 516
Flags: W
LayerCount: 2
Fore
SplineSet
283 259 m 1,0,-1
 234 259 l 2,1,2
 232 259 232 259 232 257 c 2,3,-1
 232 161 l 2,4,5
 232 159 232 159 234 159 c 2,6,-1
 283 159 l 1,7,-1
 283 259 l 1,0,-1
128 0 m 2,8,9
 24 0 24 0 24 79 c 2,10,-1
 24 320 l 2,11,12
 24 399 24 399 128 399 c 2,13,-1
 283 399 l 1,14,-1
 283 477 l 2,15,16
 283 479 283 479 281 479 c 2,17,-1
 234 479 l 2,18,19
 232 479 232 479 232 477 c 2,20,-1
 232 440 l 1,21,-1
 24 440 l 1,22,-1
 24 558 l 2,23,24
 24 639 24 639 128 639 c 2,25,-1
 387 639 l 2,26,27
 491 639 491 639 491 558 c 2,28,-1
 491 0 l 1,29,-1
 128 0 l 2,8,9
EndSplineSet
Refer: 708 -1 N 1 0 0 1 24 0 0
Refer: 65 96 N 1 0 0 1 66 0 2
EndChar

StartChar: aacute
Encoding: 225 225 159
Width: 516
Flags: W
LayerCount: 2
Fore
SplineSet
283 259 m 1,0,-1
 234 259 l 2,1,2
 232 259 232 259 232 257 c 2,3,-1
 232 161 l 2,4,5
 232 159 232 159 234 159 c 2,6,-1
 283 159 l 1,7,-1
 283 259 l 1,0,-1
128 0 m 2,8,9
 24 0 24 0 24 79 c 2,10,-1
 24 320 l 2,11,12
 24 399 24 399 128 399 c 2,13,-1
 283 399 l 1,14,-1
 283 477 l 2,15,16
 283 479 283 479 281 479 c 2,17,-1
 234 479 l 2,18,19
 232 479 232 479 232 477 c 2,20,-1
 232 440 l 1,21,-1
 24 440 l 1,22,-1
 24 558 l 2,23,24
 24 639 24 639 128 639 c 2,25,-1
 387 639 l 2,26,27
 491 639 491 639 491 558 c 2,28,-1
 491 0 l 1,29,-1
 128 0 l 2,8,9
EndSplineSet
Refer: 708 -1 N 1 0 0 1 24 0 0
Refer: 115 180 N 1 0 0 1 126 0 2
Validated: 1
EndChar

StartChar: acircumflex
Encoding: 226 226 160
Width: 516
Flags: W
LayerCount: 2
Fore
SplineSet
283 259 m 1,0,-1
 234 259 l 2,1,2
 232 259 232 259 232 257 c 2,3,-1
 232 161 l 2,4,5
 232 159 232 159 234 159 c 2,6,-1
 283 159 l 1,7,-1
 283 259 l 1,0,-1
128 0 m 2,8,9
 24 0 24 0 24 79 c 2,10,-1
 24 320 l 2,11,12
 24 399 24 399 128 399 c 2,13,-1
 283 399 l 1,14,-1
 283 477 l 2,15,16
 283 479 283 479 281 479 c 2,17,-1
 234 479 l 2,18,19
 232 479 232 479 232 477 c 2,20,-1
 232 440 l 1,21,-1
 24 440 l 1,22,-1
 24 558 l 2,23,24
 24 639 24 639 128 639 c 2,25,-1
 387 639 l 2,26,27
 491 639 491 639 491 558 c 2,28,-1
 491 0 l 1,29,-1
 128 0 l 2,8,9
EndSplineSet
Refer: 708 -1 N 1 0 0 1 24 0 0
Refer: 308 710 N 1 0 0 1 72 0 2
Validated: 1
EndChar

StartChar: atilde
Encoding: 227 227 161
Width: 516
Flags: W
LayerCount: 2
Fore
SplineSet
283 259 m 1,0,-1
 234 259 l 2,1,2
 232 259 232 259 232 257 c 2,3,-1
 232 161 l 2,4,5
 232 159 232 159 234 159 c 2,6,-1
 283 159 l 1,7,-1
 283 259 l 1,0,-1
128 0 m 2,8,9
 24 0 24 0 24 79 c 2,10,-1
 24 320 l 2,11,12
 24 399 24 399 128 399 c 2,13,-1
 283 399 l 1,14,-1
 283 477 l 2,15,16
 283 479 283 479 281 479 c 2,17,-1
 234 479 l 2,18,19
 232 479 232 479 232 477 c 2,20,-1
 232 440 l 1,21,-1
 24 440 l 1,22,-1
 24 558 l 2,23,24
 24 639 24 639 128 639 c 2,25,-1
 387 639 l 2,26,27
 491 639 491 639 491 558 c 2,28,-1
 491 0 l 1,29,-1
 128 0 l 2,8,9
EndSplineSet
Refer: 708 -1 N 1 0 0 1 24 0 0
Refer: 314 732 N 1 0 0 1 58 0 2
Validated: 1
EndChar

StartChar: adieresis
Encoding: 228 228 162
Width: 516
Flags: W
LayerCount: 2
Fore
SplineSet
283 259 m 1,0,-1
 234 259 l 2,1,2
 232 259 232 259 232 257 c 2,3,-1
 232 161 l 2,4,5
 232 159 232 159 234 159 c 2,6,-1
 283 159 l 1,7,-1
 283 259 l 1,0,-1
128 0 m 2,8,9
 24 0 24 0 24 79 c 2,10,-1
 24 320 l 2,11,12
 24 399 24 399 128 399 c 2,13,-1
 283 399 l 1,14,-1
 283 477 l 2,15,16
 283 479 283 479 281 479 c 2,17,-1
 234 479 l 2,18,19
 232 479 232 479 232 477 c 2,20,-1
 232 440 l 1,21,-1
 24 440 l 1,22,-1
 24 558 l 2,23,24
 24 639 24 639 128 639 c 2,25,-1
 387 639 l 2,26,27
 491 639 491 639 491 558 c 2,28,-1
 491 0 l 1,29,-1
 128 0 l 2,8,9
EndSplineSet
Refer: 708 -1 N 1 0 0 1 24 0 0
Refer: 104 168 N 1 0 0 1 64 0 2
Validated: 1
EndChar

StartChar: aring
Encoding: 229 229 163
Width: 516
Flags: W
LayerCount: 2
Fore
SplineSet
283 259 m 1,0,-1
 234 259 l 2,1,2
 232 259 232 259 232 257 c 2,3,-1
 232 161 l 2,4,5
 232 159 232 159 234 159 c 2,6,-1
 283 159 l 1,7,-1
 283 259 l 1,0,-1
128 0 m 2,8,9
 24 0 24 0 24 79 c 2,10,-1
 24 320 l 2,11,12
 24 399 24 399 128 399 c 2,13,-1
 283 399 l 1,14,-1
 283 477 l 2,15,16
 283 479 283 479 281 479 c 2,17,-1
 234 479 l 2,18,19
 232 479 232 479 232 477 c 2,20,-1
 232 440 l 1,21,-1
 24 440 l 1,22,-1
 24 558 l 2,23,24
 24 639 24 639 128 639 c 2,25,-1
 387 639 l 2,26,27
 491 639 491 639 491 558 c 2,28,-1
 491 0 l 1,29,-1
 128 0 l 2,8,9
EndSplineSet
Refer: 708 -1 N 1 0 0 1 24 0 0
Refer: 312 730 N 1 0 0 1 157 0 2
Validated: 1
EndChar

StartChar: ccedilla
Encoding: 231 231 165
Width: 515
Flags: W
LayerCount: 2
Fore
SplineSet
128 0 m 2,0,1
 24 0 24 0 24 79 c 2,2,-1
 24 558 l 2,3,4
 24 639 24 639 128 639 c 2,5,-1
 387 639 l 2,6,7
 491 639 491 639 491 558 c 2,8,-1
 491 369 l 1,9,-1
 283 369 l 1,10,-1
 283 477 l 2,11,12
 283 479 283 479 281 479 c 2,13,-1
 234 479 l 2,14,15
 232 479 232 479 232 477 c 2,16,-1
 232 161 l 2,17,18
 232 159 232 159 234 159 c 2,19,-1
 281 159 l 2,20,21
 283 159 283 159 283 161 c 2,22,-1
 283 310 l 1,23,-1
 491 310 l 1,24,-1
 491 79 l 2,25,26
 491 0 491 0 387 0 c 2,27,-1
 128 0 l 2,0,1
EndSplineSet
Refer: 708 -1 N 1 0 0 1 24 0 0
Refer: 118 184 N 1 0 0 1 159 0 2
Validated: 1
EndChar

StartChar: egrave
Encoding: 232 232 166
Width: 515
Flags: W
LayerCount: 2
Fore
SplineSet
283 477 m 2,0,1
 283 479 283 479 281 479 c 2,2,-1
 234 479 l 2,3,4
 232 479 232 479 232 477 c 2,5,-1
 232 388 l 1,6,-1
 283 388 l 1,7,-1
 283 477 l 2,0,1
128 0 m 2,8,9
 24 0 24 0 24 79 c 2,10,-1
 24 558 l 2,11,12
 24 639 24 639 128 639 c 2,13,-1
 387 639 l 2,14,15
 491 639 491 639 491 558 c 2,16,-1
 491 239 l 1,17,-1
 232 239 l 1,18,-1
 232 161 l 2,19,20
 232 159 232 159 234 159 c 2,21,-1
 281 159 l 2,22,23
 283 159 283 159 283 161 c 2,24,-1
 283 199 l 1,25,-1
 491 199 l 1,26,-1
 491 79 l 2,27,28
 491 0 491 0 387 0 c 2,29,-1
 128 0 l 2,8,9
EndSplineSet
Refer: 708 -1 N 1 0 0 1 24 0 0
Refer: 65 96 N 1 0 0 1 66 0 2
EndChar

StartChar: eacute
Encoding: 233 233 167
Width: 515
Flags: W
LayerCount: 2
Fore
SplineSet
283 477 m 2,0,1
 283 479 283 479 281 479 c 2,2,-1
 234 479 l 2,3,4
 232 479 232 479 232 477 c 2,5,-1
 232 388 l 1,6,-1
 283 388 l 1,7,-1
 283 477 l 2,0,1
128 0 m 2,8,9
 24 0 24 0 24 79 c 2,10,-1
 24 558 l 2,11,12
 24 639 24 639 128 639 c 2,13,-1
 387 639 l 2,14,15
 491 639 491 639 491 558 c 2,16,-1
 491 239 l 1,17,-1
 232 239 l 1,18,-1
 232 161 l 2,19,20
 232 159 232 159 234 159 c 2,21,-1
 281 159 l 2,22,23
 283 159 283 159 283 161 c 2,24,-1
 283 199 l 1,25,-1
 491 199 l 1,26,-1
 491 79 l 2,27,28
 491 0 491 0 387 0 c 2,29,-1
 128 0 l 2,8,9
EndSplineSet
Refer: 708 -1 N 1 0 0 1 24 0 0
Refer: 115 180 N 1 0 0 1 126 0 2
Validated: 1
EndChar

StartChar: ecircumflex
Encoding: 234 234 168
Width: 515
Flags: W
LayerCount: 2
Fore
SplineSet
283 477 m 2,0,1
 283 479 283 479 281 479 c 2,2,-1
 234 479 l 2,3,4
 232 479 232 479 232 477 c 2,5,-1
 232 388 l 1,6,-1
 283 388 l 1,7,-1
 283 477 l 2,0,1
128 0 m 2,8,9
 24 0 24 0 24 79 c 2,10,-1
 24 558 l 2,11,12
 24 639 24 639 128 639 c 2,13,-1
 387 639 l 2,14,15
 491 639 491 639 491 558 c 2,16,-1
 491 239 l 1,17,-1
 232 239 l 1,18,-1
 232 161 l 2,19,20
 232 159 232 159 234 159 c 2,21,-1
 281 159 l 2,22,23
 283 159 283 159 283 161 c 2,24,-1
 283 199 l 1,25,-1
 491 199 l 1,26,-1
 491 79 l 2,27,28
 491 0 491 0 387 0 c 2,29,-1
 128 0 l 2,8,9
EndSplineSet
Refer: 708 -1 N 1 0 0 1 24 0 0
Refer: 308 710 N 1 0 0 1 71 0 2
Validated: 1
EndChar

StartChar: edieresis
Encoding: 235 235 169
Width: 515
Flags: W
LayerCount: 2
Fore
SplineSet
283 477 m 2,0,1
 283 479 283 479 281 479 c 2,2,-1
 234 479 l 2,3,4
 232 479 232 479 232 477 c 2,5,-1
 232 388 l 1,6,-1
 283 388 l 1,7,-1
 283 477 l 2,0,1
128 0 m 2,8,9
 24 0 24 0 24 79 c 2,10,-1
 24 558 l 2,11,12
 24 639 24 639 128 639 c 2,13,-1
 387 639 l 2,14,15
 491 639 491 639 491 558 c 2,16,-1
 491 239 l 1,17,-1
 232 239 l 1,18,-1
 232 161 l 2,19,20
 232 159 232 159 234 159 c 2,21,-1
 281 159 l 2,22,23
 283 159 283 159 283 161 c 2,24,-1
 283 199 l 1,25,-1
 491 199 l 1,26,-1
 491 79 l 2,27,28
 491 0 491 0 387 0 c 2,29,-1
 128 0 l 2,8,9
EndSplineSet
Refer: 708 -1 N 1 0 0 1 24 0 0
Refer: 104 168 N 1 0 0 1 63 0 2
Validated: 1
EndChar

StartChar: igrave
Encoding: 236 236 170
Width: 260
Flags: W
LayerCount: 2
Fore
SplineSet
26 0 m 1,0,-1
 26 639 l 1,1,-1
 234 639 l 1,2,-1
 234 0 l 1,3,-1
 26 0 l 1,0,-1
EndSplineSet
Refer: 708 -1 N 1 0 0 1 0 0 0
Refer: 65 96 N 1 0 0 1 -60 0 2
EndChar

StartChar: iacute
Encoding: 237 237 171
Width: 260
Flags: W
LayerCount: 2
Fore
SplineSet
26 0 m 1,0,-1
 26 639 l 1,1,-1
 234 639 l 1,2,-1
 234 0 l 1,3,-1
 26 0 l 1,0,-1
EndSplineSet
Refer: 708 -1 N 1 0 0 1 20 0 0
Refer: 115 180 N 1 0 0 1 0 0 2
Validated: 1
EndChar

StartChar: icircumflex
Encoding: 238 238 172
Width: 260
Flags: W
LayerCount: 2
Fore
SplineSet
26 0 m 1,0,-1
 26 639 l 1,1,-1
 234 639 l 1,2,-1
 234 0 l 1,3,-1
 26 0 l 1,0,-1
EndSplineSet
Refer: 708 -1 N 1 0 0 1 0 0 0
Refer: 308 710 N 1 0 0 1 -55 0 2
Validated: 1
EndChar

StartChar: idieresis
Encoding: 239 239 173
Width: 260
Flags: W
LayerCount: 2
Fore
SplineSet
26 0 m 1,0,-1
 26 639 l 1,1,-1
 234 639 l 1,2,-1
 234 0 l 1,3,-1
 26 0 l 1,0,-1
EndSplineSet
Refer: 708 -1 N 1 0 0 1 0 0 0
Refer: 104 168 N 1 0 0 1 -63 0 2
Validated: 1
EndChar

StartChar: eth
Encoding: 240 240 174
Width: 515
Flags: W
LayerCount: 2
Fore
SplineSet
283 249 m 1,0,-1
 234 249 l 2,1,2
 232 249 232 249 232 247 c 2,3,-1
 232 161 l 2,4,5
 232 159 232 159 234 159 c 2,6,-1
 281 159 l 2,7,8
 283 159 283 159 283 161 c 2,9,-1
 283 249 l 1,0,-1
128 0 m 2,10,11
 24 0 24 0 24 79 c 2,12,-1
 24 320 l 2,13,14
 24 399 24 399 128 399 c 2,15,-1
 283 399 l 1,16,-1
 283 477 l 2,17,18
 283 479 283 479 281 479 c 2,19,-1
 234 479 l 2,20,21
 232 479 232 479 232 477 c 2,22,-1
 232 440 l 1,23,-1
 24 440 l 1,24,-1
 24 558 l 2,25,26
 24 639 24 639 128 639 c 2,27,-1
 387 639 l 2,28,29
 491 639 491 639 491 558 c 2,30,-1
 491 79 l 2,31,32
 491 0 491 0 387 0 c 2,33,-1
 128 0 l 2,10,11
EndSplineSet
Validated: 1
EndChar

StartChar: ntilde
Encoding: 241 241 175
Width: 518
Flags: W
LayerCount: 2
Fore
SplineSet
285 0 m 1,0,-1
 285 477 l 2,1,2
 285 479 285 479 283 479 c 2,3,-1
 236 479 l 2,4,5
 234 479 234 479 234 477 c 2,6,-1
 234 0 l 1,7,-1
 26 0 l 1,8,-1
 26 639 l 1,9,-1
 234 639 l 1,10,-1
 234 598 l 1,11,12
 287 639 287 639 389 639 c 0,13,14
 493 639 493 639 493 558 c 2,15,-1
 493 0 l 1,16,-1
 285 0 l 1,0,-1
EndSplineSet
Refer: 708 -1 N 1 0 0 1 26 0 0
Refer: 314 732 N 1 0 0 1 69 0 2
Validated: 1
EndChar

StartChar: ograve
Encoding: 242 242 176
Width: 515
Flags: W
LayerCount: 2
Fore
SplineSet
283 477 m 2,0,1
 283 479 283 479 281 479 c 2,2,-1
 234 479 l 2,3,4
 232 479 232 479 232 477 c 2,5,-1
 232 161 l 2,6,7
 232 159 232 159 234 159 c 2,8,-1
 281 159 l 2,9,10
 283 159 283 159 283 161 c 2,11,-1
 283 477 l 2,0,1
128 0 m 2,12,13
 24 0 24 0 24 79 c 2,14,-1
 24 558 l 2,15,16
 24 639 24 639 128 639 c 2,17,-1
 387 639 l 2,18,19
 491 639 491 639 491 558 c 2,20,-1
 491 79 l 2,21,22
 491 0 491 0 387 0 c 2,23,-1
 128 0 l 2,12,13
EndSplineSet
Refer: 708 -1 N 1 0 0 1 24 0 0
Refer: 65 96 N 1 0 0 1 66 0 2
EndChar

StartChar: oacute
Encoding: 243 243 177
Width: 515
Flags: W
LayerCount: 2
Fore
SplineSet
283 477 m 2,0,1
 283 479 283 479 281 479 c 2,2,-1
 234 479 l 2,3,4
 232 479 232 479 232 477 c 2,5,-1
 232 161 l 2,6,7
 232 159 232 159 234 159 c 2,8,-1
 281 159 l 2,9,10
 283 159 283 159 283 161 c 2,11,-1
 283 477 l 2,0,1
128 0 m 2,12,13
 24 0 24 0 24 79 c 2,14,-1
 24 558 l 2,15,16
 24 639 24 639 128 639 c 2,17,-1
 387 639 l 2,18,19
 491 639 491 639 491 558 c 2,20,-1
 491 79 l 2,21,22
 491 0 491 0 387 0 c 2,23,-1
 128 0 l 2,12,13
EndSplineSet
Refer: 708 -1 N 1 0 0 1 24 0 0
Refer: 115 180 N 1 0 0 1 126 0 2
Validated: 1
EndChar

StartChar: ocircumflex
Encoding: 244 244 178
Width: 515
Flags: W
LayerCount: 2
Fore
SplineSet
283 477 m 2,0,1
 283 479 283 479 281 479 c 2,2,-1
 234 479 l 2,3,4
 232 479 232 479 232 477 c 2,5,-1
 232 161 l 2,6,7
 232 159 232 159 234 159 c 2,8,-1
 281 159 l 2,9,10
 283 159 283 159 283 161 c 2,11,-1
 283 477 l 2,0,1
128 0 m 2,12,13
 24 0 24 0 24 79 c 2,14,-1
 24 558 l 2,15,16
 24 639 24 639 128 639 c 2,17,-1
 387 639 l 2,18,19
 491 639 491 639 491 558 c 2,20,-1
 491 79 l 2,21,22
 491 0 491 0 387 0 c 2,23,-1
 128 0 l 2,12,13
EndSplineSet
Refer: 708 -1 N 1 0 0 1 24 0 0
Refer: 308 710 N 1 0 0 1 71 0 2
Validated: 1
EndChar

StartChar: otilde
Encoding: 245 245 179
Width: 515
Flags: W
LayerCount: 2
Fore
SplineSet
283 477 m 2,0,1
 283 479 283 479 281 479 c 2,2,-1
 234 479 l 2,3,4
 232 479 232 479 232 477 c 2,5,-1
 232 161 l 2,6,7
 232 159 232 159 234 159 c 2,8,-1
 281 159 l 2,9,10
 283 159 283 159 283 161 c 2,11,-1
 283 477 l 2,0,1
128 0 m 2,12,13
 24 0 24 0 24 79 c 2,14,-1
 24 558 l 2,15,16
 24 639 24 639 128 639 c 2,17,-1
 387 639 l 2,18,19
 491 639 491 639 491 558 c 2,20,-1
 491 79 l 2,21,22
 491 0 491 0 387 0 c 2,23,-1
 128 0 l 2,12,13
EndSplineSet
Refer: 708 -1 N 1 0 0 1 24 0 0
Refer: 314 732 N 1 0 0 1 57 0 2
Validated: 1
EndChar

StartChar: odieresis
Encoding: 246 246 180
Width: 515
Flags: W
LayerCount: 2
Fore
SplineSet
283 477 m 2,0,1
 283 479 283 479 281 479 c 2,2,-1
 234 479 l 2,3,4
 232 479 232 479 232 477 c 2,5,-1
 232 161 l 2,6,7
 232 159 232 159 234 159 c 2,8,-1
 281 159 l 2,9,10
 283 159 283 159 283 161 c 2,11,-1
 283 477 l 2,0,1
128 0 m 2,12,13
 24 0 24 0 24 79 c 2,14,-1
 24 558 l 2,15,16
 24 639 24 639 128 639 c 2,17,-1
 387 639 l 2,18,19
 491 639 491 639 491 558 c 2,20,-1
 491 79 l 2,21,22
 491 0 491 0 387 0 c 2,23,-1
 128 0 l 2,12,13
EndSplineSet
Refer: 708 -1 N 1 0 0 1 24 0 0
Refer: 104 168 N 1 0 0 1 63 0 2
Validated: 1
EndChar

StartChar: ugrave
Encoding: 249 249 183
Width: 517
Flags: W
LayerCount: 2
Fore
SplineSet
129 0 m 2,0,1
 25 0 25 0 25 79 c 2,2,-1
 25 639 l 1,3,-1
 233 639 l 1,4,-1
 233 161 l 2,5,6
 233 159 233 159 235 159 c 2,7,-1
 282 159 l 2,8,9
 284 159 284 159 284 161 c 2,10,-1
 284 639 l 1,11,-1
 492 639 l 1,12,-1
 492 79 l 2,13,14
 492 0 492 0 388 0 c 2,15,-1
 129 0 l 2,0,1
EndSplineSet
Refer: 708 -1 N 1 0 0 1 25 0 0
Refer: 65 96 N 1 0 0 1 67 0 2
EndChar

StartChar: uacute
Encoding: 250 250 184
Width: 517
Flags: W
LayerCount: 2
Fore
SplineSet
129 0 m 2,0,1
 25 0 25 0 25 79 c 2,2,-1
 25 639 l 1,3,-1
 233 639 l 1,4,-1
 233 161 l 2,5,6
 233 159 233 159 235 159 c 2,7,-1
 282 159 l 2,8,9
 284 159 284 159 284 161 c 2,10,-1
 284 639 l 1,11,-1
 492 639 l 1,12,-1
 492 79 l 2,13,14
 492 0 492 0 388 0 c 2,15,-1
 129 0 l 2,0,1
EndSplineSet
Refer: 708 -1 N 1 0 0 1 25 0 0
Refer: 115 180 N 1 0 0 1 127 0 2
Validated: 1
EndChar

StartChar: ucircumflex
Encoding: 251 251 185
Width: 517
Flags: W
LayerCount: 2
Fore
SplineSet
129 0 m 2,0,1
 25 0 25 0 25 79 c 2,2,-1
 25 639 l 1,3,-1
 233 639 l 1,4,-1
 233 161 l 2,5,6
 233 159 233 159 235 159 c 2,7,-1
 282 159 l 2,8,9
 284 159 284 159 284 161 c 2,10,-1
 284 639 l 1,11,-1
 492 639 l 1,12,-1
 492 79 l 2,13,14
 492 0 492 0 388 0 c 2,15,-1
 129 0 l 2,0,1
EndSplineSet
Refer: 708 -1 N 1 0 0 1 25 0 0
Refer: 308 710 N 1 0 0 1 72 0 2
Validated: 1
EndChar

StartChar: udieresis
Encoding: 252 252 186
Width: 517
Flags: W
LayerCount: 2
Fore
SplineSet
129 0 m 2,0,1
 25 0 25 0 25 79 c 2,2,-1
 25 639 l 1,3,-1
 233 639 l 1,4,-1
 233 161 l 2,5,6
 233 159 233 159 235 159 c 2,7,-1
 282 159 l 2,8,9
 284 159 284 159 284 161 c 2,10,-1
 284 639 l 1,11,-1
 492 639 l 1,12,-1
 492 79 l 2,13,14
 492 0 492 0 388 0 c 2,15,-1
 129 0 l 2,0,1
EndSplineSet
Refer: 708 -1 N 1 0 0 1 25 0 0
Refer: 104 168 N 1 0 0 1 64 0 2
Validated: 1
EndChar

StartChar: yacute
Encoding: 253 253 187
Width: 517
Flags: W
LayerCount: 2
Fore
SplineSet
24 -199 m 1,0,-1
 24 -40 l 1,1,-1
 281 -40 l 2,2,3
 283 -40 283 -40 283 -38 c 2,4,-1
 283 0 l 1,5,-1
 128 0 l 2,6,7
 24 0 24 0 24 79 c 2,8,-1
 24 639 l 1,9,-1
 232 639 l 1,10,-1
 232 161 l 2,11,12
 232 159 232 159 234 159 c 2,13,-1
 283 159 l 1,14,-1
 283 639 l 1,15,-1
 491 639 l 1,16,-1
 491 -120 l 2,17,18
 491 -199 491 -199 387 -199 c 2,19,-1
 24 -199 l 1,0,-1
EndSplineSet
Refer: 708 -1 N 1 0 0 1 24 0 0
Refer: 115 180 N 1 0 0 1 127 0 2
Validated: 1
EndChar

StartChar: ydieresis
Encoding: 255 255 189
Width: 517
Flags: W
LayerCount: 2
Fore
SplineSet
24 -199 m 1,0,-1
 24 -40 l 1,1,-1
 281 -40 l 2,2,3
 283 -40 283 -40 283 -38 c 2,4,-1
 283 0 l 1,5,-1
 128 0 l 2,6,7
 24 0 24 0 24 79 c 2,8,-1
 24 639 l 1,9,-1
 232 639 l 1,10,-1
 232 161 l 2,11,12
 232 159 232 159 234 159 c 2,13,-1
 283 159 l 1,14,-1
 283 639 l 1,15,-1
 491 639 l 1,16,-1
 491 -120 l 2,17,18
 491 -199 491 -199 387 -199 c 2,19,-1
 24 -199 l 1,0,-1
EndSplineSet
Refer: 708 -1 N 1 0 0 1 24 0 0
Refer: 104 168 N 1 0 0 1 64 0 2
Validated: 1
EndChar

StartChar: Amacron
Encoding: 256 256 190
Width: 517
Flags: W
LayerCount: 2
Fore
SplineSet
284 477 m 2,0,1
 284 479 284 479 282 479 c 2,2,-1
 235 479 l 2,3,4
 233 479 233 479 233 477 c 2,5,-1
 233 399 l 1,6,-1
 284 399 l 1,7,-1
 284 477 l 2,0,1
284 0 m 1,8,-1
 284 239 l 1,9,-1
 233 239 l 1,10,-1
 233 0 l 1,11,-1
 25 0 l 1,12,-1
 25 558 l 2,13,14
 25 639 25 639 129 639 c 2,15,-1
 388 639 l 2,16,17
 492 639 492 639 492 558 c 2,18,-1
 492 0 l 1,19,-1
 284 0 l 1,8,-1
EndSplineSet
Refer: 708 -1 N 1 0 0 1 25 0 0
Refer: 110 175 N 1 0 0 1 63 0 2
Validated: 1
EndChar

StartChar: amacron
Encoding: 257 257 191
Width: 516
Flags: W
LayerCount: 2
Fore
SplineSet
283 259 m 1,0,-1
 234 259 l 2,1,2
 232 259 232 259 232 257 c 2,3,-1
 232 161 l 2,4,5
 232 159 232 159 234 159 c 2,6,-1
 283 159 l 1,7,-1
 283 259 l 1,0,-1
128 0 m 2,8,9
 24 0 24 0 24 79 c 2,10,-1
 24 320 l 2,11,12
 24 399 24 399 128 399 c 2,13,-1
 283 399 l 1,14,-1
 283 477 l 2,15,16
 283 479 283 479 281 479 c 2,17,-1
 234 479 l 2,18,19
 232 479 232 479 232 477 c 2,20,-1
 232 440 l 1,21,-1
 24 440 l 1,22,-1
 24 558 l 2,23,24
 24 639 24 639 128 639 c 2,25,-1
 387 639 l 2,26,27
 491 639 491 639 491 558 c 2,28,-1
 491 0 l 1,29,-1
 128 0 l 2,8,9
EndSplineSet
Refer: 708 -1 N 1 0 0 1 24 0 0
Refer: 110 175 N 1 0 0 1 63 0 2
Validated: 1
EndChar

StartChar: Abreve
Encoding: 258 258 192
Width: 517
Flags: W
LayerCount: 2
Fore
SplineSet
284 477 m 2,0,1
 284 479 284 479 282 479 c 2,2,-1
 235 479 l 2,3,4
 233 479 233 479 233 477 c 2,5,-1
 233 399 l 1,6,-1
 284 399 l 1,7,-1
 284 477 l 2,0,1
284 0 m 1,8,-1
 284 239 l 1,9,-1
 233 239 l 1,10,-1
 233 0 l 1,11,-1
 25 0 l 1,12,-1
 25 558 l 2,13,14
 25 639 25 639 129 639 c 2,15,-1
 388 639 l 2,16,17
 492 639 492 639 492 558 c 2,18,-1
 492 0 l 1,19,-1
 284 0 l 1,8,-1
EndSplineSet
Refer: 708 -1 N 1 0 0 1 25 0 0
Refer: 310 728 N 1 0 0 1 73 0 2
Validated: 1
EndChar

